<svg width="33" height="28" viewBox="0 0 33 28" fill="none" xmlns="http://www.w3.org/2000/svg">
<path d="M5.92237e-07 13.5488C5.59043e-07 12.7894 0.564308 12.1618 1.29646 12.0625L1.5 12.0488L27.868 12.05L18.342 2.56297C17.755 1.97844 17.7529 1.0287 18.3375 0.441651C18.8688 -0.0920285 19.7021 -0.142236 20.2902 0.292209L20.4588 0.437083L32.5588 12.4851C32.6362 12.5621 32.7034 12.6455 32.7604 12.7336C32.7765 12.7601 32.7929 12.7872 32.8085 12.8149C32.8228 12.8386 32.8357 12.8632 32.8479 12.8881C32.8648 12.9243 32.8814 12.9617 32.8964 12.9999C32.9086 13.0293 32.9188 13.058 32.9281 13.0868C32.9391 13.1226 32.9499 13.1608 32.9591 13.1995C32.966 13.2265 32.9714 13.2525 32.9762 13.2787C32.9828 13.3175 32.9885 13.3577 32.9926 13.3984C32.9961 13.4295 32.9982 13.4602 32.9993 13.491C32.9996 13.5097 33 13.5292 33 13.5488L32.9992 13.6069C32.9981 13.6364 32.9961 13.6658 32.9932 13.6951L33 13.5488C33 13.6435 32.9912 13.7361 32.9745 13.8259C32.9706 13.8473 32.9659 13.8693 32.9608 13.8913C32.9502 13.9364 32.9378 13.9799 32.9237 14.0225C32.9167 14.0437 32.9086 14.0663 32.8999 14.0888C32.8824 14.1339 32.8634 14.177 32.8424 14.2189C32.8327 14.2386 32.8218 14.2592 32.8103 14.2796C32.7916 14.313 32.7723 14.3446 32.7519 14.3755C32.7374 14.3973 32.7215 14.4201 32.7048 14.4424L32.6919 14.4597C32.6514 14.5125 32.6076 14.5625 32.5607 14.6095L32.5589 14.6109L20.4589 26.6609C19.8719 27.2454 18.9221 27.2435 18.3375 26.6565C17.8061 26.1228 17.7594 25.2894 18.1964 24.7031L18.3419 24.5352L27.864 15.05L1.5 15.0488C0.671574 15.0488 6.28448e-07 14.3773 5.92237e-07 13.5488Z" fill="white"/>
</svg>
