<svg width="20" height="20" viewBox="0 0 20 20" fill="none" xmlns="http://www.w3.org/2000/svg">
<path fill-rule="evenodd" clip-rule="evenodd" d="M10 16.6665C13.6819 16.6665 16.6667 13.6818 16.6667 9.99984C16.6667 6.31794 13.6819 3.33317 10 3.33317C6.31812 3.33317 3.33335 6.31794 3.33335 9.99984C3.33335 13.6818 6.31812 16.6665 10 16.6665ZM10 18.3332C14.6024 18.3332 18.3334 14.6022 18.3334 9.99984C18.3334 5.39746 14.6024 1.6665 10 1.6665C5.39765 1.6665 1.66669 5.39746 1.66669 9.99984C1.66669 14.6022 5.39765 18.3332 10 18.3332Z" fill="#777E91"/>
<path d="M12.8952 17.817C12.5993 15.7085 12.1063 13.7949 11.4124 11.986C9.71377 12.8095 7.81394 14.2485 5.20164 16.8144C4.74459 16.4919 4.32143 16.1246 3.93855 15.719C6.68219 13.0133 8.77769 11.3956 10.7634 10.4489C10.5087 9.89662 10.234 9.3522 9.93919 8.81278C7.60129 9.54962 4.93559 9.93787 1.66669 9.99337C1.66715 9.42137 1.72525 8.86278 1.8355 8.32318C4.72045 8.26137 7.0542 7.92746 9.0741 7.334C8.13654 5.82958 7.03765 4.34462 5.77477 2.816C6.2672 2.52577 6.79207 2.28472 7.34264 2.09961C8.61702 3.66591 9.7336 5.20534 10.6898 6.77966C12.4862 6.06962 14.0784 5.11131 15.6679 3.89123C16.0764 4.27043 16.4469 4.69011 16.7728 5.14388C15.1196 6.42263 13.4338 7.45905 11.5244 8.24035C11.8054 8.76512 12.0689 9.2957 12.3152 9.8342C14.204 9.23579 16.0633 9.17395 18.2923 9.16762C18.3194 9.44145 18.3334 9.71929 18.3334 10.0003C18.3334 10.2819 18.3194 10.5602 18.2921 10.8346C16.1385 10.8423 14.5414 10.903 12.9641 11.3778C13.6414 13.1407 14.1424 15.0045 14.464 17.0384C13.9735 17.3501 13.4482 17.612 12.8952 17.817Z" fill="#777E91"/>
</svg>
