<svg width="20" height="20" viewBox="0 0 20 20" fill="none" xmlns="http://www.w3.org/2000/svg">
<g clip-path="url(#clip0_1_851)">
<path d="M14.1666 3.3335C13.7064 3.3335 13.3333 3.7066 13.3333 4.16683C13.3333 4.62706 13.7064 5.00016 14.1666 5.00016H17.5C17.9602 5.00016 18.3333 4.62706 18.3333 4.16683C18.3333 3.7066 17.9602 3.3335 17.5 3.3335H14.1666Z" fill="#777E91"/>
<path fill-rule="evenodd" clip-rule="evenodd" d="M11.6667 10.8332C11.6667 8.532 13.5322 6.6665 15.8334 6.6665C18.1345 6.6665 20 8.532 20 10.8332V11.6665C20 12.1268 19.6269 12.4998 19.1667 12.4998H13.3334C13.3334 13.8806 14.4526 14.9998 15.8334 14.9998C16.4146 14.9998 16.9494 14.8015 17.374 14.4688C17.5958 14.295 17.8578 14.1665 18.1396 14.1665C18.8537 14.1665 19.3106 14.9041 18.811 15.4144C18.0547 16.187 17 16.6665 15.8334 16.6665C13.5322 16.6665 11.6667 14.801 11.6667 12.4998V10.8332ZM15.8334 8.33317C14.4526 8.33317 13.3334 9.45242 13.3334 10.8332H18.3334C18.3334 9.45242 17.2141 8.33317 15.8334 8.33317Z" fill="#777E91"/>
<path fill-rule="evenodd" clip-rule="evenodd" d="M1.66667 5.00016V8.3335H5.83333C6.75381 8.3335 7.5 7.5873 7.5 6.66683C7.5 5.74635 6.75381 5.00016 5.83333 5.00016H1.66667ZM8.16648 9.0475C8.78375 8.4425 9.16667 7.59939 9.16667 6.66683C9.16667 4.82588 7.67428 3.3335 5.83333 3.3335H1.33333C0.596953 3.3335 0 3.93045 0 4.66683V15.2382C0 16.0272 0.639594 16.6668 1.42858 16.6668H5.83333C8.13452 16.6668 10 14.8013 10 12.5002C10 11.0634 9.27283 9.79658 8.16648 9.0475ZM1.66667 10.0002V15.0002H5.83333C7.21404 15.0002 8.33333 13.8809 8.33333 12.5002C8.33333 11.1194 7.21404 10.0002 5.83333 10.0002H1.66667Z" fill="#777E91"/>
</g>
<defs>
<clipPath id="clip0_1_851">
<rect width="20" height="20" fill="white"/>
</clipPath>
</defs>
</svg>
