<svg width="56" height="176" viewBox="0 0 56 176" fill="none" xmlns="http://www.w3.org/2000/svg">
<path d="M4 168C6.20914 168 8 169.791 8 172C8 174.209 6.20914 176 4 176C1.79086 176 0 174.209 0 172C0 169.791 1.79086 168 4 168ZM28 168C30.2091 168 32 169.791 32 172C32 174.209 30.2091 176 28 176C25.7909 176 24 174.209 24 172C24 169.791 25.7909 168 28 168ZM52 168C54.2091 168 56 169.791 56 172C56 174.209 54.2091 176 52 176C49.7909 176 48 174.209 48 172C48 169.791 49.7909 168 52 168ZM4 144C6.20914 144 8 145.791 8 148C8 150.209 6.20914 152 4 152C1.79086 152 0 150.209 0 148C0 145.791 1.79086 144 4 144ZM28 144C30.2091 144 32 145.791 32 148C32 150.209 30.2091 152 28 152C25.7909 152 24 150.209 24 148C24 145.791 25.7909 144 28 144ZM52 144C54.2091 144 56 145.791 56 148C56 150.209 54.2091 152 52 152C49.7909 152 48 150.209 48 148C48 145.791 49.7909 144 52 144ZM4 120C6.20914 120 8 121.791 8 124C8 126.209 6.20914 128 4 128C1.79086 128 0 126.209 0 124C0 121.791 1.79086 120 4 120ZM28 120C30.2091 120 32 121.791 32 124C32 126.209 30.2091 128 28 128C25.7909 128 24 126.209 24 124C24 121.791 25.7909 120 28 120ZM52 120C54.2091 120 56 121.791 56 124C56 126.209 54.2091 128 52 128C49.7909 128 48 126.209 48 124C48 121.791 49.7909 120 52 120ZM4 96C6.20914 96 8 97.7909 8 100C8 102.209 6.20914 104 4 104C1.79086 104 0 102.209 0 100C0 97.7909 1.79086 96 4 96ZM28 96C30.2091 96 32 97.7909 32 100C32 102.209 30.2091 104 28 104C25.7909 104 24 102.209 24 100C24 97.7909 25.7909 96 28 96ZM52 96C54.2091 96 56 97.7909 56 100C56 102.209 54.2091 104 52 104C49.7909 104 48 102.209 48 100C48 97.7909 49.7909 96 52 96ZM4 72C6.20914 72 8 73.7909 8 76C8 78.2091 6.20914 80 4 80C1.79086 80 0 78.2091 0 76C0 73.7909 1.79086 72 4 72ZM28 72C30.2091 72 32 73.7909 32 76C32 78.2091 30.2091 80 28 80C25.7909 80 24 78.2091 24 76C24 73.7909 25.7909 72 28 72ZM52 72C54.2091 72 56 73.7909 56 76C56 78.2091 54.2091 80 52 80C49.7909 80 48 78.2091 48 76C48 73.7909 49.7909 72 52 72ZM4 48C6.20914 48 8 49.7909 8 52C8 54.2091 6.20914 56 4 56C1.79086 56 0 54.2091 0 52C0 49.7909 1.79086 48 4 48ZM28 48C30.2091 48 32 49.7909 32 52C32 54.2091 30.2091 56 28 56C25.7909 56 24 54.2091 24 52C24 49.7909 25.7909 48 28 48ZM52 48C54.2091 48 56 49.7909 56 52C56 54.2091 54.2091 56 52 56C49.7909 56 48 54.2091 48 52C48 49.7909 49.7909 48 52 48ZM4 24C6.20914 24 8 25.7909 8 28C8 30.2091 6.20914 32 4 32C1.79086 32 0 30.2091 0 28C0 25.7909 1.79086 24 4 24ZM28 24C30.2091 24 32 25.7909 32 28C32 30.2091 30.2091 32 28 32C25.7909 32 24 30.2091 24 28C24 25.7909 25.7909 24 28 24ZM52 24C54.2091 24 56 25.7909 56 28C56 30.2091 54.2091 32 52 32C49.7909 32 48 30.2091 48 28C48 25.7909 49.7909 24 52 24ZM4 0C6.20914 0 8 1.79086 8 4C8 6.20914 6.20914 8 4 8C1.79086 8 0 6.20914 0 4C0 1.79086 1.79086 0 4 0ZM28 0C30.2091 0 32 1.79086 32 4C32 6.20914 30.2091 8 28 8C25.7909 8 24 6.20914 24 4C24 1.79086 25.7909 0 28 0ZM52 0C54.2091 0 56 1.79086 56 4C56 6.20914 54.2091 8 52 8C49.7909 8 48 6.20914 48 4C48 1.79086 49.7909 0 52 0Z" fill="black"/>
</svg>
