<svg width="164" height="669" viewBox="0 0 164 669" fill="none" xmlns="http://www.w3.org/2000/svg">
<g opacity="0.05">
<mask id="path-1-outside-1_1_718" maskUnits="userSpaceOnUse" x="-0.522063" y="-0.720957" width="164" height="669" fill="black">
<rect fill="white" x="-0.522063" y="-0.720957" width="164" height="669"/>
<path d="M162.334 596.495C162.334 619.479 155.942 637.023 143.158 649.127C130.374 661.095 112.218 667.079 88.69 667.079C76.994 667.079 66.59 665.243 57.478 661.571C48.23 657.899 40.478 652.867 34.222 646.475C27.83 640.083 23.002 632.467 19.738 623.627C16.474 614.787 14.842 605.199 14.842 594.863C14.842 588.879 15.318 583.439 16.27 578.543C17.086 573.647 18.106 569.363 19.33 565.691C20.418 562.019 21.574 558.959 22.798 556.511C24.022 554.063 24.974 552.295 25.654 551.207L51.358 560.387C49.046 564.739 47.074 569.839 45.442 575.687C43.81 581.399 42.994 587.927 42.994 595.271C42.994 600.167 43.81 604.995 45.442 609.755C47.074 614.379 49.726 618.527 53.398 622.199C56.934 625.735 61.558 628.591 67.27 630.767C72.982 632.943 79.918 634.031 88.078 634.031C94.606 634.031 100.726 633.351 106.438 631.991C112.014 630.495 116.842 628.183 120.922 625.055C125.002 621.791 128.266 617.575 130.714 612.407C133.026 607.239 134.182 600.983 134.182 593.639C134.182 589.015 133.91 584.867 133.366 581.195C132.822 577.523 132.21 574.259 131.53 571.403C130.714 568.547 129.83 566.031 128.878 563.855C127.926 561.679 127.042 559.707 126.226 557.939L151.726 549.167C154.446 553.655 156.894 559.979 159.07 568.139C161.246 576.299 162.334 585.751 162.334 596.495ZM161.518 487.878C161.382 496.718 160.43 503.926 158.662 509.502C156.894 514.942 154.446 519.294 151.318 522.558C148.054 525.686 144.178 527.862 139.69 529.086C135.066 530.174 129.898 530.718 124.186 530.718L6.06995 530.718L1.17395 500.322L118.066 500.322C120.786 500.322 123.234 500.118 125.41 499.71C127.586 499.302 129.422 498.554 130.918 497.466C132.414 496.242 133.638 494.542 134.59 492.366C135.542 490.19 136.154 487.266 136.426 483.594L161.518 487.878ZM159.478 435.775L159.478 466.171L52.174 466.171L52.174 435.775L159.478 435.775ZM21.1659 432.919C26.742 432.919 31.162 434.755 34.4259 438.427C37.5539 441.963 39.1179 446.179 39.1179 451.075C39.1179 455.971 37.5539 460.255 34.4259 463.927C31.162 467.463 26.742 469.231 21.166 469.231C15.5899 469.231 11.2379 467.463 8.10995 463.927C4.84595 460.255 3.21395 455.971 3.21395 451.075C3.21395 446.179 4.84595 441.963 8.10995 438.427C11.2379 434.755 15.5899 432.919 21.1659 432.919ZM106.642 412.302C97.122 412.302 88.826 410.874 81.754 408.018C74.546 405.026 68.562 401.15 63.802 396.39C59.042 391.63 55.438 386.19 52.99 380.07C50.5419 373.814 49.3179 367.422 49.3179 360.894C49.3179 345.662 54.0099 333.626 63.3939 324.786C72.6419 315.946 86.3099 311.526 104.398 311.526C106.166 311.526 108.138 311.594 110.314 311.73C112.354 311.866 114.19 312.002 115.822 312.138L115.822 381.09C122.078 380.41 127.042 377.486 130.714 372.318C134.386 367.15 136.222 360.214 136.222 351.51C136.222 345.934 135.746 340.494 134.794 335.19C133.706 329.75 132.414 325.33 130.918 321.93L155.602 317.85C156.418 319.482 157.234 321.658 158.05 324.378C158.866 327.098 159.546 330.158 160.09 333.558C160.77 336.822 161.314 340.358 161.722 344.166C162.13 347.974 162.334 351.782 162.334 355.59C162.334 365.246 160.906 373.678 158.05 380.886C155.194 387.958 151.318 393.874 146.422 398.634C141.39 403.258 135.474 406.726 128.674 409.038C121.874 411.214 114.53 412.302 106.642 412.302ZM95.0139 340.902C92.4299 341.038 89.9139 341.514 87.4659 342.33C85.0179 343.01 82.8419 344.166 80.9379 345.798C79.0339 347.294 77.4699 349.266 76.2459 351.714C75.0219 354.026 74.4099 356.95 74.4099 360.486C74.4099 363.886 75.0219 366.81 76.2459 369.258C77.334 371.706 78.83 373.746 80.734 375.378C82.638 377.01 84.882 378.302 87.466 379.254C89.914 380.07 92.43 380.682 95.014 381.09L95.0139 340.902ZM55.8459 288.069C54.3499 282.901 52.9899 276.237 51.7659 268.077C50.4059 259.917 49.7259 251.349 49.7259 242.373C49.7259 233.261 50.9499 225.713 53.3979 219.729C55.7099 213.609 59.0419 208.781 63.3939 205.245C67.7459 201.709 72.9139 199.193 78.8979 197.697C84.8819 196.201 91.5459 195.453 98.8899 195.453L159.478 195.453L159.478 225.849L102.562 225.849C92.7699 225.849 85.8339 227.141 81.7539 229.725C77.6739 232.309 75.6339 237.137 75.6339 244.209C75.6339 246.385 75.7699 248.697 76.0419 251.145C76.1779 253.593 76.3819 255.769 76.6539 257.673L159.478 257.673L159.478 288.069L55.8459 288.069ZM25.4499 168.96L20.5539 138.564L52.1739 138.564L52.1739 102.048L77.4699 102.048L77.4699 138.564L115.21 138.564C121.602 138.564 126.702 137.476 130.51 135.3C134.318 132.988 136.222 128.432 136.222 121.632C136.222 118.368 135.95 115.036 135.406 111.636C134.726 108.1 133.842 104.904 132.754 102.048L156.418 97.7644C157.914 101.436 159.206 105.516 160.294 110.004C161.382 114.492 161.926 120 161.926 126.528C161.926 134.824 160.838 141.692 158.662 147.132C156.35 152.572 153.222 156.924 149.278 160.188C145.198 163.452 140.302 165.764 134.59 167.124C128.878 168.348 122.554 168.96 115.618 168.96L25.4499 168.96ZM137.65 46.4919C137.65 40.9159 137.106 36.9719 136.018 34.6599C134.93 32.3479 132.822 31.1919 129.694 31.1919C127.246 31.1919 125.138 32.6879 123.37 35.6799C121.466 38.6719 119.358 43.2279 117.046 49.3479C115.278 54.1079 113.442 58.4599 111.538 62.4039C109.634 66.2119 107.39 69.4759 104.806 72.1959C102.086 74.9159 98.8899 77.0239 95.2179 78.5199C91.5459 80.0159 87.1259 80.7639 81.9579 80.7639C71.8939 80.7639 63.9379 77.0239 58.0899 69.5439C52.2419 62.0639 49.3179 51.7959 49.3179 38.7399C49.3179 32.2119 49.9299 25.9559 51.1539 19.9719C52.2419 13.9879 53.4659 9.22792 54.8259 5.69192L78.4899 10.9959C77.2659 14.5319 76.1779 18.4079 75.2259 22.6239C74.2739 26.7039 73.7979 31.3279 73.7979 36.4959C73.7979 46.0159 76.4499 50.7759 81.7539 50.7759C82.9779 50.7759 84.0659 50.5719 85.0179 50.1639C85.9699 49.7559 86.9219 48.9399 87.8739 47.7159C88.6899 46.4919 89.6419 44.8599 90.7299 42.8199C91.6819 40.6439 92.7699 37.9239 93.9939 34.6599C96.4419 27.9959 98.8899 22.4879 101.338 18.1359C103.65 13.7839 106.234 10.3839 109.09 7.93592C111.81 5.35192 114.87 3.58392 118.27 2.63192C121.67 1.54391 125.614 0.999913 130.102 0.999913C140.71 0.999912 148.734 5.01191 154.174 13.0359C159.614 20.9239 162.334 32.1439 162.334 46.6959C162.334 56.2159 161.518 64.1719 159.886 70.5639C158.254 76.8199 156.894 81.1719 155.806 83.6199L131.122 78.5199C133.162 73.3519 134.794 68.0479 136.018 62.6079C137.106 57.1679 137.65 51.7959 137.65 46.4919Z"/>
</mask>
<path d="M143.158 649.127L143.841 649.857L143.845 649.853L143.158 649.127ZM57.478 661.571L57.8517 660.644L57.847 660.642L57.478 661.571ZM34.222 646.475L34.9367 645.776L34.9291 645.768L34.222 646.475ZM19.738 623.627L18.7999 623.973L18.7999 623.973L19.738 623.627ZM16.27 578.543L17.2516 578.734L17.2541 578.721L17.2564 578.707L16.27 578.543ZM19.33 565.691L20.2786 566.007L20.284 565.991L20.2888 565.975L19.33 565.691ZM25.654 551.207L25.9903 550.265L25.2325 549.995L24.806 550.677L25.654 551.207ZM51.358 560.387L52.2411 560.856L52.7839 559.834L51.6943 559.445L51.358 560.387ZM45.442 575.687L46.4035 575.962L46.4052 575.956L45.442 575.687ZM45.442 609.755L44.496 610.079L44.499 610.088L45.442 609.755ZM53.398 622.199L52.6908 622.906V622.906L53.398 622.199ZM106.438 631.991L106.67 632.964L106.683 632.961L106.697 632.957L106.438 631.991ZM120.922 625.055L121.53 625.849L121.539 625.842L121.547 625.836L120.922 625.055ZM130.714 612.407L131.618 612.835L131.622 612.825L131.627 612.815L130.714 612.407ZM133.366 581.195L132.377 581.342V581.342L133.366 581.195ZM131.53 571.403L132.503 571.171L132.498 571.15L132.491 571.128L131.53 571.403ZM128.878 563.855L129.794 563.454V563.454L128.878 563.855ZM126.226 557.939L125.901 556.993L124.854 557.353L125.318 558.358L126.226 557.939ZM151.726 549.167L152.581 548.649L152.163 547.959L151.401 548.221L151.726 549.167ZM159.07 568.139L160.036 567.881L159.07 568.139ZM161.334 596.495C161.334 619.292 154.999 636.539 142.47 648.401L143.845 649.853C156.885 637.507 163.334 619.666 163.334 596.495L161.334 596.495ZM142.475 648.397C129.932 660.139 112.053 666.079 88.69 666.079L88.69 668.079C112.383 668.079 130.816 662.051 143.841 649.857L142.475 648.397ZM88.69 666.079C77.0981 666.079 66.8246 664.259 57.8517 660.644L57.1042 662.499C66.3553 666.227 76.8898 668.079 88.69 668.079L88.69 666.079ZM57.847 660.642C48.7143 657.015 41.0843 652.057 34.9366 645.776L33.5073 647.175C39.8716 653.677 47.7456 658.783 57.1089 662.5L57.847 660.642ZM34.9291 645.768C28.6436 639.482 23.8922 631.991 20.676 623.281L18.7999 623.973C22.1117 632.943 27.0164 640.684 33.5149 647.182L34.9291 645.768ZM20.676 623.281C17.4568 614.562 15.842 605.092 15.842 594.863L13.842 594.863C13.842 605.306 15.4911 615.012 18.7999 623.973L20.676 623.281ZM15.842 594.863C15.842 588.931 16.3139 583.556 17.2516 578.734L15.2883 578.352C14.322 583.322 13.842 588.827 13.842 594.863L15.842 594.863ZM17.2564 578.707C18.066 573.849 19.075 569.618 20.2786 566.007L18.3813 565.375C17.1369 569.108 16.1059 573.445 15.2836 578.379L17.2564 578.707ZM20.2888 565.975C21.3661 562.339 22.5026 559.338 23.6924 556.958L21.9035 556.064C20.6453 558.58 19.4698 561.699 18.3712 565.407L20.2888 565.975ZM23.6924 556.958C24.9143 554.514 25.8487 552.782 26.502 551.737L24.806 550.677C24.0992 551.808 23.1296 553.612 21.9035 556.064L23.6924 556.958ZM25.3176 552.149L51.0216 561.329L51.6943 559.445L25.9903 550.265L25.3176 552.149ZM50.4748 559.918C48.1223 564.346 46.1259 569.516 44.4788 575.418L46.4052 575.956C48.022 570.162 49.9696 565.132 52.2411 560.856L50.4748 559.918ZM44.4804 575.412C42.8177 581.232 41.994 587.855 41.994 595.271L43.994 595.271C43.994 587.999 44.8022 581.566 46.4035 575.962L44.4804 575.412ZM41.994 595.271C41.994 600.28 42.8292 605.218 44.496 610.079L46.3879 609.431C44.7907 604.772 43.994 600.054 43.994 595.271L41.994 595.271ZM44.499 610.088C46.1836 614.861 48.9196 619.135 52.6908 622.906L54.1051 621.492C50.5323 617.919 47.9643 613.897 46.385 609.422L44.499 610.088ZM52.6908 622.906C56.3461 626.561 61.0988 629.486 66.914 631.702L67.626 629.833C62.0171 627.696 57.5218 624.909 54.1051 621.492L52.6908 622.906ZM66.914 631.702C72.7707 633.933 79.8346 635.031 88.078 635.031L88.078 633.031C80.0013 633.031 73.1932 631.953 67.626 629.833L66.914 631.702ZM88.078 635.031C94.6754 635.031 100.874 634.344 106.67 632.964L106.206 631.018C100.578 632.358 94.5365 633.031 88.078 633.031L88.078 635.031ZM106.697 632.957C112.384 631.431 117.334 629.066 121.53 625.849L120.314 624.261C116.35 627.3 111.644 629.559 106.179 631.025L106.697 632.957ZM121.547 625.836C125.756 622.468 129.111 618.127 131.618 612.835L129.81 611.979C127.421 617.023 124.248 621.114 120.297 624.274L121.547 625.836ZM131.627 612.815C134.011 607.487 135.182 601.084 135.182 593.639L133.182 593.639C133.182 600.882 132.041 606.991 129.801 611.999L131.627 612.815ZM135.182 593.639C135.182 588.977 134.908 584.779 134.355 581.048L132.377 581.342C132.912 584.955 133.182 589.053 133.182 593.639L135.182 593.639ZM134.355 581.048C133.808 577.355 133.191 574.062 132.503 571.171L130.557 571.635C131.229 574.456 131.836 577.691 132.377 581.342L134.355 581.048ZM132.491 571.128C131.666 568.239 130.768 565.68 129.794 563.454L127.962 564.256C128.892 566.382 129.762 568.855 130.568 571.678L132.491 571.128ZM129.794 563.454C128.84 561.273 127.953 559.295 127.134 557.52L125.318 558.358C126.131 560.119 127.012 562.085 127.962 564.256L129.794 563.454ZM126.551 558.885L152.051 550.113L151.401 548.221L125.901 556.993L126.551 558.885ZM150.871 549.685C153.521 554.058 155.939 560.28 158.104 568.397L160.036 567.881C157.849 559.678 155.371 553.252 152.581 548.649L150.871 549.685ZM158.104 568.397C160.252 576.453 161.334 585.816 161.334 596.495L163.334 596.495C163.334 585.686 162.24 576.145 160.036 567.881L158.104 568.397ZM161.518 487.878L162.518 487.893L162.531 487.036L161.686 486.892L161.518 487.878ZM158.662 509.502L159.613 509.811L159.615 509.804L158.662 509.502ZM151.318 522.558L152.01 523.28L152.025 523.265L152.04 523.25L151.318 522.558ZM139.69 529.086L139.919 530.059L139.936 530.055L139.953 530.051L139.69 529.086ZM6.06995 530.718L5.08268 530.877L5.21814 531.718L6.06995 531.718L6.06995 530.718ZM1.17395 500.322L1.17395 499.322L-7.77876e-06 499.322L0.18668 500.481L1.17395 500.322ZM125.41 499.71L125.226 498.727V498.727L125.41 499.71ZM130.918 497.466L131.506 498.275L131.529 498.258L131.551 498.24L130.918 497.466ZM134.59 492.366L133.674 491.965V491.965L134.59 492.366ZM136.426 483.594L136.594 482.608L135.51 482.423L135.429 483.52L136.426 483.594ZM160.518 487.862C160.383 496.649 159.436 503.751 157.709 509.2L159.615 509.804C161.424 504.101 162.381 496.786 162.518 487.893L160.518 487.862ZM157.711 509.193C155.977 514.526 153.596 518.736 150.596 521.866L152.04 523.25C155.296 519.852 157.81 515.357 159.613 509.811L157.711 509.193ZM150.626 521.836C147.486 524.845 143.759 526.94 139.427 528.121L139.953 530.051C144.597 528.784 148.622 526.527 152.01 523.28L150.626 521.836ZM139.461 528.112C134.925 529.18 129.836 529.718 124.186 529.718L124.186 531.718C129.96 531.718 135.207 531.168 139.919 530.059L139.461 528.112ZM124.186 529.718L6.06995 529.718L6.06995 531.718L124.186 531.718L124.186 529.718ZM7.05723 530.559L2.16123 500.163L0.18668 500.481L5.08268 530.877L7.05723 530.559ZM1.17395 501.322L118.066 501.322L118.066 499.322L1.17395 499.322L1.17395 501.322ZM118.066 501.322C120.834 501.322 123.346 501.114 125.594 500.693L125.226 498.727C123.122 499.121 120.738 499.322 118.066 499.322L118.066 501.322ZM125.594 500.693C127.888 500.263 129.869 499.465 131.506 498.275L130.33 496.657C128.975 497.642 127.284 498.341 125.226 498.727L125.594 500.693ZM131.551 498.24C133.195 496.895 134.505 495.055 135.506 492.767L133.674 491.965C132.771 494.029 131.633 495.588 130.285 496.692L131.551 498.24ZM135.506 492.767C136.521 490.446 137.147 487.397 137.423 483.668L135.429 483.52C135.161 487.134 134.563 489.933 133.674 491.965L135.506 492.767ZM136.258 484.58L161.35 488.864L161.686 486.892L136.594 482.608L136.258 484.58ZM159.478 435.775L160.478 435.775L160.478 434.775L159.478 434.775L159.478 435.775ZM159.478 466.171L159.478 467.171L160.478 467.171L160.478 466.171L159.478 466.171ZM52.174 466.171L51.174 466.171L51.174 467.171L52.174 467.171L52.174 466.171ZM52.174 435.775L52.174 434.775L51.174 434.775L51.174 435.775L52.174 435.775ZM34.4259 438.427L35.1749 437.764L35.1734 437.763L34.4259 438.427ZM34.4259 463.927L35.1607 464.605L35.1743 464.591L35.1872 464.575L34.4259 463.927ZM8.10995 463.927L8.85895 463.264L8.85736 463.263L8.10995 463.927ZM8.10995 438.427L8.84475 439.105L8.85827 439.091L8.87119 439.075L8.10995 438.427ZM158.478 435.775L158.478 466.171L160.478 466.171L160.478 435.775L158.478 435.775ZM159.478 465.171L52.174 465.171L52.174 467.171L159.478 467.171L159.478 465.171ZM53.174 466.171L53.174 435.775L51.174 435.775L51.174 466.171L53.174 466.171ZM52.174 436.775L159.478 436.775L159.478 434.775L52.174 434.775L52.174 436.775ZM21.166 433.919C26.4991 433.919 30.631 435.663 33.6785 439.091L35.1734 437.763C31.6929 433.847 26.9848 431.919 21.166 431.919L21.166 433.919ZM33.677 439.089C36.6368 442.435 38.1179 446.413 38.1179 451.075L40.1179 451.075C40.1179 445.945 38.4711 441.49 35.1749 437.764L33.677 439.089ZM38.1179 451.075C38.1179 455.737 36.6361 459.79 33.6647 463.278L35.1872 464.575C38.4718 460.72 40.1179 456.205 40.1179 451.075L38.1179 451.075ZM33.6911 463.249C30.6471 466.546 26.5114 468.231 21.166 468.231L21.166 470.231C26.9725 470.231 31.6768 468.379 35.1607 464.605L33.6911 463.249ZM21.166 468.231C15.8195 468.231 11.7624 466.547 8.85895 463.264L7.36095 464.59C10.7135 468.379 15.3604 470.231 21.166 470.231L21.166 468.231ZM8.85736 463.263C5.75545 459.773 4.21395 455.725 4.21395 451.075L2.21395 451.075C2.21395 456.217 3.93645 460.737 7.36254 464.591L8.85736 463.263ZM4.21395 451.075C4.21395 446.425 5.75453 442.453 8.84475 439.105L7.37514 437.749C3.93737 441.473 2.21395 445.932 2.21395 451.075L4.21395 451.075ZM8.87119 439.075C11.7785 435.662 15.8321 433.919 21.166 433.919L21.166 431.919C15.3478 431.919 10.6973 433.847 7.3487 437.778L8.87119 439.075ZM81.754 408.018L81.3706 408.942L81.3795 408.945L81.754 408.018ZM63.802 396.39L63.0948 397.097V397.097L63.802 396.39ZM52.9899 380.07L52.0587 380.435L52.0615 380.442L52.9899 380.07ZM63.394 324.786L64.0797 325.514L64.0849 325.509L63.394 324.786ZM110.314 311.73L110.38 310.732L110.376 310.732L110.314 311.73ZM115.822 312.138L116.822 312.138L116.822 311.218L115.905 311.142L115.822 312.138ZM115.822 381.09L114.822 381.09L114.822 382.205L115.93 382.084L115.822 381.09ZM130.714 372.318L131.529 372.897V372.897L130.714 372.318ZM134.794 335.19L135.778 335.014L135.776 335.004L135.775 334.994L134.794 335.19ZM130.918 321.93L130.755 320.944L129.484 321.154L130.003 322.333L130.918 321.93ZM155.602 317.85L156.496 317.403L156.167 316.743L155.439 316.864L155.602 317.85ZM158.05 324.378L157.092 324.666V324.666L158.05 324.378ZM160.09 333.558L159.103 333.716L159.106 333.739L159.111 333.762L160.09 333.558ZM161.722 344.166L162.716 344.06V344.06L161.722 344.166ZM158.05 380.886L158.977 381.261L158.98 381.255L158.05 380.886ZM146.422 398.634L147.099 399.371L147.109 399.361L147.119 399.351L146.422 398.634ZM128.674 409.038L128.979 409.991L128.987 409.988L128.996 409.985L128.674 409.038ZM95.0139 340.902L96.0139 340.902L96.0139 339.848L94.9614 339.904L95.0139 340.902ZM87.4659 342.33L87.7336 343.294L87.7581 343.287L87.7822 343.279L87.4659 342.33ZM80.9379 345.798L81.5558 346.584L81.5725 346.571L81.5887 346.557L80.9379 345.798ZM76.2459 351.714L77.1297 352.182L77.1352 352.172L77.1404 352.161L76.2459 351.714ZM76.246 369.258L77.1598 368.852L77.1505 368.831L77.1404 368.811L76.246 369.258ZM87.4659 379.254L87.1202 380.192L87.1349 380.198L87.1497 380.203L87.4659 379.254ZM95.0139 381.09L94.858 382.078L96.0139 382.26L96.0139 381.09L95.0139 381.09ZM106.642 411.302C97.2195 411.302 89.0559 409.889 82.1284 407.091L81.3795 408.945C88.596 411.86 97.0244 413.302 106.642 413.302L106.642 411.302ZM82.1373 407.095C75.0313 404.145 69.1628 400.337 64.5091 395.683L63.0948 397.097C67.9611 401.964 74.0606 405.907 81.3706 408.942L82.1373 407.095ZM64.5091 395.683C59.8427 391.017 56.315 385.69 53.9184 379.699L52.0615 380.442C54.5609 386.69 58.2412 392.244 63.0948 397.097L64.5091 395.683ZM53.9212 379.706C51.5173 373.562 50.3179 367.294 50.3179 360.894L48.3179 360.894C48.3179 367.551 49.5666 374.066 52.0587 380.435L53.9212 379.706ZM50.3179 360.894C50.3179 345.883 54.9326 334.131 64.0796 325.514L62.7083 324.058C53.0873 333.122 48.3179 345.441 48.3179 360.894L50.3179 360.894ZM64.0849 325.509C73.0817 316.909 86.4604 312.526 104.398 312.526L104.398 310.526C86.1595 310.526 72.2022 314.983 62.703 324.063L64.0849 325.509ZM104.398 312.526C106.141 312.526 108.092 312.593 110.252 312.728L110.376 310.732C108.184 310.595 106.191 310.526 104.398 310.526L104.398 312.526ZM110.247 312.728C112.283 312.864 114.114 312.999 115.739 313.135L115.905 311.142C114.266 311.005 112.425 310.869 110.38 310.732L110.247 312.728ZM114.822 312.138L114.822 381.09L116.822 381.09L116.822 312.138L114.822 312.138ZM115.93 382.084C122.473 381.373 127.693 378.296 131.529 372.897L129.899 371.739C126.391 376.676 121.683 379.447 115.714 380.096L115.93 382.084ZM131.529 372.897C135.359 367.507 137.222 360.346 137.222 351.51L135.222 351.51C135.222 360.082 133.413 366.793 129.899 371.739L131.529 372.897ZM137.222 351.51C137.222 345.877 136.741 340.378 135.778 335.014L133.81 335.367C134.751 340.611 135.222 345.991 135.222 351.51L137.222 351.51ZM135.775 334.994C134.679 329.514 133.369 325.018 131.833 321.527L130.003 322.333C131.459 325.643 132.733 329.986 133.813 335.386L135.775 334.994ZM131.081 322.917L155.765 318.837L155.439 316.864L130.755 320.944L131.081 322.917ZM154.708 318.297C155.488 319.858 156.285 321.974 157.092 324.666L159.008 324.091C158.183 321.342 157.348 319.106 156.496 317.403L154.708 318.297ZM157.092 324.666C157.893 327.335 158.564 330.351 159.103 333.716L161.077 333.4C160.528 329.965 159.839 326.861 159.008 324.091L157.092 324.666ZM159.111 333.762C159.783 336.99 160.323 340.493 160.728 344.273L162.716 344.06C162.305 340.224 161.757 336.655 161.069 333.354L159.111 333.762ZM160.728 344.273C161.132 348.046 161.334 351.818 161.334 355.59L163.334 355.59C163.334 351.746 163.128 347.903 162.716 344.06L160.728 344.273ZM161.334 355.59C161.334 365.15 159.92 373.452 157.12 380.518L158.98 381.255C161.892 373.904 163.334 365.342 163.334 355.59L161.334 355.59ZM157.123 380.512C154.313 387.47 150.51 393.265 145.725 397.917L147.119 399.351C152.126 394.483 156.075 388.446 158.977 381.261L157.123 380.512ZM145.745 397.898C140.821 402.423 135.027 405.822 128.352 408.091L128.996 409.985C135.921 407.631 141.959 404.093 147.099 399.371L145.745 397.898ZM128.369 408.086C121.677 410.227 114.437 411.302 106.642 411.302L106.642 413.302C114.623 413.302 122.07 412.201 128.979 409.991L128.369 408.086ZM94.9614 339.904C92.2879 340.044 89.6832 340.537 87.1497 341.381L87.7822 343.279C90.1447 342.491 92.572 342.032 95.0665 341.901L94.9614 339.904ZM87.1983 341.367C84.6111 342.085 82.3039 343.31 80.2872 345.039L81.5887 346.557C83.38 345.022 85.4248 343.935 87.7336 343.294L87.1983 341.367ZM80.3201 345.012C78.2857 346.61 76.6329 348.704 75.3515 351.267L77.1404 352.161C78.307 349.828 79.7822 347.978 81.5558 346.584L80.3201 345.012ZM75.3622 351.246C74.0398 353.744 73.4099 356.842 73.4099 360.486L75.4099 360.486C75.4099 357.058 76.0041 354.308 77.1297 352.182L75.3622 351.246ZM73.4099 360.486C73.4099 364.005 74.0433 367.089 75.3515 369.705L77.1404 368.811C76.0006 366.531 75.4099 363.768 75.4099 360.486L73.4099 360.486ZM75.3321 369.664C76.4763 372.239 78.0587 374.402 80.0832 376.137L81.3847 374.619C79.6012 373.09 78.1916 371.174 77.1598 368.852L75.3321 369.664ZM80.0832 376.137C82.0858 377.854 84.4357 379.203 87.1202 380.192L87.8117 378.316C85.3282 377.401 83.1901 376.166 81.3847 374.619L80.0832 376.137ZM87.1497 380.203C89.6507 381.037 92.2203 381.661 94.858 382.078L95.1699 380.102C92.6396 379.703 90.1772 379.104 87.7822 378.305L87.1497 380.203ZM96.0139 381.09L96.0139 340.902L94.0139 340.902L94.0139 381.09L96.0139 381.09ZM55.8459 288.069L54.8854 288.347L55.0944 289.069L55.8459 289.069L55.8459 288.069ZM51.766 268.077L52.7549 267.929L52.7537 267.921L52.7523 267.913L51.766 268.077ZM53.3979 219.729L54.3235 220.108L54.3286 220.095L54.3334 220.083L53.3979 219.729ZM63.3939 205.245L64.0245 206.021V206.021L63.3939 205.245ZM78.8979 197.697L79.1405 198.668V198.668L78.8979 197.697ZM159.478 195.453L160.478 195.453L160.478 194.453L159.478 194.453L159.478 195.453ZM159.478 225.849L159.478 226.849L160.478 226.849L160.478 225.849L159.478 225.849ZM81.7539 229.725L82.289 230.57V230.57L81.7539 229.725ZM76.0419 251.145L77.0404 251.09L77.0389 251.062L77.0358 251.035L76.0419 251.145ZM76.6539 257.673L75.664 257.815L75.7866 258.673L76.6539 258.673L76.6539 257.673ZM159.478 257.673L160.478 257.673L160.478 256.673L159.478 256.673L159.478 257.673ZM159.478 288.069L159.478 289.069L160.478 289.069L160.478 288.069L159.478 288.069ZM56.8065 287.791C55.3275 282.682 53.9754 276.066 52.7549 267.929L50.777 268.226C52.0045 276.409 53.3724 283.121 54.8854 288.347L56.8065 287.791ZM52.7523 267.913C51.4021 259.812 50.7259 251.299 50.7259 242.373L48.7259 242.373C48.7259 251.4 49.4098 260.023 50.7796 268.242L52.7523 267.913ZM50.7259 242.373C50.7259 233.342 51.9404 225.933 54.3235 220.108L52.4724 219.351C49.9595 225.493 48.7259 233.181 48.7259 242.373L50.7259 242.373ZM54.3334 220.083C56.5935 214.1 59.8311 209.429 64.0245 206.021L62.7634 204.469C58.2527 208.134 54.8264 213.118 52.4625 219.376L54.3334 220.083ZM64.0245 206.021C68.252 202.587 73.2841 200.132 79.1405 198.668L78.6554 196.727C72.5438 198.255 67.2399 200.832 62.7633 204.469L64.0245 206.021ZM79.1405 198.668C85.0318 197.195 91.6127 196.453 98.8899 196.453L98.8899 194.453C91.4792 194.453 84.7321 195.208 78.6554 196.727L79.1405 198.668ZM98.8899 196.453L159.478 196.453L159.478 194.453L98.8899 194.453L98.8899 196.453ZM158.478 195.453L158.478 225.849L160.478 225.849L160.478 195.453L158.478 195.453ZM159.478 224.849L102.562 224.849L102.562 226.849L159.478 226.849L159.478 224.849ZM102.562 224.849C92.7395 224.849 85.5544 226.135 81.2189 228.881L82.289 230.57C86.1135 228.148 92.8004 226.849 102.562 226.849L102.562 224.849ZM81.2189 228.881C76.7292 231.724 74.6339 236.966 74.6339 244.209L76.6339 244.209C76.6339 237.308 78.6186 232.895 82.289 230.57L81.2189 228.881ZM74.6339 244.209C74.6339 246.427 74.7725 248.776 75.0481 251.256L77.0358 251.035C76.7674 248.619 76.6339 246.344 76.6339 244.209L74.6339 244.209ZM75.0435 251.201C75.1807 253.67 75.387 255.876 75.664 257.815L77.6439 257.532C77.3769 255.663 77.1752 253.517 77.0404 251.09L75.0435 251.201ZM76.6539 258.673L159.478 258.673L159.478 256.673L76.6539 256.673L76.6539 258.673ZM158.478 257.673L158.478 288.069L160.478 288.069L160.478 257.673L158.478 257.673ZM159.478 287.069L55.8459 287.069L55.8459 289.069L159.478 289.069L159.478 287.069ZM25.4499 168.96L24.4627 169.119L24.5981 169.96L25.4499 169.96L25.4499 168.96ZM20.5539 138.564L20.5539 137.564L19.38 137.564L19.5667 138.723L20.5539 138.564ZM52.1739 138.564L52.1739 139.564L53.1739 139.564L53.1739 138.564L52.1739 138.564ZM52.1739 102.048L52.1739 101.048L51.1739 101.048L51.1739 102.048L52.1739 102.048ZM77.4699 102.048L78.4699 102.048L78.4699 101.048L77.4699 101.048L77.4699 102.048ZM77.4699 138.564L76.4699 138.564L76.4699 139.564L77.4699 139.564L77.4699 138.564ZM130.51 135.3L131.006 136.169L131.018 136.162L131.029 136.155L130.51 135.3ZM135.406 111.636L136.393 111.478L136.391 111.463L136.388 111.448L135.406 111.636ZM132.754 102.048L132.576 101.064L131.391 101.279L131.819 102.404L132.754 102.048ZM156.418 97.7645L157.344 97.3871L157.038 96.6359L156.24 96.7804L156.418 97.7645ZM160.294 110.004L159.322 110.24V110.24L160.294 110.004ZM158.662 147.132L159.582 147.524L159.586 147.514L159.59 147.504L158.662 147.132ZM149.278 160.188L149.903 160.969L149.909 160.964L149.916 160.959L149.278 160.188ZM134.59 167.124L134.799 168.102L134.811 168.1L134.822 168.097L134.59 167.124ZM26.4372 168.801L21.5412 138.405L19.5667 138.723L24.4627 169.119L26.4372 168.801ZM20.5539 139.564L52.1739 139.564L52.1739 137.564L20.5539 137.564L20.5539 139.564ZM53.1739 138.564L53.1739 102.048L51.1739 102.048L51.1739 138.564L53.1739 138.564ZM52.1739 103.048L77.4699 103.048L77.4699 101.048L52.1739 101.048L52.1739 103.048ZM76.4699 102.048L76.4699 138.564L78.4699 138.564L78.4699 102.048L76.4699 102.048ZM77.4699 139.564L115.21 139.564L115.21 137.564L77.4699 137.564L77.4699 139.564ZM115.21 139.564C121.702 139.564 126.993 138.462 131.006 136.169L130.014 134.432C126.411 136.491 121.502 137.564 115.21 137.564L115.21 139.564ZM131.029 136.155C135.272 133.579 137.222 128.585 137.222 121.632L135.222 121.632C135.222 128.28 133.364 132.398 129.991 134.446L131.029 136.155ZM137.222 121.632C137.222 118.313 136.945 114.928 136.393 111.478L134.418 111.794C134.955 115.145 135.222 118.424 135.222 121.632L137.222 121.632ZM136.388 111.448C135.699 107.864 134.8 104.611 133.688 101.692L131.819 102.404C132.884 105.198 133.753 108.337 134.424 111.825L136.388 111.448ZM132.932 103.032L156.596 98.7485L156.24 96.7804L132.576 101.064L132.932 103.032ZM155.492 98.1417C156.966 101.761 158.244 105.793 159.322 110.24L161.266 109.769C160.168 105.24 158.862 101.112 157.344 97.3871L155.492 98.1417ZM159.322 110.24C160.385 114.626 160.926 120.05 160.926 126.528L162.926 126.528C162.926 119.951 162.378 114.358 161.266 109.769L159.322 110.24ZM160.926 126.528C160.926 134.746 159.847 141.477 157.733 146.761L159.59 147.504C161.829 141.908 162.926 134.903 162.926 126.528L160.926 126.528ZM157.742 146.741C155.482 152.057 152.443 156.271 148.64 159.418L149.916 160.959C154.001 157.578 157.217 153.088 159.582 147.524L157.742 146.741ZM148.653 159.408C144.702 162.569 139.945 164.822 134.358 166.152L134.822 168.097C140.659 166.707 145.694 164.336 149.903 160.969L148.653 159.408ZM134.38 166.147C128.749 167.353 122.496 167.96 115.618 167.96L115.618 169.96C122.612 169.96 129.007 169.343 134.799 168.102L134.38 166.147ZM115.618 167.96L25.4499 167.96L25.4499 169.96L115.618 169.96L115.618 167.96ZM136.018 34.6599L136.923 34.2341V34.2341L136.018 34.6599ZM123.37 35.6799L124.214 36.2168L124.222 36.2029L124.231 36.1887L123.37 35.6799ZM117.046 49.3479L116.11 48.9945L116.109 48.9997L117.046 49.3479ZM111.538 62.4039L112.432 62.8512L112.438 62.8387L111.538 62.4039ZM104.806 72.1959L105.513 72.903L105.522 72.894L105.531 72.8847L104.806 72.1959ZM95.2179 78.5199L94.8406 77.5938V77.5938L95.2179 78.5199ZM58.0899 69.5439L58.8777 68.928V68.928L58.0899 69.5439ZM51.1539 19.9719L52.1336 20.1723L52.1358 20.1616L52.1378 20.1508L51.1539 19.9719ZM54.8259 5.69189L55.0446 4.71612L54.2024 4.52734L53.8926 5.33294L54.8259 5.69189ZM78.4899 10.9959L79.4349 11.3231L79.8012 10.265L78.7086 10.0201L78.4899 10.9959ZM75.2259 22.6239L76.1998 22.8511L76.2014 22.8442L75.2259 22.6239ZM87.8739 47.7159L88.6633 48.3299L88.6857 48.301L88.706 48.2706L87.8739 47.7159ZM90.7299 42.8199L91.6123 43.2905L91.6305 43.2563L91.6461 43.2208L90.7299 42.8199ZM93.9939 34.6599L94.9303 35.011L94.9326 35.0048L93.9939 34.6599ZM101.338 18.1359L102.21 18.6262L102.215 18.6157L102.221 18.6051L101.338 18.1359ZM109.09 7.93591L109.741 8.69518L109.76 8.67852L109.779 8.66094L109.09 7.93591ZM118.27 2.63189L118.54 3.5949L118.557 3.58996L118.575 3.58434L118.27 2.63189ZM154.174 13.0359L153.346 13.5971L153.351 13.6036L154.174 13.0359ZM159.886 70.5639L160.854 70.8163L160.855 70.8113L159.886 70.5639ZM155.806 83.6199L155.604 84.5992L156.393 84.7623L156.72 84.0261L155.806 83.6199ZM131.122 78.5199L130.192 78.1528L129.755 79.2587L130.92 79.4993L131.122 78.5199ZM136.018 62.6079L136.994 62.8274L136.996 62.8158L136.999 62.804L136.018 62.6079ZM138.65 46.4919C138.65 40.9028 138.113 36.7626 136.923 34.2341L135.113 35.0857C136.099 37.1812 136.65 40.9291 136.65 46.4919L138.65 46.4919ZM136.923 34.2341C136.295 32.8995 135.353 31.8684 134.102 31.1821C132.863 30.5026 131.377 30.1919 129.694 30.1919L129.694 32.1919C131.139 32.1919 132.271 32.4593 133.14 32.9357C133.997 33.4054 134.653 34.1083 135.113 35.0857L136.923 34.2341ZM129.694 30.1919C126.754 30.1919 124.373 32.0162 122.509 35.1712L124.231 36.1887C125.903 33.3597 127.738 32.1919 129.694 32.1919L129.694 30.1919ZM122.526 35.1431C120.567 38.2223 118.43 42.8544 116.11 48.9945L117.981 49.7013C120.286 43.6014 122.365 39.1215 124.214 36.2168L122.526 35.1431ZM116.109 48.9997C114.35 53.7349 112.526 58.0574 110.637 61.9692L112.438 62.8387C114.358 58.8624 116.206 54.481 117.983 49.6961L116.109 48.9997ZM110.644 61.9567C108.778 65.688 106.588 68.8678 104.081 71.5072L105.531 72.8847C108.192 70.084 110.49 66.7359 112.432 62.8511L110.644 61.9567ZM104.099 71.4888C101.476 74.1116 98.3931 76.1465 94.8406 77.5938L95.5952 79.446C99.3868 77.9013 102.696 75.7202 105.513 72.903L104.099 71.4888ZM94.8406 77.5938C91.3188 79.0287 87.0339 79.7639 81.9579 79.7639L81.9579 81.7639C87.2179 81.7639 91.7731 81.0032 95.5952 79.446L94.8406 77.5938ZM81.9579 79.7639C72.1803 79.7639 64.5234 76.1492 58.8777 68.928L57.3021 70.1598C63.3524 77.8986 71.6076 81.7639 81.9579 81.7639L81.9579 79.7639ZM58.8777 68.928C53.2107 61.6794 50.3179 51.6553 50.3179 38.7399L48.3179 38.7399C48.3179 51.9365 51.2732 62.4484 57.3021 70.1598L58.8777 68.928ZM50.3179 38.7399C50.3179 32.2747 50.924 26.0861 52.1336 20.1723L50.1742 19.7715C48.9358 25.8258 48.3179 32.1492 48.3179 38.7399L50.3179 38.7399ZM52.1378 20.1508C53.2205 14.1962 54.431 9.50445 55.7593 6.0509L53.8926 5.33294C52.5009 8.95135 51.2634 13.7797 50.1701 19.793L52.1378 20.1508ZM54.6072 6.66772L78.2712 11.9717L78.7086 10.0201L55.0446 4.71612L54.6072 6.66772ZM77.5449 10.6688C76.3071 14.2447 75.2094 18.1569 74.2505 22.4037L76.2014 22.8442C77.1464 18.6589 78.2247 14.8191 79.4349 11.3231L77.5449 10.6688ZM74.2521 22.3967C73.2792 26.5661 72.7979 31.2684 72.7979 36.4959L74.7979 36.4959C74.7979 31.3874 75.2686 26.8417 76.1998 22.8511L74.2521 22.3967ZM72.7979 36.4959C72.7979 41.316 73.4636 45.0905 74.9134 47.6926C75.6467 49.0088 76.5902 50.0418 77.7598 50.7416C78.9307 51.4421 80.2737 51.7759 81.7539 51.7759L81.7539 49.7759C80.5822 49.7759 79.6046 49.5147 78.7866 49.0253C77.9672 48.535 77.2532 47.783 76.6605 46.7192C75.4582 44.5613 74.7979 41.1959 74.7979 36.4959L72.7979 36.4959ZM81.7539 51.7759C83.0891 51.7759 84.3149 51.5532 85.4119 51.0831L84.624 49.2447C83.817 49.5906 82.8667 49.7759 81.7539 49.7759L81.7539 51.7759ZM85.4119 51.0831C86.5778 50.5834 87.6551 49.6262 88.6633 48.3299L87.0846 47.102C86.1888 48.2537 85.3621 48.9285 84.624 49.2447L85.4119 51.0831ZM88.706 48.2706C89.5473 47.0087 90.5165 45.3451 91.6123 43.2905L89.8476 42.3494C88.7674 44.3747 87.8326 45.9752 87.0419 47.1612L88.706 48.2706ZM91.6461 43.2208C92.6077 41.0228 93.7026 38.2848 94.9303 35.011L93.0576 34.3088C91.8373 37.563 90.7562 40.2651 89.8138 42.4191L91.6461 43.2208ZM94.9326 35.0048C97.3692 28.3718 99.7961 22.9167 102.21 18.6262L100.466 17.6457C97.9838 22.0591 95.5147 27.62 93.0553 34.3151L94.9326 35.0048ZM102.221 18.6051C104.492 14.331 107.004 11.0409 109.741 8.69518L108.439 7.17663C105.464 9.72692 102.808 13.2369 100.455 17.6667L102.221 18.6051ZM109.779 8.66094C112.388 6.182 115.306 4.50018 118.54 3.5949L118 1.66894C114.433 2.66766 111.232 4.52184 108.401 7.21093L109.779 8.66094ZM118.575 3.58434C121.855 2.53478 125.692 1.99993 130.102 1.99993L130.102 -6.88431e-05C125.536 -6.86435e-05 121.485 0.553093 117.965 1.6795L118.575 3.58434ZM130.102 1.99993C140.415 1.99993 148.112 5.87664 153.346 13.5971L155.002 12.4748C149.356 4.14715 141.005 -6.93196e-05 130.102 -6.88431e-05L130.102 1.99993ZM153.351 13.6036C158.63 21.2587 161.334 32.2482 161.334 46.6959L163.334 46.6959C163.334 32.0397 160.598 20.5891 154.997 12.4682L153.351 13.6036ZM161.334 46.6959C161.334 56.1659 160.521 64.0323 158.917 70.3165L160.855 70.8113C162.514 64.3115 163.334 56.266 163.334 46.6959L161.334 46.6959ZM158.918 70.3115C157.286 76.5677 155.943 80.8483 154.892 83.2138L156.72 84.0261C157.844 81.4956 159.222 77.0721 160.854 70.8163L158.918 70.3115ZM156.008 82.6406L131.324 77.5406L130.92 79.4993L155.604 84.5992L156.008 82.6406ZM132.052 78.8871C134.111 73.671 135.758 68.3176 136.994 62.8274L135.042 62.3884C133.83 67.7783 132.213 73.0329 130.192 78.1528L132.052 78.8871ZM136.999 62.804C138.099 57.3024 138.65 51.8647 138.65 46.4919L136.65 46.4919C136.65 51.7271 136.113 57.0334 135.037 62.4118L136.999 62.804Z" fill="white" mask="url(#path-1-outside-1_1_718)"/>
</g>
</svg>
