<svg width="176" height="176" viewBox="0 0 176 176" fill="none" xmlns="http://www.w3.org/2000/svg">
<path opacity="0.5" fill-rule="evenodd" clip-rule="evenodd" d="M172 8C169.791 8 168 6.20914 168 4C168 1.79086 169.791 -2.7141e-07 172 -1.74846e-07C174.209 -7.8281e-08 176 1.79086 176 4C176 6.20914 174.209 8 172 8ZM172 32C169.791 32 168 30.2091 168 28C168 25.7909 169.791 24 172 24C174.209 24 176 25.7909 176 28C176 30.2091 174.209 32 172 32ZM168 52C168 54.2091 169.791 56 172 56C174.209 56 176 54.2091 176 52C176 49.7909 174.209 48 172 48C169.791 48 168 49.7909 168 52ZM172 80C169.791 80 168 78.2091 168 76C168 73.7909 169.791 72 172 72C174.209 72 176 73.7909 176 76C176 78.2091 174.209 80 172 80ZM168 100C168 102.209 169.791 104 172 104C174.209 104 176 102.209 176 100C176 97.7909 174.209 96 172 96C169.791 96 168 97.7909 168 100ZM172 128C169.791 128 168 126.209 168 124C168 121.791 169.791 120 172 120C174.209 120 176 121.791 176 124C176 126.209 174.209 128 172 128ZM168 148C168 150.209 169.791 152 172 152C174.209 152 176 150.209 176 148C176 145.791 174.209 144 172 144C169.791 144 168 145.791 168 148ZM172 176C169.791 176 168 174.209 168 172C168 169.791 169.791 168 172 168C174.209 168 176 169.791 176 172C176 174.209 174.209 176 172 176ZM144 4C144 6.20914 145.791 8 148 8C150.209 8 152 6.20914 152 4C152 1.79086 150.209 -1.12735e-06 148 -1.22392e-06C145.791 -1.32048e-06 144 1.79086 144 4ZM148 32C145.791 32 144 30.2091 144 28C144 25.7909 145.791 24 148 24C150.209 24 152 25.7909 152 28C152 30.2091 150.209 32 148 32ZM144 52C144 54.2091 145.791 56 148 56C150.209 56 152 54.2091 152 52C152 49.7909 150.209 48 148 48C145.791 48 144 49.7909 144 52ZM148 80C145.791 80 144 78.2091 144 76C144 73.7909 145.791 72 148 72C150.209 72 152 73.7909 152 76C152 78.2091 150.209 80 148 80ZM144 100C144 102.209 145.791 104 148 104C150.209 104 152 102.209 152 100C152 97.7909 150.209 96 148 96C145.791 96 144 97.7909 144 100ZM148 128C145.791 128 144 126.209 144 124C144 121.791 145.791 120 148 120C150.209 120 152 121.791 152 124C152 126.209 150.209 128 148 128ZM144 148C144 150.209 145.791 152 148 152C150.209 152 152 150.209 152 148C152 145.791 150.209 144 148 144C145.791 144 144 145.791 144 148ZM148 176C145.791 176 144 174.209 144 172C144 169.791 145.791 168 148 168C150.209 168 152 169.791 152 172C152 174.209 150.209 176 148 176ZM120 4C120 6.20914 121.791 8 124 8C126.209 8 128 6.20914 128 4C128 1.79086 126.209 -2.17643e-06 124 -2.27299e-06C121.791 -2.36956e-06 120 1.79086 120 4ZM124 32C121.791 32 120 30.2091 120 28C120 25.7909 121.791 24 124 24C126.209 24 128 25.7909 128 28C128 30.2091 126.209 32 124 32ZM120 52C120 54.2091 121.791 56 124 56C126.209 56 128 54.2091 128 52C128 49.7909 126.209 48 124 48C121.791 48 120 49.7909 120 52ZM124 80C121.791 80 120 78.2091 120 76C120 73.7909 121.791 72 124 72C126.209 72 128 73.7909 128 76C128 78.2091 126.209 80 124 80ZM120 100C120 102.209 121.791 104 124 104C126.209 104 128 102.209 128 100C128 97.7909 126.209 96 124 96C121.791 96 120 97.7909 120 100ZM124 128C121.791 128 120 126.209 120 124C120 121.791 121.791 120 124 120C126.209 120 128 121.791 128 124C128 126.209 126.209 128 124 128ZM120 148C120 150.209 121.791 152 124 152C126.209 152 128 150.209 128 148C128 145.791 126.209 144 124 144C121.791 144 120 145.791 120 148ZM124 176C121.791 176 120 174.209 120 172C120 169.791 121.791 168 124 168C126.209 168 128 169.791 128 172C128 174.209 126.209 176 124 176ZM96 4C96 6.20914 97.7909 8 100 8C102.209 8 104 6.20914 104 4C104 1.79086 102.209 -3.2255e-06 100 -3.32207e-06C97.7909 -3.41863e-06 96 1.79086 96 4ZM100 32C97.7909 32 96 30.2091 96 28C96 25.7909 97.7909 24 100 24C102.209 24 104 25.7909 104 28C104 30.2091 102.209 32 100 32ZM96 52C96 54.2091 97.7909 56 100 56C102.209 56 104 54.2091 104 52C104 49.7909 102.209 48 100 48C97.7909 48 96 49.7909 96 52ZM100 80C97.7909 80 96 78.2091 96 76C96 73.7909 97.7909 72 100 72C102.209 72 104 73.7909 104 76C104 78.2091 102.209 80 100 80ZM96 100C96 102.209 97.7909 104 100 104C102.209 104 104 102.209 104 100C104 97.7909 102.209 96 100 96C97.7909 96 96 97.7909 96 100ZM100 128C97.7909 128 96 126.209 96 124C96 121.791 97.7909 120 100 120C102.209 120 104 121.791 104 124C104 126.209 102.209 128 100 128ZM96 148C96 150.209 97.7909 152 100 152C102.209 152 104 150.209 104 148C104 145.791 102.209 144 100 144C97.7909 144 96 145.791 96 148ZM100 176C97.7909 176 96 174.209 96 172C96 169.791 97.7909 168 100 168C102.209 168 104 169.791 104 172C104 174.209 102.209 176 100 176ZM72 4C72 6.20913 73.7909 8 76 8C78.2091 8 80 6.20913 80 4C80 1.79086 78.2091 -4.27457e-06 76 -4.37114e-06C73.7909 -4.4677e-06 72 1.79086 72 4ZM76 32C73.7909 32 72 30.2091 72 28C72 25.7909 73.7909 24 76 24C78.2091 24 80 25.7909 80 28C80 30.2091 78.2091 32 76 32ZM72 52C72 54.2091 73.7909 56 76 56C78.2091 56 80 54.2091 80 52C80 49.7909 78.2091 48 76 48C73.7909 48 72 49.7909 72 52ZM76 80C73.7909 80 72 78.2091 72 76C72 73.7909 73.7909 72 76 72C78.2091 72 80 73.7909 80 76C80 78.2091 78.2091 80 76 80ZM72 100C72 102.209 73.7909 104 76 104C78.2091 104 80 102.209 80 100C80 97.7909 78.2091 96 76 96C73.7909 96 72 97.7909 72 100ZM76 128C73.7909 128 72 126.209 72 124C72 121.791 73.7909 120 76 120C78.2091 120 80 121.791 80 124C80 126.209 78.2091 128 76 128ZM72 148C72 150.209 73.7909 152 76 152C78.2091 152 80 150.209 80 148C80 145.791 78.2091 144 76 144C73.7909 144 72 145.791 72 148ZM76 176C73.7909 176 72 174.209 72 172C72 169.791 73.7909 168 76 168C78.2091 168 80 169.791 80 172C80 174.209 78.2091 176 76 176ZM48 3.99999C48 6.20913 49.7909 7.99999 52 7.99999C54.2091 7.99999 56 6.20913 56 3.99999C56 1.79086 54.2091 -5.32365e-06 52 -5.42021e-06C49.7909 -5.51678e-06 48 1.79086 48 3.99999ZM52 32C49.7909 32 48 30.2091 48 28C48 25.7909 49.7909 24 52 24C54.2091 24 56 25.7909 56 28C56 30.2091 54.2091 32 52 32ZM48 52C48 54.2091 49.7909 56 52 56C54.2091 56 56 54.2091 56 52C56 49.7909 54.2091 48 52 48C49.7909 48 48 49.7909 48 52ZM52 80C49.7909 80 48 78.2091 48 76C48 73.7909 49.7909 72 52 72C54.2091 72 56 73.7909 56 76C56 78.2091 54.2091 80 52 80ZM48 100C48 102.209 49.7909 104 52 104C54.2091 104 56 102.209 56 100C56 97.7909 54.2091 96 52 96C49.7909 96 48 97.7909 48 100ZM52 128C49.7909 128 48 126.209 48 124C48 121.791 49.7909 120 52 120C54.2091 120 56 121.791 56 124C56 126.209 54.2091 128 52 128ZM48 148C48 150.209 49.7909 152 52 152C54.2091 152 56 150.209 56 148C56 145.791 54.2091 144 52 144C49.7909 144 48 145.791 48 148ZM52 176C49.7909 176 48 174.209 48 172C48 169.791 49.7909 168 52 168C54.2091 168 56 169.791 56 172C56 174.209 54.2091 176 52 176ZM24 3.99999C24 6.20913 25.7909 7.99999 28 7.99999C30.2091 7.99999 32 6.20913 32 3.99999C32 1.79085 30.2091 -6.37272e-06 28 -6.46929e-06C25.7909 -6.56585e-06 24 1.79085 24 3.99999ZM28 32C25.7909 32 24 30.2091 24 28C24 25.7909 25.7909 24 28 24C30.2091 24 32 25.7909 32 28C32 30.2091 30.2091 32 28 32ZM24 52C24 54.2091 25.7909 56 28 56C30.2091 56 32 54.2091 32 52C32 49.7909 30.2091 48 28 48C25.7909 48 24 49.7909 24 52ZM28 80C25.7909 80 24 78.2091 24 76C24 73.7909 25.7909 72 28 72C30.2091 72 32 73.7909 32 76C32 78.2091 30.2091 80 28 80ZM24 100C24 102.209 25.7909 104 28 104C30.2091 104 32 102.209 32 100C32 97.7909 30.2091 96 28 96C25.7909 96 24 97.7909 24 100ZM28 128C25.7909 128 24 126.209 24 124C24 121.791 25.7909 120 28 120C30.2091 120 32 121.791 32 124C32 126.209 30.2091 128 28 128ZM24 148C24 150.209 25.7909 152 28 152C30.2091 152 32 150.209 32 148C32 145.791 30.2091 144 28 144C25.7909 144 24 145.791 24 148ZM28 176C25.7909 176 24 174.209 24 172C24 169.791 25.7909 168 28 168C30.2091 168 32 169.791 32 172C32 174.209 30.2091 176 28 176ZM-1.74846e-07 3.99999C-2.7141e-07 6.20913 1.79086 7.99999 4 7.99999C6.20914 7.99999 8 6.20913 8 3.99999C8 1.79085 6.20914 -7.42179e-06 4 -7.51836e-06C1.79086 -7.61492e-06 -7.8281e-08 1.79085 -1.74846e-07 3.99999ZM4 32C1.79086 32 -1.32048e-06 30.2091 -1.22392e-06 28C-1.12735e-06 25.7909 1.79086 24 4 24C6.20914 24 8 25.7909 8 28C8 30.2091 6.20914 32 4 32ZM-2.27299e-06 52C-2.36956e-06 54.2091 1.79086 56 4 56C6.20913 56 8 54.2091 8 52C8 49.7909 6.20913 48 4 48C1.79086 48 -2.17643e-06 49.7909 -2.27299e-06 52ZM4 80C1.79086 80 -3.41863e-06 78.2091 -3.32207e-06 76C-3.2255e-06 73.7909 1.79086 72 4 72C6.20913 72 8 73.7909 8 76C8 78.2091 6.20913 80 4 80ZM-4.37114e-06 100C-4.4677e-06 102.209 1.79086 104 4 104C6.20913 104 8 102.209 8 100C8 97.7909 6.20913 96 4 96C1.79086 96 -4.27457e-06 97.7909 -4.37114e-06 100ZM3.99999 128C1.79086 128 -5.51678e-06 126.209 -5.42021e-06 124C-5.32365e-06 121.791 1.79086 120 3.99999 120C6.20913 120 7.99999 121.791 7.99999 124C7.99999 126.209 6.20913 128 3.99999 128ZM-6.46929e-06 148C-6.56585e-06 150.209 1.79086 152 3.99999 152C6.20913 152 7.99999 150.209 7.99999 148C7.99999 145.791 6.20913 144 3.99999 144C1.79086 144 -6.37272e-06 145.791 -6.46929e-06 148ZM3.99999 176C1.79086 176 -7.61492e-06 174.209 -7.51836e-06 172C-7.42179e-06 169.791 1.79086 168 3.99999 168C6.20913 168 7.99999 169.791 7.99999 172C7.99999 174.209 6.20913 176 3.99999 176Z" fill="url(#paint0_linear_1_903)"/>
<defs>
<linearGradient id="paint0_linear_1_903" x1="2.86847e-07" y1="-7.98005e-06" x2="176" y2="176" gradientUnits="userSpaceOnUse">
<stop stop-color="#E5E5E5"/>
<stop offset="1" stop-color="#E5E5E5" stop-opacity="0"/>
</linearGradient>
</defs>
</svg>
