<svg width="176" height="176" viewBox="0 0 176 176" fill="none" xmlns="http://www.w3.org/2000/svg">
<path opacity="0.5" d="M124 168C126.209 168 128 169.791 128 172C128 174.209 126.209 176 124 176C121.791 176 120 174.209 120 172C120 169.791 121.791 168 124 168ZM148 168C150.209 168 152 169.791 152 172C152 174.209 150.209 176 148 176C145.791 176 144 174.209 144 172C144 169.791 145.791 168 148 168ZM172 168C174.209 168 176 169.791 176 172C176 174.209 174.209 176 172 176C169.791 176 168 174.209 168 172C168 169.791 169.791 168 172 168ZM124 144C126.209 144 128 145.791 128 148C128 150.209 126.209 152 124 152C121.791 152 120 150.209 120 148C120 145.791 121.791 144 124 144ZM148 144C150.209 144 152 145.791 152 148C152 150.209 150.209 152 148 152C145.791 152 144 150.209 144 148C144 145.791 145.791 144 148 144ZM172 144C174.209 144 176 145.791 176 148C176 150.209 174.209 152 172 152C169.791 152 168 150.209 168 148C168 145.791 169.791 144 172 144ZM124 120C126.209 120 128 121.791 128 124C128 126.209 126.209 128 124 128C121.791 128 120 126.209 120 124C120 121.791 121.791 120 124 120ZM148 120C150.209 120 152 121.791 152 124C152 126.209 150.209 128 148 128C145.791 128 144 126.209 144 124C144 121.791 145.791 120 148 120ZM172 120C174.209 120 176 121.791 176 124C176 126.209 174.209 128 172 128C169.791 128 168 126.209 168 124C168 121.791 169.791 120 172 120ZM124 96C126.209 96 128 97.7909 128 100C128 102.209 126.209 104 124 104C121.791 104 120 102.209 120 100C120 97.7909 121.791 96 124 96ZM148 96C150.209 96 152 97.7909 152 100C152 102.209 150.209 104 148 104C145.791 104 144 102.209 144 100C144 97.7909 145.791 96 148 96ZM172 96C174.209 96 176 97.7909 176 100C176 102.209 174.209 104 172 104C169.791 104 168 102.209 168 100C168 97.7909 169.791 96 172 96ZM124 72C126.209 72 128 73.7909 128 76C128 78.2091 126.209 80 124 80C121.791 80 120 78.2091 120 76C120 73.7909 121.791 72 124 72ZM148 72C150.209 72 152 73.7909 152 76C152 78.2091 150.209 80 148 80C145.791 80 144 78.2091 144 76C144 73.7909 145.791 72 148 72ZM172 72C174.209 72 176 73.7909 176 76C176 78.2091 174.209 80 172 80C169.791 80 168 78.2091 168 76C168 73.7909 169.791 72 172 72ZM4 48C6.20914 48 8 49.7909 8 52C8 54.2091 6.20914 56 4 56C1.79086 56 0 54.2091 0 52C0 49.7909 1.79086 48 4 48ZM28 48C30.2091 48 32 49.7909 32 52C32 54.2091 30.2091 56 28 56C25.7909 56 24 54.2091 24 52C24 49.7909 25.7909 48 28 48ZM52 48C54.2091 48 56 49.7909 56 52C56 54.2091 54.2091 56 52 56C49.7909 56 48 54.2091 48 52C48 49.7909 49.7909 48 52 48ZM76 48C78.2091 48 80 49.7909 80 52C80 54.2091 78.2091 56 76 56C73.7909 56 72 54.2091 72 52C72 49.7909 73.7909 48 76 48ZM100 48C102.209 48 104 49.7909 104 52C104 54.2091 102.209 56 100 56C97.7909 56 96 54.2091 96 52C96 49.7909 97.7909 48 100 48ZM124 48C126.209 48 128 49.7909 128 52C128 54.2091 126.209 56 124 56C121.791 56 120 54.2091 120 52C120 49.7909 121.791 48 124 48ZM148 48C150.209 48 152 49.7909 152 52C152 54.2091 150.209 56 148 56C145.791 56 144 54.2091 144 52C144 49.7909 145.791 48 148 48ZM172 48C174.209 48 176 49.7909 176 52C176 54.2091 174.209 56 172 56C169.791 56 168 54.2091 168 52C168 49.7909 169.791 48 172 48ZM4 24C6.20914 24 8 25.7909 8 28C8 30.2091 6.20914 32 4 32C1.79086 32 0 30.2091 0 28C0 25.7909 1.79086 24 4 24ZM28 24C30.2091 24 32 25.7909 32 28C32 30.2091 30.2091 32 28 32C25.7909 32 24 30.2091 24 28C24 25.7909 25.7909 24 28 24ZM52 24C54.2091 24 56 25.7909 56 28C56 30.2091 54.2091 32 52 32C49.7909 32 48 30.2091 48 28C48 25.7909 49.7909 24 52 24ZM76 24C78.2091 24 80 25.7909 80 28C80 30.2091 78.2091 32 76 32C73.7909 32 72 30.2091 72 28C72 25.7909 73.7909 24 76 24ZM100 24C102.209 24 104 25.7909 104 28C104 30.2091 102.209 32 100 32C97.7909 32 96 30.2091 96 28C96 25.7909 97.7909 24 100 24ZM124 24C126.209 24 128 25.7909 128 28C128 30.2091 126.209 32 124 32C121.791 32 120 30.2091 120 28C120 25.7909 121.791 24 124 24ZM148 24C150.209 24 152 25.7909 152 28C152 30.2091 150.209 32 148 32C145.791 32 144 30.2091 144 28C144 25.7909 145.791 24 148 24ZM172 24C174.209 24 176 25.7909 176 28C176 30.2091 174.209 32 172 32C169.791 32 168 30.2091 168 28C168 25.7909 169.791 24 172 24ZM4 0C6.20914 0 8 1.79086 8 4C8 6.20914 6.20914 8 4 8C1.79086 8 0 6.20914 0 4C0 1.79086 1.79086 0 4 0ZM28 0C30.2091 0 32 1.79086 32 4C32 6.20914 30.2091 8 28 8C25.7909 8 24 6.20914 24 4C24 1.79086 25.7909 0 28 0ZM52 0C54.2091 0 56 1.79086 56 4C56 6.20914 54.2091 8 52 8C49.7909 8 48 6.20914 48 4C48 1.79086 49.7909 0 52 0ZM76 0C78.2091 0 80 1.79086 80 4C80 6.20914 78.2091 8 76 8C73.7909 8 72 6.20914 72 4C72 1.79086 73.7909 0 76 0ZM100 0C102.209 0 104 1.79086 104 4C104 6.20914 102.209 8 100 8C97.7909 8 96 6.20914 96 4C96 1.79086 97.7909 0 100 0ZM124 0C126.209 0 128 1.79086 128 4C128 6.20914 126.209 8 124 8C121.791 8 120 6.20914 120 4C120 1.79086 121.791 0 124 0ZM148 0C150.209 0 152 1.79086 152 4C152 6.20914 150.209 8 148 8C145.791 8 144 6.20914 144 4C144 1.79086 145.791 0 148 0ZM172 0C174.209 0 176 1.79086 176 4C176 6.20914 174.209 8 172 8C169.791 8 168 6.20914 168 4C168 1.79086 169.791 0 172 0Z" fill="url(#paint0_linear_1290_15)"/>
<defs>
<linearGradient id="paint0_linear_1290_15" x1="-2.86847e-07" y1="176" x2="176" y2="-2.86847e-07" gradientUnits="userSpaceOnUse">
<stop stop-color="#E5E5E5"/>
<stop offset="1" stop-color="#E5E5E5" stop-opacity="0"/>
</linearGradient>
</defs>
</svg>
