<svg width="40" height="40" viewBox="0 0 40 40" fill="none" xmlns="http://www.w3.org/2000/svg">
<circle cx="20" cy="20" r="20" fill="#F23849"/>
<path fill-rule="evenodd" clip-rule="evenodd" d="M19.5858 13C23.5495 13.0028 27.1087 15.7029 29.1077 20.2238C29.1863 20.3999 29.1863 20.5992 29.1077 20.7752C27.1096 25.2971 23.5495 27.9972 19.5858 28H19.5801C15.6165 27.9972 12.0573 25.2971 10.0582 20.7752C9.98059 20.5992 9.98059 20.3999 10.0582 20.2238C12.0573 15.7029 15.6174 13.0028 19.5801 13H19.5858ZM19.583 14.3971C16.2902 14.398 13.2868 16.6734 11.5043 20.4995C13.2868 24.3266 16.2892 26.602 19.583 26.6029C22.8767 26.602 25.8791 24.3266 27.6616 20.4995C25.8791 16.6734 22.8767 14.398 19.583 14.3971ZM19.5827 16.8567C21.6498 16.8567 23.3316 18.4913 23.3316 20.5003C23.3316 22.5084 21.6498 24.142 19.5827 24.142C17.5156 24.142 15.8347 22.5084 15.8347 20.5003C15.8347 18.4913 17.5156 16.8567 19.5827 16.8567ZM19.5827 18.2538C18.3081 18.2538 17.2722 19.2615 17.2722 20.5003C17.2722 21.7381 18.3081 22.7449 19.5827 22.7449C20.8573 22.7449 21.8942 21.7381 21.8942 20.5003C21.8942 19.2615 20.8573 18.2538 19.5827 18.2538Z" fill="white"/>
</svg>
