<svg width="60" height="60" viewBox="0 0 60 60" fill="none" xmlns="http://www.w3.org/2000/svg">
<path d="M50.282 52.2221C49.6518 52.0731 49.0211 52.4644 48.873 53.0945L47.5881 58.5593C47.4398 59.1893 47.8305 59.8203 48.4605 59.9683C48.5507 59.9896 48.641 59.9997 48.7298 59.9997C49.2613 59.9997 49.7427 59.6357 49.8696 59.0958L51.1545 53.631C51.3027 53.001 50.912 52.3701 50.282 52.2221Z" fill="#DA48F2"/>
<path d="M45.5216 11.6321C45.5216 8.61377 46.372 5.6684 47.9809 3.11432L48.811 1.79668C49.1559 1.24907 48.9917 0.525557 48.4441 0.18056C47.8964 -0.164554 47.173 -0.000141709 46.828 0.547471L45.9978 1.86512C44.153 4.79372 43.1779 8.17116 43.1779 11.6321C43.1779 15.3284 44.1531 18.9285 46.0058 22.1081H13.9923C15.8452 18.9285 16.8203 15.3283 16.8203 11.6321C16.8203 8.17116 15.8452 4.79384 14.0003 1.86512L13.1701 0.547471C12.8251 -0.000141709 12.1017 -0.164554 11.554 0.18056C11.0064 0.525557 10.8421 1.24907 11.1871 1.79668L12.0173 3.11432C13.6261 5.6684 14.4765 8.61377 14.4765 11.6321C14.4765 15.2181 13.4429 18.7021 11.4875 21.708C8.10194 26.9121 6.3125 32.9445 6.3125 39.1529C6.3125 41.6149 6.5982 44.0784 7.16175 46.4752L10.1293 59.096C10.2562 59.6357 10.7373 59.9998 11.269 59.9998C11.3578 59.9998 11.4481 59.9896 11.5383 59.9684C12.1683 59.8203 12.559 59.1895 12.4108 58.5595L9.44326 45.9389C8.92107 43.7177 8.65623 41.4346 8.65623 39.153C8.65623 37.4827 8.79697 35.8262 9.07213 34.1982L26.2342 44.9456V58.8278C26.2342 59.4749 26.759 59.9997 27.4061 59.9997C28.0532 59.9997 28.5779 59.4749 28.5779 58.8278V45.4686H31.4202V58.8278C31.4202 59.4749 31.9449 59.9997 32.592 59.9997C33.2391 59.9997 33.7639 59.4749 33.7639 58.8278V44.9456L50.926 34.1982C51.2011 35.8262 51.3419 37.4827 51.3419 39.153C51.3419 40.4055 51.2613 41.6702 51.1026 42.9122C51.0204 43.5542 51.4743 44.1411 52.1163 44.2232C52.1668 44.2298 52.2168 44.2328 52.2664 44.2328C52.8474 44.2328 53.3516 43.801 53.4272 43.2096C53.5987 41.8693 53.6855 40.5047 53.6855 39.1532C53.6855 32.9447 51.8959 26.9123 48.5105 21.7082C46.5552 18.7021 45.5216 15.2179 45.5216 11.6321ZM32.2554 43.1248H27.7429L9.59068 31.7574C10.2462 29.2104 11.2418 26.7553 12.5583 24.452H47.4399C48.7565 26.7554 49.752 29.2104 50.4076 31.7574L32.2554 43.1248Z" fill="#DA48F2"/>
<path d="M58.8281 9.90281H52.3409L52.9571 9.28664C53.4147 8.82902 53.4147 8.08699 52.9571 7.62926C52.4994 7.17176 51.7576 7.17176 51.2997 7.62926L48.6831 10.2459C48.2254 10.7036 48.2254 11.4456 48.6831 11.9033L51.2997 14.52C51.5286 14.7487 51.8285 14.8632 52.1284 14.8632C52.4282 14.8632 52.7281 14.7487 52.957 14.52C53.4146 14.0624 53.4146 13.3203 52.957 12.8626L52.3408 12.2464H58.828C59.4751 12.2464 59.9998 11.7217 59.9998 11.0746C59.9998 10.4275 59.4752 9.90281 58.8281 9.90281Z" fill="#DA48F2"/>
<path d="M7.04296 12.8627C6.58535 13.3203 6.58535 14.0624 7.04296 14.5201C7.27183 14.7489 7.57171 14.8634 7.8716 14.8634C8.17148 14.8634 8.47136 14.7489 8.70023 14.5201L11.3169 11.9034C11.7745 11.4458 11.7745 10.7038 11.3169 10.2461L8.70023 7.62926C8.2425 7.17176 7.5007 7.17176 7.04285 7.62926C6.58523 8.08687 6.58523 8.82891 7.04285 9.28664L7.65902 9.90281H1.17187C0.524765 9.90281 0 10.4276 0 11.0747C0 11.7218 0.524765 12.2466 1.17187 12.2466H7.65902L7.04296 12.8627Z" fill="#DA48F2"/>
<path d="M30 17.1094C30.3082 17.1094 30.6105 16.984 30.8284 16.7659C31.0464 16.548 31.1719 16.2457 31.1719 15.9375C31.1719 15.6293 31.0465 15.327 30.8284 15.109C30.6105 14.891 30.3082 14.7656 30 14.7656C29.6918 14.7656 29.3895 14.8909 29.1715 15.109C28.9535 15.327 28.8281 15.6293 28.8281 15.9375C28.8281 16.2457 28.9534 16.548 29.1715 16.7659C29.3895 16.984 29.6918 17.1094 30 17.1094Z" fill="#DA48F2"/>
<path d="M51.2207 47.0586C50.9113 47.0586 50.6102 47.1829 50.3922 47.4021C50.173 47.6199 50.0488 47.9223 50.0488 48.2305C50.0488 48.5388 50.173 48.8398 50.3922 49.059C50.6102 49.2769 50.9114 49.4023 51.2207 49.4023C51.5289 49.4023 51.8312 49.2771 52.048 49.059C52.2672 48.8398 52.3915 48.5388 52.3915 48.2305C52.3915 47.9223 52.2672 47.6199 52.048 47.4021C51.8312 47.1829 51.5289 47.0586 51.2207 47.0586Z" fill="#DA48F2"/>
</svg>
