<svg width="20" height="20" viewBox="0 0 20 20" fill="none" xmlns="http://www.w3.org/2000/svg">
<path fill-rule="evenodd" clip-rule="evenodd" d="M9.99999 16.6665C13.6819 16.6665 16.6667 13.6818 16.6667 9.99984C16.6667 6.31794 13.6819 3.33317 9.99999 3.33317C6.31809 3.33317 3.33332 6.31794 3.33332 9.99984C3.33332 13.6818 6.31809 16.6665 9.99999 16.6665ZM9.99999 18.3332C14.6023 18.3332 18.3333 14.6022 18.3333 9.99984C18.3333 5.39746 14.6023 1.6665 9.99999 1.6665C5.39761 1.6665 1.66666 5.39746 1.66666 9.99984C1.66666 14.6022 5.39761 18.3332 9.99999 18.3332Z" fill="#777E91"/>
<path d="M9.99999 8.3335C9.99999 7.87326 10.3731 7.50016 10.8333 7.50016H11.6667C12.1269 7.50016 12.5 7.12707 12.5 6.66683C12.5 6.2066 12.1269 5.8335 11.6667 5.8335H10.8333C9.45257 5.8335 8.33332 6.95279 8.33332 8.3335V10.0002H7.49999C7.03976 10.0002 6.66666 10.3732 6.66666 10.8335C6.66666 11.2937 7.03975 11.6668 7.49999 11.6668H8.33332V16.6668C8.33332 17.1271 8.70641 17.5002 9.16666 17.5002C9.62691 17.5002 9.99999 17.1271 9.99999 16.6668V11.6668H11.6667C12.1269 11.6668 12.5 11.2937 12.5 10.8335C12.5 10.3732 12.1269 10.0002 11.6667 10.0002H9.99999V8.3335Z" fill="#777E91"/>
</svg>
