<svg viewBox="0 0 20 25" fill="none" xmlns="http://www.w3.org/2000/svg" xmlns:xlink="http://www.w3.org/1999/xlink" x="0" y="0"><g id="Group_21">
<path id="Vector_133" d="M20,10.23c0,7.95 -10,14.77 -10,14.77c0,0 -10,-6.82 -10,-14.77c0,-2.72 1.054,-5.32 2.929,-7.23c1.875,-1.92 4.419,-3 7.071,-3c2.652,0 5.196,1.08 7.071,3c1.875,1.91 2.929,4.51 2.929,7.23z" stroke="white" stroke-width="2" stroke-linecap="round" stroke-linejoin="round"/>
<path id="Vector_134" d="M9.999,13.64c1.841,0 3.334,-1.53 3.334,-3.41c0,-1.89 -1.493,-3.41 -3.334,-3.41c-1.841,0 -3.333,1.52 -3.333,3.41c0,1.88 1.492,3.41 3.333,3.41z" stroke="white" stroke-width="2" stroke-linecap="round" stroke-linejoin="round"/>
</g></svg>