<svg viewBox="0 0 20 20" fill="none" xmlns="http://www.w3.org/2000/svg" xmlns:xlink="http://www.w3.org/1999/xlink" x="0" y="0"><g id="Icons/Facebook/Line">
<path id="Vector_137" fill-rule="evenodd" clip-rule="evenodd" d="M10,16.67c3.68,0 6.67,-2.99 6.67,-6.67c0,-3.68 -2.99,-6.67 -6.67,-6.67c-3.68,0 -6.67,2.99 -6.67,6.67c0,3.68 2.99,6.67 6.67,6.67zM10,18.33c4.6,0 8.33,-3.73 8.33,-8.33c0,-4.6 -3.73,-8.33 -8.33,-8.33c-4.6,0 -8.33,3.73 -8.33,8.33c0,4.6 3.73,8.33 8.33,8.33z" fill="currentColor"/>
<path id="Vector_138" d="M10,8.33c0,-0.46 0.37,-0.83 0.83,-0.83h0.84c0.46,0 0.83,-0.37 0.83,-0.83c0,-0.46 -0.37,-0.84 -0.83,-0.84h-0.84c-1.38,0 -2.5,1.12 -2.5,2.5v1.67h-0.83c-0.46,0 -0.83,0.37 -0.83,0.83c0,0.46 0.37,0.84 0.83,0.84h0.83v5c0,0.46 0.38,0.83 0.84,0.83c0.46,0 0.83,-0.37 0.83,-0.83v-5h1.67c0.46,0 0.83,-0.38 0.83,-0.84c0,-0.46 -0.37,-0.83 -0.83,-0.83h-1.67z" fill="currentColor"/>
</g></svg>