<svg viewBox="0 0 20 20" fill="none" xmlns="http://www.w3.org/2000/svg" xmlns:xlink="http://www.w3.org/1999/xlink" x="0" y="0"><defs><clipPath id="clip12_1_27">
<rect width="20" height="20" fill="white" transform="translate(0, 0)"/>
</clipPath></defs><g id="Icons/Behance/Line" clip-path="url(#clip12_1_27)">
<path id="Vector_145" d="M14.17,3.33c-0.46,0 -0.84,0.38 -0.84,0.84c0,0.46 0.38,0.83 0.84,0.83h3.33c0.46,0 0.83,-0.37 0.83,-0.83c0,-0.46 -0.37,-0.84 -0.83,-0.84z" fill="currentColor"/>
<path id="Vector_146" fill-rule="evenodd" clip-rule="evenodd" d="M11.67,10.83c0,-2.3 1.86,-4.16 4.16,-4.16c2.3,0 4.17,1.86 4.17,4.16v0.84c0,0.46 -0.37,0.83 -0.83,0.83h-5.84c0,1.38 1.12,2.5 2.5,2.5c0.58,0 1.12,-0.2 1.54,-0.53c0.23,-0.17 0.49,-0.3 0.77,-0.3c0.71,0 1.17,0.73 0.67,1.24c-0.76,0.78 -1.81,1.26 -2.98,1.26c-2.3,0 -4.16,-1.87 -4.16,-4.17zM15.83,8.33c-1.38,0 -2.5,1.12 -2.5,2.5h5c0,-1.38 -1.12,-2.5 -2.5,-2.5z" fill="currentColor"/>
<path id="Vector_147" fill-rule="evenodd" clip-rule="evenodd" d="M1.67,5v3.33h4.16c0.92,0 1.67,-0.74 1.67,-1.66c0,-0.92 -0.75,-1.67 -1.67,-1.67zM8.17,9.05c0.61,-0.61 1,-1.45 1,-2.38c0,-1.84 -1.5,-3.34 -3.34,-3.34h-4.5c-0.73,0 -1.33,0.6 -1.33,1.34v10.57c0,0.79 0.64,1.43 1.43,1.43h4.4c2.3,0 4.17,-1.87 4.17,-4.17c0,-1.44 -0.73,-2.7 -1.83,-3.45zM1.67,10v5h4.16c1.38,0 2.5,-1.12 2.5,-2.5c0,-1.38 -1.12,-2.5 -2.5,-2.5z" fill="currentColor"/>
</g></svg>