<svg viewBox="0 0 20 20" fill="none" xmlns="http://www.w3.org/2000/svg" xmlns:xlink="http://www.w3.org/1999/xlink" x="0" y="0"><g id="Icons/Dribbble/Line">
<path id="Vector_143" fill-rule="evenodd" clip-rule="evenodd" d="M10,16.67c3.68,0 6.67,-2.99 6.67,-6.67c0,-3.68 -2.99,-6.67 -6.67,-6.67c-3.68,0 -6.67,2.99 -6.67,6.67c0,3.68 2.99,6.67 6.67,6.67zM10,18.33c4.6,0 8.33,-3.73 8.33,-8.33c0,-4.6 -3.73,-8.33 -8.33,-8.33c-4.6,0 -8.33,3.73 -8.33,8.33c0,4.6 3.73,8.33 8.33,8.33z" fill="currentColor"/>
<path id="Vector_144" d="M12.9,17.82c-0.3,-2.11 -0.79,-4.03 -1.49,-5.83c-1.7,0.82 -3.6,2.26 -6.21,4.82c-0.46,-0.32 -0.88,-0.69 -1.26,-1.09c2.74,-2.71 4.84,-4.32 6.82,-5.27c-0.25,-0.55 -0.53,-1.1 -0.82,-1.64c-2.34,0.74 -5,1.13 -8.27,1.18c0,-0.57 0.06,-1.13 0.17,-1.67c2.88,-0.06 5.21,-0.39 7.23,-0.99c-0.93,-1.5 -2.03,-2.99 -3.3,-4.51c0.5,-0.29 1.02,-0.54 1.57,-0.72c1.28,1.57 2.39,3.11 3.35,4.68c1.8,-0.71 3.39,-1.67 4.98,-2.89c0.41,0.38 0.78,0.8 1.1,1.25c-1.65,1.28 -3.34,2.32 -5.25,3.1c0.29,0.53 0.55,1.06 0.8,1.59c1.88,-0.59 3.74,-0.66 5.97,-0.66c0.03,0.27 0.04,0.55 0.04,0.83c0,0.28 -0.01,0.56 -0.04,0.83c-2.15,0.01 -3.75,0.07 -5.33,0.55c0.68,1.76 1.18,3.62 1.5,5.66c-0.49,0.31 -1.01,0.57 -1.56,0.78z" fill="currentColor"/>
</g></svg>