<svg viewBox="0 0 25 20" fill="none" xmlns="http://www.w3.org/2000/svg" xmlns:xlink="http://www.w3.org/1999/xlink" x="0" y="0"><path id="Vector_136" d="M0,6.08v9.92c0,1.06 0.439,2.08 1.22,2.83c0.782,0.75 1.842,1.17 2.947,1.17h16.666c1.105,0 2.165,-0.42 2.947,-1.17c0.781,-0.75 1.22,-1.77 1.22,-2.83v-12c0,-1.06 -0.439,-2.08 -1.22,-2.83c-0.782,-0.75 -1.842,-1.17 -2.947,-1.17h-16.666c-1.105,0 -2.165,0.42 -2.947,1.17c-0.781,0.75 -1.22,1.77 -1.22,2.83zM4.167,2h16.666c0.553,0 1.083,0.21 1.473,0.59c0.391,0.37 0.611,0.88 0.611,1.41v1.48l-10.417,5.38l-10.417,-5.38v-1.48c0,-0.53 0.22,-1.04 0.611,-1.41c0.39,-0.38 0.92,-0.59 1.473,-0.59zM2.083,7.75l9.923,5.13c0.152,0.08 0.322,0.12 0.494,0.12c0.172,0 0.342,-0.04 0.494,-0.12l9.923,-5.13v8.25c0,0.53 -0.22,1.04 -0.611,1.41c-0.39,0.38 -0.92,0.59 -1.473,0.59h-16.666c-0.553,0 -1.083,-0.21 -1.473,-0.59c-0.391,-0.37 -0.611,-0.88 -0.611,-1.41z" fill="currentColor"/></svg>