<svg viewBox="0 0 18.2034 15" fill="none" xmlns="http://www.w3.org/2000/svg" xmlns:xlink="http://www.w3.org/1999/xlink" x="0" y="0"><path id="Vector_139" fill-rule="evenodd" clip-rule="evenodd" d="M1.7502,9.17c-1.38,0 -2.27,1.57 -1.42,2.76c1.22,1.7 3.42,3.07 7.1,3.07c5.71,0 10.29,-4.65 9.65,-10.14l0.93,-1.88c0.66,-1.3 -0.48,-2.78 -1.9,-2.5l-1.24,0.25c-0.33,-0.17 -0.67,-0.3 -0.96,-0.4c-0.57,-0.18 -1.26,-0.33 -1.89,-0.33c-1.14,0 -2.13,0.29 -2.91,0.88c-0.78,0.58 -1.21,1.34 -1.45,2.04c-0.11,0.33 -0.18,0.65 -0.23,0.96c-0.44,-0.14 -0.9,-0.32 -1.34,-0.55c-1,-0.52 -1.81,-1.18 -2.27,-1.76c-0.77,-0.97 -2.39,-0.9 -2.96,0.36c-0.81,1.78 -0.59,3.88 0.14,5.58c0.24,0.57 0.55,1.13 0.94,1.66c-0.07,0 -0.13,0 -0.19,0zM7.4302,13.33c-3.22,0 -4.88,-1.16 -5.74,-2.37c-0.04,-0.05 0,-0.13 0.07,-0.13c0.87,0 2.67,-0.04 3.85,-0.73c0.07,-0.04 0.05,-0.13 -0.02,-0.15c-2.76,-0.93 -4.33,-4.87 -3.21,-7.33c0.02,-0.05 0.1,-0.06 0.14,-0.01c1.27,1.6 4.06,3.18 6.48,3.22c0.05,0 0.09,-0.04 0.08,-0.1c-0.09,-0.63 -0.47,-4.06 2.94,-4.06c0.81,0 2.02,0.39 2.46,0.8c0.03,0.02 0.05,0.03 0.08,0.02l1.87,-0.37c0.07,-0.02 0.12,0.05 0.09,0.12l-1.16,2.32c-0.01,0.01 -0.01,0.03 -0.01,0.05c0.82,4.57 -2.93,8.72 -7.92,8.72z" fill="currentColor"/></svg>