<svg viewBox="0 0 23.1488 22.6852" fill="none" xmlns="http://www.w3.org/2000/svg" xmlns:xlink="http://www.w3.org/1999/xlink" x="0" y="0"><path id="Vector_135" d="M2.285,8.3042c-0.97,-2.19 0.131,-4.7 2.452,-6.13c0.412,-0.25 0.906,-0.34 1.38,-0.25c0.474,0.09 0.894,0.35 1.173,0.74l1.377,1.89c0.221,0.31 0.344,0.67 0.352,1.05c0.009,0.37 -0.098,0.75 -0.306,1.06l-1.831,2.81c-0.09,0.14 -0.143,0.3 -0.152,0.46c-0.01,0.16 0.024,0.33 0.098,0.47l0.048,0.09l0.121,0.22c0.608,1.07 1.361,2.06 2.239,2.93c0.948,0.92 2.029,1.7 3.208,2.31l0.092,0.05c0.148,0.07 0.313,0.1 0.479,0.09c0.166,0 0.328,-0.06 0.469,-0.14l2.858,-1.8c0.325,-0.2 0.704,-0.31 1.087,-0.3c0.384,0.01 0.755,0.13 1.065,0.35l1.945,1.35c0.809,0.57 1.022,1.66 0.488,2.49c-1.459,2.28 -4.018,3.35 -6.255,2.39c-2.743,-1.18 -5.236,-2.84 -7.354,-4.92c-2.13,-2.06 -3.838,-4.51 -5.035,-7.21zM8.814,10.0042l1.516,-2.33c0.416,-0.64 0.629,-1.38 0.613,-2.13c-0.016,-0.75 -0.262,-1.48 -0.705,-2.09l-1.374,-1.9c-0.562,-0.77 -1.406,-1.31 -2.361,-1.49c-0.954,-0.18 -1.947,0.01 -2.776,0.52c-2.883,1.78 -4.663,5.2 -3.21,8.49c1.015,2.3 2.69,5.12 5.438,7.79c2.284,2.24 4.973,4.04 7.932,5.31c3.355,1.43 6.854,-0.3 8.67,-3.14c1.078,-1.68 0.645,-3.88 -0.988,-5.02l-1.945,-1.36c-0.622,-0.43 -1.364,-0.67 -2.131,-0.69c-0.766,-0.01 -1.523,0.2 -2.172,0.61l-2.374,1.48c-0.848,-0.49 -1.634,-1.08 -2.34,-1.76c-0.692,-0.68 -1.294,-1.46 -1.793,-2.29z" fill="currentColor"/></svg>