<svg viewBox="0 0 20 20" fill="none" xmlns="http://www.w3.org/2000/svg" xmlns:xlink="http://www.w3.org/1999/xlink" x="0" y="0"><g id="Icons/Instagram/Line">
<path id="Vector_140" fill-rule="evenodd" clip-rule="evenodd" d="M13.33,3.33h-6.66c-1.84,0 -3.34,1.5 -3.34,3.34v6.66c0,1.84 1.5,3.34 3.34,3.34h6.66c1.84,0 3.34,-1.5 3.34,-3.34v-6.66c0,-1.84 -1.5,-3.34 -3.34,-3.34zM6.67,1.67c-2.76,0 -5,2.24 -5,5v6.66c0,2.76 2.24,5 5,5h6.66c2.76,0 5,-2.24 5,-5v-6.66c0,-2.76 -2.24,-5 -5,-5z" fill="currentColor"/>
<path id="Vector_141" d="M14.17,6.67c0.46,0 0.83,-0.38 0.83,-0.84c0,-0.46 -0.37,-0.83 -0.83,-0.83c-0.46,0 -0.84,0.37 -0.84,0.83c0,0.46 0.38,0.84 0.84,0.84z" fill="currentColor"/>
<path id="Vector_142" fill-rule="evenodd" clip-rule="evenodd" d="M14.17,10c0,2.3 -1.87,4.17 -4.17,4.17c-2.3,0 -4.17,-1.87 -4.17,-4.17c0,-2.3 1.87,-4.17 4.17,-4.17c2.3,0 4.17,1.87 4.17,4.17zM12.5,10c0,1.38 -1.12,2.5 -2.5,2.5c-1.38,0 -2.5,-1.12 -2.5,-2.5c0,-1.38 1.12,-2.5 2.5,-2.5c1.38,0 2.5,1.12 2.5,2.5z" fill="currentColor"/>
</g></svg>