<svg width="20" height="20" viewBox="0 0 20 20" fill="none" xmlns="http://www.w3.org/2000/svg">
<path fill-rule="evenodd" clip-rule="evenodd" d="M13.3334 3.33317H6.66669C4.82574 3.33317 3.33335 4.82555 3.33335 6.6665V13.3332C3.33335 15.1741 4.82574 16.6665 6.66669 16.6665H13.3334C15.1743 16.6665 16.6667 15.1741 16.6667 13.3332V6.6665C16.6667 4.82555 15.1743 3.33317 13.3334 3.33317ZM6.66669 1.6665C3.90526 1.6665 1.66669 3.90508 1.66669 6.6665V13.3332C1.66669 16.0946 3.90526 18.3332 6.66669 18.3332H13.3334C16.0948 18.3332 18.3334 16.0946 18.3334 13.3332V6.6665C18.3334 3.90508 16.0948 1.6665 13.3334 1.6665H6.66669Z" fill="#777E91"/>
<path d="M14.1666 6.66667C14.6269 6.66667 15 6.29357 15 5.83333C15 5.3731 14.6269 5 14.1666 5C13.7064 5 13.3333 5.3731 13.3333 5.83333C13.3333 6.29357 13.7064 6.66667 14.1666 6.66667Z" fill="#777E91"/>
<path fill-rule="evenodd" clip-rule="evenodd" d="M14.1666 10.0002C14.1666 12.3013 12.3011 14.1668 9.99998 14.1668C7.6988 14.1668 5.83331 12.3013 5.83331 10.0002C5.83331 7.69898 7.6988 5.8335 9.99998 5.8335C12.3011 5.8335 14.1666 7.69898 14.1666 10.0002ZM12.5 10.0002C12.5 11.3809 11.3807 12.5002 9.99998 12.5002C8.61923 12.5002 7.49998 11.3809 7.49998 10.0002C7.49998 8.61941 8.61923 7.50016 9.99998 7.50016C11.3807 7.50016 12.5 8.61941 12.5 10.0002Z" fill="#777E91"/>
</svg>
