<svg width="34" height="45" viewBox="0 0 34 45" fill="none" xmlns="http://www.w3.org/2000/svg">
<path d="M18.6051 31.7991V27.0869C18.4157 27.1314 18.2178 27.1554 18.0141 27.1554H15.9855C15.7818 27.1554 15.584 27.1314 15.3945 27.0869V31.7991H18.6051Z" fill="#FFAF10"/>
<path d="M16.8164 31.7991V27.1554H15.9855C15.7818 27.1554 15.584 27.1314 15.3945 27.0869V31.7991H16.8164Z" fill="#EF9614"/>
<path d="M17.0015 25.0493C15.772 25.0493 14.5945 24.8324 13.5078 24.4375V24.8708C13.5078 26.1827 14.6178 27.2463 15.9872 27.2463H18.0157C19.3851 27.2463 20.4951 26.1827 20.4951 24.8708V24.4375C19.4083 24.8324 18.2309 25.0493 17.0015 25.0493Z" fill="#FFD00D"/>
<path d="M16.3495 25.0282C15.3554 24.9658 14.4009 24.7621 13.5078 24.4375V24.8708C13.5078 26.1827 14.6178 27.2463 15.9872 27.2463H18.0157C18.1532 27.2463 18.288 27.2351 18.4193 27.2145C17.2948 27.038 16.4253 26.137 16.3495 25.0282Z" fill="#FFAF10"/>
<path d="M20.5788 33.5742V32.0801C20.5788 31.8384 20.3724 31.6406 20.1201 31.6406H13.8825C13.6302 31.6406 13.4238 31.8384 13.4238 32.0801V33.5742H20.5788Z" fill="#EF8318"/>
<path d="M16.1757 33.5742V32.0801C16.1757 31.8384 16.3821 31.6406 16.6344 31.6406H13.8825C13.6302 31.6406 13.4238 31.8384 13.4238 32.0801V33.5742H16.1757Z" fill="#DB722C"/>
<path d="M25.669 41.0449V33.8379C25.669 33.5962 25.4627 33.3984 25.2104 33.3984H8.79068C8.53842 33.3984 8.33203 33.5962 8.33203 33.8379V41.0449H25.669Z" fill="#A05F33"/>
<path d="M9.75385 41.0449V33.8379C9.75385 33.5962 9.96024 33.3984 10.2125 33.3984H8.79068C8.53842 33.3984 8.33203 33.5962 8.33203 33.8379V41.0449H9.75385Z" fill="#87502A"/>
<path d="M23.1494 39.1113C23.1494 39.353 22.943 39.5508 22.6908 39.5508H11.3122C11.0599 39.5508 10.8535 39.353 10.8535 39.1113V35.4199C10.8535 35.1782 11.0599 34.9805 11.3122 34.9805H22.6908C22.943 34.9805 23.1494 35.1782 23.1494 35.4199V39.1113Z" fill="#293D7C"/>
<path d="M12.686 39.1113V35.4199C12.686 35.1782 12.8924 34.9805 13.1447 34.9805H11.3122C11.0599 34.9805 10.8535 35.1782 10.8535 35.4199V39.1113C10.8535 39.353 11.0599 39.5508 11.3122 39.5508H13.1447C12.8924 39.5508 12.686 39.353 12.686 39.1113Z" fill="#1A2B63"/>
<path d="M27.5976 40.957H6.40787C6.15561 40.957 5.94922 41.1548 5.94922 41.3965V42.2184C9.21316 43.9885 12.9845 45 17.0027 45C21.021 45 24.7923 43.9885 28.0562 42.2183V41.3965C28.0562 41.1548 27.8498 40.957 27.5976 40.957Z" fill="#BF7E52"/>
<path d="M8.74699 41.3965C8.74699 41.1548 8.95338 40.957 9.20564 40.957H6.40787C6.15561 40.957 5.94922 41.1548 5.94922 41.3965V42.2184C6.84533 42.7044 7.77979 43.1328 8.74699 43.4991V41.3965Z" fill="#AA6B3F"/>
<path d="M32.4334 2.25H28.8784V2.98907C28.8784 3.18295 28.7138 3.34063 28.5115 3.34063H26.9722C26.9214 3.34063 26.8804 3.38 26.8804 3.42852V4.44726H31.6889C31.4925 8.29711 29.676 11.7457 26.8804 14.1795V15.5824C26.8804 16.0929 26.8374 16.5939 26.7559 17.0826C31.1335 14.1328 33.9999 9.25678 33.9999 3.7509C33.9999 2.92324 33.2971 2.25 32.4334 2.25Z" fill="#FFAF10"/>
<path d="M7.11955 15.5824V14.1795C4.32407 11.7457 2.50735 8.29711 2.31105 4.44726H7.11955V3.42852C7.11955 3.38 7.07846 3.34063 7.02782 3.34063H5.4884C5.28605 3.34063 5.12148 3.18295 5.12148 2.98907V2.25H1.56648C0.702746 2.25 0 2.92333 0 3.7509C0 9.25687 2.86648 14.1328 7.24403 17.0827C7.16248 16.5939 7.11955 16.0929 7.11955 15.5824Z" fill="#FFD00D"/>
<path d="M7.0293 3.33984V15.5816C7.0293 20.8588 11.4943 25.1369 17.002 25.1369C22.5098 25.1369 26.9748 20.8588 26.9748 15.5816V3.33984H7.0293Z" fill="#EF8318"/>
<path d="M9.01954 15.5823V3.25293H7.02734V15.5823C7.02734 20.8595 11.4923 25.1376 17.0001 25.1376C17.3341 25.1376 17.6637 25.1206 17.9891 25.0897C12.9524 24.6076 9.01954 20.535 9.01954 15.5823Z" fill="#DB722C"/>
<path d="M17.0009 20.1718C20.7499 20.1718 23.789 17.2599 23.789 13.6679C23.789 10.0759 20.7499 7.16406 17.0009 7.16406C13.252 7.16406 10.2129 10.0759 10.2129 13.6679C10.2129 17.2599 13.252 20.1718 17.0009 20.1718Z" fill="#DB722C"/>
<path d="M11.9577 13.666C11.9577 10.3571 14.5373 7.6274 17.8743 7.2173C17.5889 7.18224 17.2984 7.16211 17.0029 7.16211C13.254 7.16211 10.2148 10.074 10.2148 13.666C10.2148 17.258 13.254 20.1699 17.0029 20.1699C17.2984 20.1699 17.5889 20.1497 17.8743 20.1147C14.5373 19.7047 11.9577 16.9749 11.9577 13.666Z" fill="#C95E23"/>
<path d="M19.3637 17.7271C19.2515 17.7272 19.1367 17.698 19.0227 17.6405L17.1746 16.7097C17.1467 16.6956 17.0845 16.6792 17.0011 16.6792C16.9177 16.6792 16.8555 16.6956 16.8274 16.7097L14.9795 17.6405C14.8654 17.698 14.7506 17.7271 14.6385 17.7271C14.4683 17.7271 14.3159 17.6605 14.2097 17.5398C14.0918 17.4059 14.0471 17.2201 14.0835 17.0167L14.4365 15.0451C14.452 14.9585 14.3948 14.7901 14.3292 14.7287L12.8342 13.3324C12.6396 13.1506 12.569 12.9252 12.6407 12.7141C12.7123 12.503 12.9076 12.3605 13.1765 12.3231L15.2425 12.0355C15.3331 12.0228 15.4828 11.9187 15.5234 11.8399L16.4473 10.0461C16.5676 9.81257 16.7694 9.67871 17.0011 9.67871C17.2329 9.67871 17.4347 9.81257 17.5549 10.0461L18.4789 11.8399C18.5195 11.9187 18.6691 12.0229 18.7597 12.0355L20.8257 12.3231C21.0946 12.3605 21.29 12.503 21.3615 12.7141C21.4332 12.9252 21.3627 13.1506 21.1682 13.3323L19.6731 14.7287C19.6074 14.79 19.5502 14.9585 19.5657 15.0451L19.9186 17.0167C19.955 17.2201 19.9103 17.4059 19.7925 17.5398C19.6862 17.6605 19.5338 17.7271 19.3637 17.7271Z" fill="#FFD00D"/>
<path d="M15.5978 16.8291L15.9802 14.6927C15.997 14.599 15.9351 14.4162 15.864 14.3499L14.2439 12.8368C14.0449 12.651 13.9674 12.4233 14.0242 12.2061L13.1765 12.3241C12.9076 12.3615 12.7123 12.504 12.6407 12.7151C12.569 12.9262 12.6396 13.1516 12.8342 13.3334L14.3292 14.7297C14.3948 14.791 14.452 14.9596 14.4365 15.0461L14.0835 17.0177C14.0472 17.2212 14.0919 17.407 14.2097 17.5408C14.316 17.6616 14.4683 17.7281 14.6385 17.7281C14.7507 17.7281 14.8654 17.699 14.9795 17.6415L15.6648 17.2963C15.5911 17.1643 15.5667 17.0029 15.5978 16.8291Z" fill="#FFAF10"/>
<path d="M28.971 2.98827C28.971 3.22997 28.7646 3.42772 28.5123 3.42772H5.48804C5.23578 3.42772 5.02939 3.22997 5.02939 2.98827V0.439451C5.02939 0.197753 5.23578 0 5.48804 0H28.5123C28.7646 0 28.971 0.197753 28.971 0.439451V2.98827Z" fill="#FFD00D"/>
<path d="M7.82716 2.98827V0.439451C7.82716 0.197753 8.03355 0 8.28581 0H5.48804C5.23578 0 5.02939 0.197753 5.02939 0.439451V2.98827C5.02939 3.22997 5.23578 3.42772 5.48804 3.42772H8.28581C8.03355 3.42772 7.82716 3.22997 7.82716 2.98827Z" fill="#FFAF10"/>
<path d="M5.16584 29.0907C5.04778 29.0907 4.94284 29.0185 4.90514 28.9114C4.37714 27.4125 3.98197 27.0339 2.41769 26.5281C2.30578 26.4919 2.23047 26.3913 2.23047 26.2782C2.23047 26.1651 2.30578 26.0646 2.4176 26.0284C3.98187 25.5226 4.37705 25.1439 4.90505 23.6451C4.94284 23.538 5.04769 23.4658 5.16575 23.4658C5.2838 23.4658 5.38874 23.538 5.42644 23.6451C5.95444 25.1439 6.34962 25.5226 7.91389 26.0284C8.02571 26.0646 8.10111 26.1651 8.10111 26.2782C8.10111 26.3913 8.0258 26.4919 7.91389 26.5281C6.34962 27.0339 5.95444 27.4125 5.42644 28.9114C5.38883 29.0185 5.28389 29.0907 5.16584 29.0907Z" fill="#FFD00D"/>
<path d="M27.9602 26.1924C27.8662 26.1924 27.7824 26.1349 27.7524 26.0495C27.3317 24.8551 27.0167 24.5534 25.7702 24.1503C25.6812 24.1214 25.6211 24.0413 25.6211 23.9512C25.6211 23.8611 25.6812 23.7809 25.7702 23.7521C27.0168 23.349 27.3317 23.0472 27.7524 21.8529C27.7824 21.7674 27.8661 21.71 27.9602 21.71C28.0543 21.71 28.1378 21.7674 28.1681 21.8529C28.5888 23.0472 28.9038 23.3489 30.1503 23.7521C30.2393 23.7809 30.2993 23.8611 30.2993 23.9512C30.2993 24.0413 30.2393 24.1214 30.1503 24.1503C28.9037 24.5535 28.5888 24.8551 28.1681 26.0495C28.1378 26.1349 28.0542 26.1924 27.9602 26.1924Z" fill="#F23849"/>
<path d="M19.4726 36.8271H14.5192C14.2659 36.8271 14.0605 36.6304 14.0605 36.3877C14.0605 36.145 14.2659 35.9482 14.5192 35.9482H19.4726C19.726 35.9482 19.9313 36.145 19.9313 36.3877C19.9313 36.6304 19.726 36.8271 19.4726 36.8271Z" fill="white"/>
<path d="M18.3766 38.4092H15.6247C15.3714 38.4092 15.166 38.2124 15.166 37.9697C15.166 37.7271 15.3714 37.5303 15.6247 37.5303H18.3766C18.6299 37.5303 18.8352 37.7271 18.8352 37.9697C18.8352 38.2124 18.6299 38.4092 18.3766 38.4092Z" fill="white"/>
<path d="M11.4027 7.03221C11.3142 7.03221 11.2355 6.97807 11.2071 6.89773C10.8111 5.77362 10.5147 5.48965 9.34152 5.11022C9.25768 5.08307 9.20117 5.00766 9.20117 4.92284C9.20117 4.83803 9.25768 4.76262 9.34152 4.73546C10.5147 4.35613 10.8111 4.07206 11.2071 2.94795C11.2355 2.86762 11.3142 2.81348 11.4027 2.81348C11.4912 2.81348 11.5699 2.86762 11.5983 2.94795C11.9943 4.07206 12.2906 4.35604 13.4639 4.73546C13.5477 4.76262 13.6042 4.83803 13.6042 4.92284C13.6042 5.00766 13.5477 5.08307 13.4639 5.11022C12.2906 5.48965 11.9943 5.77362 11.5983 6.89773C11.5699 6.97807 11.4912 7.03221 11.4027 7.03221Z" fill="white"/>
</svg>
