<svg width="60" height="60" viewBox="0 0 60 60" fill="none" xmlns="http://www.w3.org/2000/svg">
<path d="M58.8416 42.4851L58.0636 41.319V38.8116C58.0636 36.6952 57.5633 34.5769 56.6178 32.684C55.5146 30.4805 53.8153 28.6437 51.7017 27.376C50.3402 26.5592 48.7831 26.1286 47.197 26.1286C46.3376 26.1286 45.516 26.3241 44.766 26.6686C44.1709 26.2467 43.7664 25.6225 43.6174 24.9131L45.8393 24.3074C50.7572 22.9651 54.1927 18.4691 54.1927 13.3711C54.1927 8.13277 49.9308 3.87091 44.6519 3.87091C41.2368 3.87091 38.0626 5.71249 36.3681 8.6776L35.7846 9.69855C35.3946 10.3827 34.7317 10.884 33.9682 11.0747L32.9259 11.3359C31.7734 11.6234 30.9672 12.6559 30.9672 13.8453C30.9672 14.5362 31.2363 15.1865 31.725 15.6752L31.7946 15.7459L31.2721 17.3126C31.0698 17.9233 30.9672 18.5571 30.9672 19.1978C30.9672 22.0632 32.9995 24.4622 35.6985 25.0312C35.5417 25.6989 35.2098 26.3241 34.7211 26.8128L33.4698 28.0641H33.1349C32.4401 28.0641 31.7811 28.2402 31.1956 28.5479L31.094 28.4966C27.4834 26.6909 23.0241 26.6744 19.3894 28.4279C19.3748 28.2305 19.3545 28.0331 19.3545 27.8357V14.8091L20.3145 13.3691C20.6755 12.8282 20.928 12.233 21.0906 11.6137H23.2254V15.4846C23.2254 16.552 24.0935 17.42 25.1609 17.42H27.0963C28.1637 17.42 29.0318 16.552 29.0318 15.4846V1.93545C29.0318 0.868051 28.1637 0 27.0963 0H25.1609C24.0935 0 23.2254 0.868051 23.2254 1.93545V5.80636H21.29V3.87091C21.29 2.8035 20.4219 1.93545 19.3545 1.93545C17.7975 1.93545 16.4513 2.85963 15.8378 4.18929C15.441 3.98606 14.991 3.87091 14.5159 3.87091H10.645C9.38501 3.87091 8.32051 4.68283 7.91987 5.80636H5.80636V1.93545C5.80636 0.868051 4.93831 0 3.87091 0H1.93545C0.86805 0 0 0.868051 0 1.93545V15.4836C0 16.551 0.86805 17.4191 1.93545 17.4191H3.87091C4.93831 17.4191 5.80636 16.551 5.80636 15.4836V11.6127H7.83762C8.04471 12.7691 8.59438 13.8336 9.44307 14.6823L9.67726 14.9165V33.4437C9.67726 37.4384 12.7962 40.8274 16.7765 41.1593L22.0274 41.5968C23.2119 42.2267 24.5425 42.58 25.9099 42.58C26.8012 42.58 27.6818 42.4377 28.5257 42.1561L28.8741 42.04C29.1344 42.8538 29.4508 43.6503 29.8331 44.4148C30.5763 45.8954 30.9672 47.5541 30.9672 49.2128V56.042C30.9672 58.2242 32.743 60 34.9252 60C36.2849 60 37.6465 59.6787 38.859 59.071L42.9583 57.0213L55.5697 52.5708C58.2194 51.634 59.999 49.1189 59.999 46.3096C59.999 44.9431 59.5984 43.6203 58.8416 42.4851ZM25.1609 1.93545H27.0963L27.0983 15.4836H25.1609V1.93545ZM23.2254 7.74181V9.67726H21.29V7.74181H23.2254ZM44.6925 5.80636C48.8634 5.80636 52.2572 9.20018 52.2572 13.3711C52.2572 17.5981 49.4092 21.3277 45.3312 22.4396L43.5477 22.9264V20.7229L45.5664 18.7042C46.1286 18.142 46.4509 17.3639 46.4509 16.5684C46.4509 14.933 45.1435 13.5966 43.5187 13.5491C43.2932 11.2905 41.7661 9.35404 39.5781 8.62438L38.9432 8.41245C40.3716 6.78473 42.4493 5.80636 44.6925 5.80636ZM34.8381 29.4324L36.0894 28.1812C36.9091 27.3615 37.451 26.2951 37.6513 25.1609H39.6768V23.2254H36.9304C34.7094 23.2254 32.9027 21.4187 32.9027 19.1978C32.9027 18.7652 32.9724 18.3355 33.1088 17.9242L34.0107 15.2223L33.0943 14.3069C32.9724 14.184 32.9027 14.0165 32.9027 13.8453C32.9027 13.5453 33.1059 13.2849 33.3962 13.2133L34.4375 12.952C35.711 12.6346 36.8142 11.7985 37.4655 10.6585L37.8004 10.0721L38.9655 10.4602C40.5477 10.9876 41.6122 12.4633 41.6122 14.1327V15.4836H43.4306C44.0286 15.4836 44.5154 15.9704 44.5154 16.5684C44.5154 16.8539 44.4002 17.1336 44.198 17.3358L41.6122 19.9216V24.3064C41.6122 25.6622 42.1696 26.9134 43.117 27.8096C42.8025 28.1221 42.5161 28.4686 42.2742 28.8566L39.9535 32.5698C39.4445 33.3837 38.5678 33.8704 37.6058 33.8704C36.0797 33.8704 34.8381 32.6288 34.8381 31.1027V29.4324ZM9.67726 6.77408C9.67726 6.2399 10.1108 5.80636 10.645 5.80636H14.5159C15.0501 5.80636 15.4836 6.2399 15.4836 6.77408V8.70954C15.4836 9.24372 15.0501 9.67726 14.5159 9.67726H10.645C10.1108 9.67726 9.67726 9.24372 9.67726 8.70954V6.77408ZM1.93545 15.4836V1.93545H3.87091L3.87284 15.4836H1.93545ZM5.80636 7.74181H7.74181V8.70954V9.67726H5.80636V7.74181ZM27.915 40.3194C27.2676 40.5352 26.5931 40.6445 25.9099 40.6445C23.9261 40.6445 22.0303 39.6971 20.84 38.11L20.1287 37.1607L18.5803 38.322L19.2916 39.2713C19.3361 39.3303 19.3874 39.3816 19.4339 39.4387L16.9371 39.2307C13.9517 38.981 11.6127 36.4388 11.6127 33.4437V14.1153L10.8114 13.314C10.2966 12.7991 9.955 12.1614 9.79242 11.4705C10.0634 11.5547 10.346 11.6127 10.645 11.6127H14.5159C16.1165 11.6127 17.4191 10.3102 17.4191 8.70954V5.80636C17.4191 4.73896 18.2871 3.87091 19.3545 3.87091V10.1476C19.3545 10.915 19.13 11.6572 18.7042 12.295L17.4191 14.2227V27.8347C17.4191 29.3986 17.7887 30.9653 18.4884 32.3675L20.2197 31.5014C20.0406 31.1434 19.8984 30.7679 19.7736 30.3866L20.0929 30.2269C23.03 28.7579 26.6212 28.6863 29.6376 29.9763C29.4944 30.1989 29.3637 30.4321 29.2621 30.6847C28.4676 32.6753 28.0641 34.7714 28.0641 36.9139C28.0641 38.0036 28.1783 39.0923 28.3902 40.1616L27.915 40.3194ZM29.9995 36.9139C29.9995 35.0181 30.3566 33.1649 31.0611 31.4056C31.3727 30.6266 32.084 30.1214 32.9027 30.0353V31.1037C32.9027 33.6972 35.0133 35.8068 37.6058 35.8068C39.2394 35.8068 40.7306 34.9804 41.5938 33.5966L43.9135 29.8844C44.6257 28.7453 45.8528 28.065 47.197 28.065C48.4318 28.065 49.6444 28.4018 50.705 29.0366C50.7369 29.056 50.7689 29.0753 50.8008 29.0947C48.1047 29.4063 45.668 30.8821 44.1409 33.1727C43.1199 34.7036 42.58 36.4862 42.58 38.3268C42.58 41.289 44.1574 44.0732 46.6967 45.5973L46.7373 45.6215L41.3984 50.1979L39.399 49.5321C39.0478 49.414 38.68 49.354 38.3065 49.354C36.9923 49.354 35.8097 50.0847 35.2223 51.2595L35.084 51.5363L33.1543 52.5001C33.0662 52.5446 32.9859 52.5988 32.9017 52.6492V49.2128C32.9017 47.256 32.4392 45.2964 31.5643 43.5487C30.5414 41.5 29.9995 39.2055 29.9995 36.9139ZM54.9262 50.7447L42.2577 55.2156L37.9929 57.3388C37.0465 57.8129 35.9868 58.0636 34.9252 58.0636C33.8104 58.0636 32.9027 57.1568 32.9027 56.041C32.9027 55.2698 33.3304 54.5759 34.0204 54.2314L36.5268 52.9791L36.9536 52.1256C37.212 51.6098 37.7297 51.2895 38.3065 51.2895C38.47 51.2895 38.6307 51.3147 38.7845 51.3669L41.8261 52.3811L50.0353 45.3448L47.6925 43.9386C45.7328 42.7619 44.5154 40.6126 44.5154 38.3268C44.5154 36.8694 44.9422 35.4575 45.7512 34.244C47.1196 32.1924 49.4092 30.9672 51.875 30.9672H53.0933C53.8065 31.7337 54.4114 32.6008 54.8865 33.5501C55.6994 35.1759 56.1281 36.9952 56.1281 38.8126V41.9055L57.2313 43.5593C57.7762 44.3761 58.0636 45.3273 58.0636 46.3105C58.0636 48.3002 56.8026 50.0818 54.9262 50.7447Z" fill="#91B5F8"/>
</svg>
