<svg width="30" height="45" viewBox="0 0 30 45" fill="none" xmlns="http://www.w3.org/2000/svg">
<path d="M15.0078 5.89296L17.062 1.19984C17.1205 1.0673 17.216 0.954405 17.337 0.874643C17.458 0.794881 17.5993 0.751617 17.7442 0.750018H22.7897C22.9181 0.749121 23.0446 0.781234 23.1571 0.843277C23.2695 0.90532 23.3642 0.995213 23.4319 1.10434C23.4996 1.21346 23.5382 1.33815 23.5439 1.46646C23.5496 1.59477 23.5222 1.72239 23.4644 1.83708L19.476 9.81389L15.0078 10.4961V5.89296Z" fill="#A54261"/>
<path d="M16.6916 9.74707H18.7533C19.7475 9.74707 20.7009 10.142 21.4039 10.845C22.1069 11.548 22.5018 12.5014 22.5018 13.4956V17.8813L19.503 16.4794V13.4956C19.503 13.2967 19.424 13.106 19.2834 12.9655C19.1428 12.8249 18.9521 12.7459 18.7533 12.7459H11.2563C11.0575 12.7459 10.8668 12.8249 10.7262 12.9655C10.5856 13.106 10.5066 13.2967 10.5066 13.4956V16.4794L7.50781 17.8813V13.4956C7.50871 12.6263 7.8111 11.7843 8.36342 11.113C8.91573 10.4417 9.68378 9.98285 10.5366 9.81454L16.6916 9.74707Z" fill="#E8C054"/>
<path d="M15.006 44.2327C22.8729 44.2327 29.2503 37.8554 29.2503 29.9884C29.2503 22.1215 22.8729 15.7441 15.006 15.7441C7.13911 15.7441 0.761719 22.1215 0.761719 29.9884C0.761719 37.8554 7.13911 44.2327 15.006 44.2327Z" fill="#F9D971"/>
<path d="M12.0085 12.7452L6.55368 1.83482C6.49658 1.72055 6.46962 1.59358 6.47537 1.46597C6.48112 1.33836 6.51938 1.21433 6.58652 1.10565C6.65366 0.996979 6.74746 0.907264 6.85901 0.84502C6.97056 0.782776 7.09617 0.750068 7.22391 0.75H12.2679C12.4137 0.750075 12.5563 0.792668 12.6783 0.872562C12.8003 0.952456 12.8963 1.06618 12.9546 1.19982L18.0061 12.7452H12.0085Z" fill="#DD5673"/>
<path d="M9.01022 31.4871H6.01142C5.81259 31.4871 5.6219 31.4081 5.4813 31.2675C5.3407 31.1269 5.26172 30.9362 5.26172 30.7374V29.238C5.26172 29.0391 5.3407 28.8485 5.4813 28.7079C5.6219 28.5673 5.81259 28.4883 6.01142 28.4883H9.01022V31.4871Z" fill="white"/>
<path d="M21.0059 31.4871H24.0047C24.2035 31.4871 24.3942 31.4081 24.5348 31.2675C24.6754 31.1269 24.7544 30.9362 24.7544 30.7374V29.238C24.7544 29.0391 24.6754 28.8485 24.5348 28.7079C24.3942 28.5673 24.2035 28.4883 24.0047 28.4883H21.0059V31.4871Z" fill="white"/>
<path d="M11.2598 28.4883H18.7568V31.4871H11.2598V28.4883Z" fill="white"/>
<path d="M10.5069 25.4902H9.75721C8.92912 25.4902 8.25781 26.1615 8.25781 26.9896V32.9872C8.25781 33.8153 8.92912 34.4866 9.75721 34.4866H10.5069C11.335 34.4866 12.0063 33.8153 12.0063 32.9872V26.9896C12.0063 26.1615 11.335 25.4902 10.5069 25.4902Z" fill="#3F6582"/>
<path d="M19.5048 34.4863H20.2545C21.0826 34.4863 21.7539 33.815 21.7539 32.9869V26.9893C21.7539 26.1612 21.0826 25.4899 20.2545 25.4899H19.5048C18.6767 25.4899 18.0054 26.1612 18.0054 26.9893V32.9869C18.0054 33.815 18.6767 34.4863 19.5048 34.4863Z" fill="#3F6582"/>
<path d="M10.5094 24.7393H9.75968C9.16318 24.7393 8.59111 24.9762 8.16933 25.398C7.74754 25.8198 7.51058 26.3919 7.51058 26.9884V27.7381H6.01118C5.61351 27.7381 5.23214 27.896 4.95094 28.1772C4.66975 28.4584 4.51178 28.8398 4.51178 29.2375V30.7369C4.51178 31.1345 4.66975 31.5159 4.95094 31.7971C5.23214 32.0783 5.61351 32.2363 6.01118 32.2363H7.51058V32.986C7.51058 33.5825 7.74754 34.1545 8.16933 34.5763C8.59111 34.9981 9.16318 35.2351 9.75968 35.2351H10.5094C11.1059 35.2351 11.6779 34.9981 12.0997 34.5763C12.5215 34.1545 12.7585 33.5825 12.7585 32.986V32.2363H17.2567V32.986C17.2567 33.5825 17.4936 34.1545 17.9154 34.5763C18.3372 34.9981 18.9093 35.2351 19.5058 35.2351H20.2555C20.852 35.2351 21.424 34.9981 21.8458 34.5763C22.2676 34.1545 22.5046 33.5825 22.5046 32.986V32.2363H24.004C24.4016 32.2363 24.783 32.0783 25.0642 31.7971C25.3454 31.5159 25.5034 31.1345 25.5034 30.7369V29.2375C25.5034 28.8398 25.3454 28.4584 25.0642 28.1772C24.783 27.896 24.4016 27.7381 24.004 27.7381H22.5046V26.9884C22.5046 26.3919 22.2676 25.8198 21.8458 25.398C21.424 24.9762 20.852 24.7393 20.2555 24.7393H19.5058C18.9093 24.7393 18.3372 24.9762 17.9154 25.398C17.4936 25.8198 17.2567 26.3919 17.2567 26.9884V27.7381H12.7585V26.9884C12.7585 26.3919 12.5215 25.8198 12.0997 25.398C11.6779 24.9762 11.1059 24.7393 10.5094 24.7393ZM6.01118 30.7369V29.2375H7.51058V30.7369H6.01118ZM11.2591 32.986C11.2591 33.1848 11.1801 33.3755 11.0395 33.5161C10.8989 33.6567 10.7082 33.7357 10.5094 33.7357H9.75968C9.56085 33.7357 9.37016 33.6567 9.22956 33.5161C9.08896 33.3755 9.00998 33.1848 9.00998 32.986V26.9884C9.00998 26.7895 9.08896 26.5988 9.22956 26.4582C9.37016 26.3176 9.56085 26.2387 9.75968 26.2387H10.5094C10.7082 26.2387 10.8989 26.3176 11.0395 26.4582C11.1801 26.5988 11.2591 26.7895 11.2591 26.9884V32.986ZM24.004 29.2375V30.7369H22.5046V29.2375H24.004ZM18.7561 26.9884C18.7561 26.7895 18.8351 26.5988 18.9757 26.4582C19.1163 26.3176 19.3069 26.2387 19.5058 26.2387H20.2555C20.4543 26.2387 20.645 26.3176 20.7856 26.4582C20.9262 26.5988 21.0052 26.7895 21.0052 26.9884V32.986C21.0052 33.1848 20.9262 33.3755 20.7856 33.5161C20.645 33.6567 20.4543 33.7357 20.2555 33.7357H19.5058C19.3069 33.7357 19.1163 33.6567 18.9757 33.5161C18.8351 33.3755 18.7561 33.1848 18.7561 32.986V26.9884ZM17.2567 29.2375V30.7369H12.7585V29.2375H17.2567Z" fill="#373737"/>
<path d="M3.41593 21.6716C3.24871 21.564 3.04561 21.5273 2.85131 21.5695C2.65701 21.6116 2.48742 21.7293 2.37985 21.8965C0.780329 24.3863 -0.0469738 27.2936 0.00205998 30.2525C0.0510937 33.2115 0.974273 36.0898 2.65541 38.5252C4.33655 40.9607 6.70052 42.8444 9.44982 43.9394C12.1991 45.0344 15.2109 45.2917 18.1061 44.6789C21.0013 44.0661 23.6505 42.6106 25.7204 40.4956C27.7902 38.3806 29.1882 35.7006 29.7385 32.7929C30.2887 29.8851 29.9665 26.8796 28.8125 24.1546C27.6584 21.4295 25.7241 19.1067 23.253 17.4785V13.4946C23.2519 12.6166 22.9943 11.758 22.5117 11.0245C22.0291 10.291 21.3427 9.71456 20.5368 9.36601L24.1354 2.16889C24.2497 1.93987 24.3034 1.6854 24.2915 1.42972C24.2796 1.17405 24.2025 0.925669 24.0674 0.708245C23.9324 0.490821 23.7439 0.311589 23.52 0.187616C23.2961 0.0636435 23.0441 -0.000941729 22.7882 1.03763e-05H17.7427C17.4518 0.00103355 17.1676 0.086627 16.9245 0.246362C16.6814 0.406098 16.4901 0.633079 16.3737 0.89965L15.0063 4.02215L13.6403 0.89965C13.5237 0.632379 13.3316 0.404922 13.0877 0.245134C12.8438 0.0853454 12.5585 0.000160617 12.2669 1.03763e-05H7.22291C6.96674 -0.000366697 6.71475 0.0648924 6.49097 0.189563C6.26719 0.314235 6.07908 0.49416 5.94459 0.712178C5.81009 0.930196 5.7337 1.17904 5.72269 1.43497C5.71168 1.6909 5.76642 1.94538 5.8817 2.17414L9.48026 9.37576C8.67501 9.72288 7.98862 10.2975 7.50532 11.0292C7.02203 11.7609 6.76285 12.6177 6.75959 13.4946V17.4755C6.04543 17.9426 5.37205 18.4693 4.74665 19.0499C4.67483 19.1173 4.617 19.1983 4.57645 19.288C4.5359 19.3778 4.51344 19.4747 4.51034 19.5732C4.50725 19.6717 4.52357 19.7698 4.55839 19.862C4.59322 19.9541 4.64585 20.0385 4.71329 20.1103C4.84949 20.2554 5.03773 20.3404 5.23661 20.3466C5.33508 20.3497 5.43319 20.3334 5.52536 20.2986C5.61752 20.2638 5.70192 20.2111 5.77374 20.1437C8.27589 17.8 11.5775 16.4985 15.0058 16.5043C18.4342 16.5101 21.7313 17.8228 24.2255 20.1749C26.7197 22.5271 28.2233 25.7417 28.4299 29.1638C28.6365 32.586 27.5306 35.9581 25.3375 38.5932C23.1443 41.2284 20.0291 42.9282 16.6263 43.3464C13.2236 43.7646 9.78938 42.8697 7.02344 40.8441C4.25751 38.8184 2.36795 35.8144 1.73974 32.4441C1.11153 29.0738 1.79194 25.5908 3.64234 22.7047C3.74882 22.5375 3.78478 22.335 3.74235 22.1414C3.69992 21.9478 3.58256 21.7789 3.41593 21.6716ZM21.7536 13.4946V16.6164C21.2662 16.3703 20.7657 16.1513 20.2542 15.9604V13.4946C20.2542 13.0969 20.0962 12.7156 19.815 12.4344C19.5338 12.1532 19.1525 11.9952 18.7548 11.9952H18.4954L17.8394 10.4958H18.7548C19.5501 10.4958 20.3129 10.8118 20.8753 11.3741C21.4377 11.9365 21.7536 12.6993 21.7536 13.4946ZM17.7427 1.49941H22.7927L19.0374 9.01066C18.9437 9.00466 18.85 8.99641 18.7548 8.99641H17.1804L15.825 5.8919L17.7427 1.49941ZM12.2699 1.49941L16.8618 11.9952H12.4708L7.22291 1.49941H12.2699ZM8.259 13.4946C8.26006 12.8944 8.44078 12.3082 8.77788 11.8116C9.11499 11.3149 9.59304 10.9306 10.1505 10.708L10.829 12.0649C10.5208 12.1569 10.2503 12.3455 10.0576 12.603C9.86481 12.8604 9.75992 13.173 9.75839 13.4946V15.9491C9.24726 16.1375 8.74673 16.3535 8.259 16.5961V13.4946ZM11.2578 15.4813V13.4946H18.7548V15.4873C16.2991 14.8316 13.7146 14.8295 11.2578 15.4813Z" fill="#373737"/>
</svg>
