<svg width="68" height="60" viewBox="0 0 68 60" fill="none" xmlns="http://www.w3.org/2000/svg">
<path d="M49.161 0C44.7359 0 40.4859 1.66375 37.1932 4.68512C37.1287 4.744 37.0355 4.744 36.971 4.68512C33.6784 1.66375 29.4284 0 25.0038 0C15.1124 0 7.06601 8.23839 7.06601 18.3647C7.06601 20.6894 7.8641 23.3355 9.4357 26.2453C7.29893 26.6804 5.30909 27.6997 3.70472 29.2093C0.132514 32.5696 -0.986551 37.8629 0.919341 42.3816L1.79371 44.4549C3.50711 48.517 5.68535 52.2781 8.26852 55.6328C8.43591 55.8503 8.60485 56.0669 8.77634 56.2824L9.52222 57.2218C10.9239 58.9874 13.0212 60 15.2757 60C17.1632 60 19.0036 59.2567 20.3632 57.9533C21.7229 59.2572 23.5633 60 25.4507 60C27.7052 60 29.8021 58.9874 31.2042 57.2218L31.9501 56.2824C32.1211 56.0674 32.29 55.8509 32.4579 55.6328C33.2954 54.5455 34.0894 53.4141 34.8394 52.2449C35.5464 52.5894 36.3137 52.7619 37.0821 52.7619C38.1899 52.7619 39.2982 52.4036 40.2233 51.6859C43.6731 49.01 50.3261 43.6087 56.1216 37.4984C63.4052 29.8195 67.0983 23.3821 67.0983 18.3647C67.0988 8.23839 59.0518 0 49.161 0ZM30.3811 54.0335C30.2213 54.2409 30.0606 54.4472 29.8973 54.6524L29.1514 55.5918C28.2499 56.7273 26.901 57.379 25.4507 57.379C24.1858 57.379 22.953 56.8599 22.0695 55.9543C21.6169 55.491 21.0113 55.236 20.3637 55.236H20.3632C19.7156 55.236 19.11 55.491 18.657 55.9543C17.7734 56.8599 16.5407 57.379 15.2757 57.379C13.826 57.379 12.477 56.7273 11.575 55.5918L10.8292 54.6524C10.6664 54.4477 10.5051 54.2414 10.3459 54.0335C7.89942 50.857 5.83483 47.2915 4.20896 43.4362L3.3346 41.3629C1.85207 37.8486 2.72285 33.7322 5.50055 31.1188C8.82446 27.992 13.8449 27.7642 17.4381 30.5777L19.0527 31.8416V32.8373C19.0527 37.9008 23.1721 42.0202 28.2356 42.0202H29.9915C30.7153 42.0202 31.302 41.433 31.302 40.7092V38.9533C31.302 34.5799 28.2274 30.9125 24.1264 29.9941C27.6315 27.8174 32.1528 28.2285 35.2259 31.1188C38.0036 33.7322 38.8744 37.8486 37.3918 41.3629L36.5175 43.4362C34.8916 47.291 32.827 50.8565 30.3811 54.0335ZM21.6743 32.392H22.1191C25.7374 32.392 28.681 35.335 28.681 38.9533V39.3987H28.2356C24.6178 39.3987 21.6743 36.4551 21.6743 32.8368V32.392ZM54.2203 35.6944C48.5441 41.6788 42.0079 46.9843 38.6169 49.6146C37.9176 50.1572 37.0043 50.2781 36.2083 49.9806C37.2147 48.2125 38.1259 46.3675 38.9327 44.4549L39.8071 42.3816C41.713 37.8629 40.5939 32.5696 37.0222 29.2093C34.9704 27.2794 32.2905 26.146 29.4765 26.018C26.6609 25.8921 23.8909 26.7767 21.6722 28.5131L21.4941 28.6529C21.1516 26.9712 20.3253 25.4252 19.0839 24.1838L17.6874 22.7873C17.1755 22.2758 16.3462 22.2758 15.8337 22.7873C15.3223 23.2992 15.3223 24.129 15.8337 24.6409L17.2302 26.0375C17.8563 26.6641 18.3309 27.4007 18.6396 28.2034C16.7854 26.8791 14.5867 26.1214 12.3194 26.0185C10.5742 23.0806 9.68706 20.5066 9.68706 18.3647C9.68706 9.68355 16.5581 2.62105 25.0038 2.62105C28.77 2.62105 32.3909 4.0401 35.1988 6.61661C36.2723 7.60155 37.892 7.60207 38.9655 6.61661C41.7734 4.0401 45.3942 2.62105 49.161 2.62105C57.6062 2.62105 64.4772 9.68355 64.4772 18.3647C64.4772 22.6275 60.9306 28.6201 54.2203 35.6944Z" fill="#26FAA1"/>
<path d="M58.681 18.4053H50.2972C49.753 18.4053 49.2652 18.7416 49.0722 19.25L46.103 27.0543L41.2741 11.4037C41.1133 10.8841 40.6485 10.5171 40.1053 10.4823C39.5622 10.4469 39.0544 10.752 38.8286 11.2471L35.5676 18.4053H27.5156C26.7923 18.4053 26.2051 18.9925 26.2051 19.7158C26.2051 20.4397 26.7923 21.0269 27.5156 21.0269H36.4108C36.9242 21.0269 37.3906 20.7269 37.6036 20.2595L39.7854 15.4704L44.7214 31.467C44.8862 32.002 45.3725 32.3726 45.9315 32.3911C45.9459 32.3911 45.9602 32.3916 45.974 32.3916C46.5167 32.3916 47.005 32.0563 47.1991 31.5469L51.2008 21.0269H58.681C59.4049 21.0269 59.9915 20.4397 59.9915 19.7163C59.9915 18.9925 59.4049 18.4053 58.681 18.4053Z" fill="#26FAA1"/>
<path d="M21.4438 18.4053C21.0978 18.4053 20.7609 18.5455 20.5173 18.7892C20.2721 19.0329 20.1328 19.3713 20.1328 19.7158C20.1328 20.0608 20.2721 20.3987 20.5173 20.6424C20.7609 20.8861 21.0988 21.0268 21.4438 21.0268C21.7884 21.0268 22.1268 20.8866 22.3704 20.6424C22.6141 20.3987 22.7544 20.0608 22.7544 19.7158C22.7544 19.3713 22.6141 19.0329 22.3704 18.7892C22.1268 18.5455 21.7884 18.4053 21.4438 18.4053Z" fill="#26FAA1"/>
</svg>
