<svg width="60" height="60" viewBox="0 0 60 60" fill="none" xmlns="http://www.w3.org/2000/svg">
<path d="M48.2231 32.8382C47.9049 32.5201 47.7084 32.0808 47.7082 31.5954L47.708 30.9538C47.708 29.4767 48.2832 28.0881 49.3276 27.0437C50.3718 25.9995 51.7604 25.4243 53.2373 25.4244L53.8786 25.4243C54.3449 25.4243 54.7921 25.6095 55.1217 25.9391C55.4514 26.2688 55.6366 26.7158 55.6366 27.1821V27.8239C55.6368 29.3008 55.0616 30.6894 54.0172 31.7337C52.973 32.778 51.5844 33.3532 50.1075 33.353H49.4661C48.9806 33.3532 48.5411 33.1564 48.2231 32.8382Z" fill="#F23849"/>
<path d="M55.7011 34.9296C54.1126 36.1854 52.1629 36.8689 50.1071 36.8689H49.4651C48.0564 36.8689 46.7322 36.3204 45.7363 35.3244C44.7406 34.3288 44.192 33.0048 44.1917 31.5965L44.1916 30.9546C44.1916 30.4632 44.2325 29.9783 44.3087 29.5024C43.7056 28.8747 42.9808 28.3551 42.1592 27.9854C41.2732 27.5869 40.2331 27.9817 39.8349 28.867C39.4365 29.7523 39.8312 30.793 40.7165 31.1913C41.779 31.6694 42.5147 32.6534 42.6927 33.7824C39.7948 32.7328 36.6724 32.9402 34.1138 34.4008C30.5637 36.4275 28.5786 40.3484 29.0561 44.3896C29.0631 44.4486 29.0731 44.5073 29.086 44.5652C30.253 49.8073 32.9863 54.47 36.9905 58.0487L37.7564 58.7332C38.6991 59.5757 39.8797 60.0003 41.0632 60.0003C42.1566 60.0003 43.2522 59.6379 44.1644 58.9083L44.4925 58.6458L44.8305 58.9151C46.7288 60.4269 49.4203 60.3508 51.23 58.7333L51.9959 58.0488C56.0002 54.47 58.7335 49.8076 59.9004 44.5653C59.9133 44.5073 59.9233 44.4486 59.9303 44.3896C60.3695 40.6729 58.727 37.0632 55.7011 34.9296Z" fill="#F23849"/>
<path d="M31.0549 12.8907H9.96102C9.40942 12.8907 8.8898 12.6318 8.55757 12.1914C8.22546 11.7511 8.11929 11.1802 8.27081 10.65C9.07437 7.83779 11.2891 5.70039 14.0626 4.96796V1.75782C14.0626 0.787036 14.8496 0 15.8204 0H25.1955C26.1663 0 26.9533 0.787036 26.9533 1.75782V4.96796C29.7267 5.70039 31.9416 7.83779 32.7451 10.65C32.8966 11.1802 32.7905 11.7511 32.4584 12.1914C32.1261 12.6318 31.6065 12.8907 31.0549 12.8907Z" fill="#F23849"/>
<path d="M39.2581 8.19897H35.5883C35.7993 8.67839 35.9797 9.17398 36.1254 9.68422C36.5773 11.2661 36.2557 12.9949 35.2651 14.3085C34.2739 15.6224 32.7001 16.4065 31.0549 16.4065H9.961C8.3158 16.4065 6.74196 15.6224 5.75101 14.3091C4.76007 12.9949 4.43851 11.2661 4.89038 9.68422C5.03617 9.1741 5.21664 8.67839 5.42757 8.19897H1.75782C0.787036 8.19897 0 8.98601 0 9.9568V58.2384C0 59.2092 0.787036 59.9962 1.75782 59.9962H33.92C29.7607 56.0205 26.9102 50.9704 25.6545 45.3295C25.6163 45.1581 25.586 44.9804 25.565 44.8036C24.9214 39.357 27.593 34.0758 32.371 31.3481C33.5499 30.6751 34.8344 30.1915 36.1723 29.9074C36.1202 29.0648 36.2726 28.2166 36.6288 27.4249C37.4204 25.6652 39.1131 24.4858 41.0159 24.3325V9.9568C41.0159 8.98601 40.2289 8.19897 39.2581 8.19897ZM22.8517 50.3868H8.78912C7.81833 50.3868 7.0313 49.5997 7.0313 48.6289C7.0313 47.6581 7.81833 46.8711 8.78912 46.8711H22.8517C23.8225 46.8711 24.6095 47.6581 24.6095 48.6289C24.6095 49.5997 23.8225 50.3868 22.8517 50.3868ZM22.8517 43.3555H8.78912C7.81833 43.3555 7.0313 42.5684 7.0313 41.5976C7.0313 40.6268 7.81833 39.8398 8.78912 39.8398H22.8517C23.8225 39.8398 24.6095 40.6268 24.6095 41.5976C24.6095 42.5684 23.8225 43.3555 22.8517 43.3555ZM22.8517 36.3242H8.78912C7.81833 36.3242 7.0313 35.5371 7.0313 34.5663C7.0313 33.5956 7.81833 32.8085 8.78912 32.8085H22.8517C23.8225 32.8085 24.6095 33.5956 24.6095 34.5663C24.6095 35.5371 23.8225 36.3242 22.8517 36.3242ZM22.8517 29.2929H8.78912C7.81833 29.2929 7.0313 28.5058 7.0313 27.535C7.0313 26.5643 7.81833 25.7772 8.78912 25.7772H22.8517C23.8225 25.7772 24.6095 26.5643 24.6095 27.535C24.6095 28.5058 23.8225 29.2929 22.8517 29.2929ZM22.8517 22.2616H8.78912C7.81833 22.2616 7.0313 21.4745 7.0313 20.5037C7.0313 19.533 7.81833 18.7459 8.78912 18.7459H22.8517C23.8225 18.7459 24.6095 19.533 24.6095 20.5037C24.6095 21.4745 23.8225 22.2616 22.8517 22.2616ZM32.2268 29.2929H29.883C28.9122 29.2929 28.1252 28.5058 28.1252 27.535C28.1252 26.5643 28.9122 25.7772 29.883 25.7772H32.2268C33.1976 25.7772 33.9846 26.5643 33.9846 27.535C33.9846 28.5058 33.1976 29.2929 32.2268 29.2929ZM32.2268 22.2616H29.883C28.9122 22.2616 28.1252 21.4745 28.1252 20.5037C28.1252 19.533 28.9122 18.7459 29.883 18.7459H32.2268C33.1976 18.7459 33.9846 19.533 33.9846 20.5037C33.9846 21.4745 33.1976 22.2616 32.2268 22.2616Z" fill="#F23849"/>
</svg>
