<svg width="60" height="60" viewBox="0 0 60 60" fill="none" xmlns="http://www.w3.org/2000/svg">
<path d="M18.998 46H14.998C13.3446 46.0082 12.0062 47.3465 11.998 49C11.998 50.6568 13.3412 52 14.998 52H18.998V56C18.998 58.748 24.698 60 29.998 60C35.298 60 40.998 58.748 40.998 56V52H44.998C46.6515 51.9918 47.9898 50.6534 47.998 49C47.998 47.3431 46.6549 46 44.998 46H40.998V45C40.9962 44.6192 40.9212 44.2424 40.777 43.89C40.9203 43.6151 40.996 43.31 40.998 43V39H44.998C46.6515 38.9918 47.9898 37.6534 47.998 36C47.998 34.3431 46.6549 33 44.998 33H40.998V32C40.9962 31.6192 40.9212 31.2424 40.777 30.89C40.9203 30.6151 40.996 30.31 40.998 30V26H44.998C46.6515 25.9918 47.9898 24.6534 47.998 23C47.998 21.3431 46.6549 20 44.998 20H40.998V19C40.9962 18.6192 40.9212 18.2424 40.777 17.89C40.9203 17.6151 40.996 17.31 40.998 17V13H44.998C46.6515 12.9918 47.9898 11.6534 47.998 10C47.998 8.34314 46.6549 7 44.998 7H40.998V4C40.998 1.252 35.298 0 29.998 0C24.698 0 18.998 1.252 18.998 4V7H14.998C13.3446 7.0082 12.0062 8.34655 11.998 10C11.998 11.6569 13.3412 13 14.998 13H18.998V17C19.0002 17.3105 19.0755 17.6161 19.218 17.892C19.0747 18.2439 19 18.62 18.998 19V20H14.998C13.3446 20.0082 12.0062 21.3466 11.998 23C11.998 24.6568 13.3412 26 14.998 26H18.998V30C19.0002 30.3105 19.0755 30.6161 19.218 30.892C19.0747 31.2439 19 31.62 18.998 32V33H14.998C13.3446 33.0082 12.0062 34.3465 11.998 36C11.998 37.6568 13.3412 39 14.998 39H18.998V43C19.0002 43.3105 19.0755 43.6161 19.218 43.892C19.0747 44.2439 19 44.62 18.998 45V46ZM29.998 2C35.798 2 38.798 3.434 38.998 4C38.798 4.566 35.798 6 29.998 6C24.157 6 21.159 4.544 20.998 4.018V4.012C21.159 3.455 24.157 2 29.998 2ZM14.998 37C14.4457 37 13.998 36.5523 13.998 36C13.9971 35.7305 14.1079 35.4728 14.304 35.288C14.4864 35.1014 14.7371 34.9974 14.998 35H18.998C20.1026 35 20.998 34.1046 20.998 33V32.437C23.1957 33.3714 25.5506 33.8803 27.938 33.937H27.999C28.3563 33.9475 28.692 33.7667 28.8798 33.4625C29.0676 33.1584 29.0788 32.7772 28.9093 32.4625C28.7398 32.1479 28.4153 31.9475 28.058 31.937C24.235 31.708 21.781 30.837 21.095 30.107C21.06 30.0739 21.0275 30.0381 20.998 30V26C20.998 24.8954 20.1026 24 18.998 24H14.998C14.4457 24 13.998 23.5523 13.998 23C13.9971 22.7306 14.1079 22.4728 14.304 22.288C14.4864 22.1014 14.7371 21.9974 14.998 22H18.998C20.1026 22 20.998 21.1046 20.998 20V19.437C23.1957 20.3714 25.5506 20.8804 27.938 20.937H27.999C28.3563 20.9475 28.692 20.7667 28.8798 20.4625C29.0676 20.1584 29.0788 19.7772 28.9093 19.4625C28.7398 19.1479 28.4153 18.9475 28.058 18.937C24.235 18.708 21.781 17.837 21.095 17.107C21.06 17.0739 21.0275 17.0381 20.998 17V13C20.998 11.8954 20.1026 11 18.998 11H14.998C14.4457 11 13.998 10.5523 13.998 10C13.9971 9.73056 14.1079 9.47279 14.304 9.288C14.4864 9.1014 14.7371 8.99737 14.998 9H18.998C20.1026 9 20.998 8.10457 20.998 7V6.428C23.126 7.5 26.641 8 29.998 8C33.355 8 36.87 7.5 38.998 6.428V7C38.998 8.10457 39.8934 9 40.998 9H44.998C45.5503 9 45.998 9.44771 45.998 10C45.9989 10.2694 45.8881 10.5272 45.692 10.712C45.5096 10.8986 45.2589 11.0026 44.998 11H40.998C39.8934 11 38.998 11.8954 38.998 13V16.986C38.9665 17.0434 38.9248 17.0945 38.875 17.137C38.213 17.846 35.759 18.713 31.936 18.937C31.3837 18.9533 30.9492 19.4142 30.9655 19.9665C30.9818 20.5188 31.4427 20.9533 31.995 20.937H32.056C34.4433 20.8797 36.7985 20.3728 38.998 19.443V20C38.998 21.1046 39.8934 22 40.998 22H44.998C45.5503 22 45.998 22.4477 45.998 23C45.9989 23.2694 45.8881 23.5272 45.692 23.712C45.5096 23.8986 45.2589 24.0026 44.998 24H40.998C39.8934 24 38.998 24.8954 38.998 26V29.986C38.9665 30.0434 38.9248 30.0945 38.875 30.137C38.213 30.846 35.759 31.713 31.936 31.937C31.3837 31.9533 30.9492 32.4142 30.9655 32.9665C30.9818 33.5188 31.4427 33.9533 31.995 33.937H32.056C34.4431 33.8775 36.7975 33.3686 38.996 32.437V33C38.996 34.1046 39.8915 35 40.996 35H44.996C45.5483 35 45.996 35.4477 45.996 36C45.9969 36.2694 45.8861 36.5272 45.69 36.712C45.5081 36.8981 45.2583 37.0021 44.998 37H40.998C39.8934 37 38.998 37.8954 38.998 39V42.986C38.9665 43.0434 38.9248 43.0945 38.875 43.137C38.213 43.846 35.759 44.713 31.936 44.937C31.3837 44.9533 30.9492 45.4142 30.9655 45.9665C30.9818 46.5188 31.4427 46.9533 31.995 46.937H32.056C34.4431 46.8775 36.7975 46.3686 38.996 45.437V46C38.996 47.1046 39.8915 48 40.996 48H44.996C45.5483 48 45.996 48.4477 45.996 49C45.9969 49.2694 45.8861 49.5272 45.69 49.712C45.5081 49.8981 45.2583 50.0021 44.998 50H40.998C39.8934 50 38.998 50.8954 38.998 52V55.985C38.848 56.541 35.852 58 29.998 58C24.144 58 21.147 56.541 20.998 56V52C20.998 50.8954 20.1026 50 18.998 50H14.998C14.4457 50 13.998 49.5523 13.998 49C13.9971 48.7305 14.1079 48.4728 14.304 48.288C14.4864 48.1014 14.7371 47.9974 14.998 48H18.998C20.1026 48 20.998 47.1046 20.998 46V45.437C23.1957 46.3713 25.5506 46.8803 27.938 46.937H27.999C28.5513 46.9533 29.0122 46.5188 29.0285 45.9665C29.0448 45.4142 28.6103 44.9533 28.058 44.937C24.235 44.708 21.781 43.837 21.095 43.107C21.06 43.0739 21.0275 43.0381 20.998 43V39C20.998 37.8954 20.1026 37 18.998 37H14.998Z" fill="#FFB800"/>
<path d="M57.9973 22H52.4553C51.6216 22.0025 50.8762 22.5199 50.5823 23.3L48.2333 29.564C48.0241 30.1178 48.1006 30.7391 48.438 31.2256C48.7753 31.7121 49.3303 32.0017 49.9223 32H52.4813L50.7913 38.757C50.6748 39.2216 50.9041 39.7035 51.3381 39.9063C51.772 40.109 52.2888 39.9755 52.5703 39.588L59.6413 29.866C60.0085 29.3655 60.0919 28.7111 59.8619 28.1345C59.632 27.5579 59.1212 27.1405 58.5103 27.03L59.7103 25.03C60.0814 24.4124 60.0916 23.6429 59.737 23.0157C59.3824 22.3885 58.7178 22.0005 57.9973 22ZM56.6133 28.084C56.8713 28.5386 57.3132 28.8594 57.8253 28.964L53.9803 34.25L54.4803 32.242C54.6168 31.703 54.4966 31.1312 54.1547 30.6928C53.8127 30.2545 53.2873 29.9987 52.7313 30H50.2053L52.4553 24H57.9973L56.6363 26.267C56.302 26.8242 56.2928 27.5181 56.6123 28.084H56.6133Z" fill="#FFB800"/>
<path d="M1.48502 27.03C0.874169 27.1405 0.363346 27.5579 0.133397 28.1345C-0.0965509 28.7111 -0.0131703 29.3655 0.35402 29.866L7.42502 39.588C7.70654 39.9755 8.22331 40.109 8.65727 39.9063C9.09124 39.7035 9.32053 39.2216 9.20402 38.757L7.51402 32H10.073C10.6655 32.0019 11.2211 31.7121 11.5585 31.2251C11.8959 30.738 11.972 30.1161 11.762 29.562L9.41302 23.3C9.11908 22.5199 8.37368 22.0025 7.54002 22H1.99802C1.27783 22.0007 0.613636 22.3886 0.25911 23.0155C-0.0954156 23.6424 -0.085519 24.4114 0.28502 25.029L1.48502 27.03ZM7.54002 24L9.79002 30H7.26402C6.70768 29.9981 6.18173 30.2536 5.83929 30.692C5.49685 31.1305 5.3764 31.7027 5.51302 32.242L6.01302 34.25L2.17102 28.964C2.7475 28.8499 3.23197 28.4615 3.46881 27.9237C3.70565 27.3859 3.66504 26.7663 3.36002 26.264L1.99802 24H7.54002Z" fill="#FFB800"/>
</svg>
