<svg width="60" height="60" viewBox="0 0 60 60" fill="none" xmlns="http://www.w3.org/2000/svg">
<path d="M16.0717 21.4285V2.14288C16.0717 0.959409 15.1122 0 13.9288 0C12.7453 0 11.7859 0.959409 11.7859 2.14288V34.2856C11.7859 35.4691 12.7453 36.4285 13.9288 36.4285C15.1122 36.4285 16.0717 35.4691 16.0717 34.2856V21.4285Z" fill="#F23849"/>
<path d="M9.64196 28.9288V7.5003C9.64196 6.31683 8.68255 5.35742 7.49908 5.35742C6.31561 5.35742 5.3562 6.31683 5.3562 7.5003V28.9288C5.3562 30.1122 6.31561 31.0716 7.49908 31.0716C8.68255 31.0716 9.64196 30.1122 9.64196 28.9288Z" fill="#F23849"/>
<path d="M1.07144 20.3569H3.21432V16.0713H1.07144C0.479763 16.0713 0 16.5509 0 17.1427V19.2856C0 19.8773 0.479646 20.3569 1.07144 20.3569Z" fill="#F23849"/>
<path d="M47.1418 26.0156V7.5003C47.1418 6.31683 46.1824 5.35742 44.9989 5.35742C43.8154 5.35742 42.856 6.31683 42.856 7.5003V25.7692C43.2129 25.7477 43.5654 25.7146 43.9275 25.7146C45.0057 25.7198 46.0814 25.8206 47.1418 26.0156Z" fill="#F23849"/>
<path d="M40.7153 7.49996V2.14288C40.7153 0.959409 39.7559 0 38.5724 0C37.3889 0 36.4295 0.959409 36.4295 2.14288V27.3492C37.7968 26.7276 39.2366 26.2795 40.7152 26.0153V7.49996H40.7153Z" fill="#F23849"/>
<path d="M52.5 19.2856V17.1427C52.5 16.5511 52.0203 16.0713 51.4285 16.0713H49.2856V20.3569H51.4285C52.0203 20.357 52.5 19.8774 52.5 19.2856Z" fill="#F23849"/>
<path d="M43.9274 27.8572C35.0515 27.8572 27.8561 35.0526 27.8561 43.9285C27.8561 52.8045 35.0515 59.9999 43.9274 59.9999C52.8034 59.9999 59.9988 52.8045 59.9988 43.9285C59.9887 35.0568 52.7993 27.8673 43.9274 27.8572ZM43.9274 57.857C36.2349 57.857 29.999 51.621 29.999 43.9285C29.999 36.236 36.2349 30.0001 43.9274 30.0001C51.6199 30.0001 57.8559 36.236 57.8559 43.9285C57.846 51.6169 51.6158 57.8471 43.9274 57.857Z" fill="#F23849"/>
<path d="M54.645 42.8566H55.6618C55.4477 40.4792 54.5133 38.2238 52.9833 36.3916L52.2654 37.1095C51.8451 37.5155 51.1767 37.5097 50.7634 37.0965C50.3501 36.6832 50.3444 36.015 50.7504 35.5945L51.4683 34.8766C49.636 33.346 47.3801 32.4112 45.0023 32.197V33.2138C45.0023 33.8055 44.5226 34.2853 43.9308 34.2853C43.3392 34.2853 42.8594 33.8056 42.8594 33.2138V32.197C40.482 32.4111 38.2266 33.3456 36.3944 34.8756L37.1123 35.5934C37.3909 35.8625 37.5025 36.2608 37.4045 36.6355C37.3064 37.0101 37.0139 37.3026 36.6392 37.4007C36.2646 37.4988 35.8663 37.3871 35.5973 37.1086L34.8794 36.3907C33.3488 38.223 32.414 40.4789 32.1998 42.8567H33.2167C33.8083 42.8567 34.2881 43.3363 34.2881 43.9281C34.2881 44.5198 33.8085 44.9996 33.2167 44.9996H32.1998C32.4139 47.3769 33.3484 49.6323 34.8784 51.4645L35.5963 50.7467C36.0166 50.3406 36.6849 50.3465 37.0982 50.7597C37.5116 51.173 37.5173 51.8412 37.1113 52.2617L36.3934 52.9795C40.7564 56.6251 47.1032 56.6251 51.4662 52.9795L50.7483 52.2617C50.3422 51.8413 50.3481 51.173 50.7613 50.7597C51.1746 50.3463 51.8428 50.3406 52.2633 50.7467L52.9812 51.4645C54.5119 49.6326 55.4471 47.3772 55.6618 44.9996H54.645C54.0533 44.9996 53.5736 44.5199 53.5736 43.9281C53.5736 43.3363 54.0532 42.8566 54.645 42.8566ZM48.2165 44.9995H46.9479C46.5061 46.2592 45.3298 47.1133 43.9952 47.1434C42.6605 47.1735 41.4469 46.3734 40.9488 45.1348C40.4506 43.8963 40.7721 42.4787 41.7558 41.5762L40.1915 37.9216C39.9684 37.38 40.2216 36.7596 40.76 36.5287C41.2983 36.2979 41.9224 36.5422 42.1608 37.0773L43.7262 40.7341C43.7948 40.7341 43.8612 40.7137 43.9308 40.7137C45.2881 40.7193 46.4956 41.5769 46.9479 42.8566H48.2165C48.8081 42.8566 49.2879 43.3362 49.2879 43.928C49.2878 44.5198 48.8081 44.9995 48.2165 44.9995Z" fill="#F23849"/>
<path d="M43.9275 45.0001C44.5192 45.0001 44.9989 44.5204 44.9989 43.9286C44.9989 43.3369 44.5192 42.8572 43.9275 42.8572C43.3357 42.8572 42.856 43.3369 42.856 43.9286C42.856 44.5204 43.3357 45.0001 43.9275 45.0001Z" fill="#F23849"/>
<path d="M18.214 16.0713H34.2854V20.3569H18.214V16.0713Z" fill="#F23849"/>
</svg>
