<svg width="54" height="11" viewBox="0 0 54 11" fill="none" xmlns="http://www.w3.org/2000/svg">
<path d="M4.84091 0.58541C4.90078 0.401148 5.16146 0.401148 5.22133 0.58541L6.11578 3.33822C6.14255 3.42063 6.21934 3.47642 6.30599 3.47642H9.20047C9.39421 3.47642 9.47477 3.72434 9.31802 3.83822L6.97634 5.53956C6.90624 5.59048 6.87691 5.68076 6.90369 5.76316L7.79813 8.51597C7.858 8.70024 7.6471 8.85346 7.49036 8.73958L5.14868 7.03825C5.07858 6.98732 4.98366 6.98732 4.91357 7.03825L2.57188 8.73958C2.41514 8.85346 2.20424 8.70024 2.26411 8.51597L3.15856 5.76316C3.18533 5.68076 3.156 5.59048 3.0859 5.53956L0.74422 3.83822C0.587477 3.72434 0.668033 3.47642 0.861777 3.47642H3.75626C3.8429 3.47642 3.91969 3.42063 3.94647 3.33822L4.84091 0.58541Z" fill="#F23849"/>
<path d="M15.6221 0.58541C15.682 0.401148 15.9427 0.401148 16.0025 0.58541L16.897 3.33822C16.9237 3.42063 17.0005 3.47642 17.0872 3.47642H19.9817C20.1754 3.47642 20.256 3.72434 20.0992 3.83822L17.7575 5.53956C17.6874 5.59048 17.6581 5.68076 17.6849 5.76316L18.5793 8.51597C18.6392 8.70024 18.4283 8.85346 18.2716 8.73958L15.9299 7.03825C15.8598 6.98732 15.7649 6.98732 15.6948 7.03825L13.3531 8.73958C13.1963 8.85346 12.9854 8.70024 13.0453 8.51597L13.9397 5.76316C13.9665 5.68076 13.9372 5.59048 13.8671 5.53956L11.5254 3.83822C11.3687 3.72434 11.4492 3.47642 11.643 3.47642H14.5374C14.6241 3.47642 14.7009 3.42063 14.7277 3.33822L15.6221 0.58541Z" fill="#F23849"/>
<path d="M26.4034 0.58541C26.4633 0.401148 26.724 0.401148 26.7838 0.58541L27.6783 3.33822C27.7051 3.42063 27.7818 3.47642 27.8685 3.47642H30.763C30.9567 3.47642 31.0373 3.72434 30.8805 3.83822L28.5388 5.53956C28.4687 5.59048 28.4394 5.68076 28.4662 5.76316L29.3606 8.51597C29.4205 8.70024 29.2096 8.85346 29.0529 8.73958L26.7112 7.03825C26.6411 6.98732 26.5462 6.98732 26.4761 7.03825L24.1344 8.73958C23.9776 8.85346 23.7667 8.70024 23.8266 8.51597L24.7211 5.76316C24.7478 5.68076 24.7185 5.59048 24.6484 5.53956L22.3067 3.83822C22.15 3.72434 22.2305 3.47642 22.4243 3.47642H25.3188C25.4054 3.47642 25.4822 3.42063 25.509 3.33822L26.4034 0.58541Z" fill="#F23849"/>
<path d="M37.1847 0.58541C37.2445 0.401148 37.5052 0.401148 37.5651 0.58541L38.4595 3.33822C38.4863 3.42063 38.5631 3.47642 38.6497 3.47642H41.5442C41.738 3.47642 41.8185 3.72434 41.6618 3.83822L39.3201 5.53956C39.25 5.59048 39.2207 5.68076 39.2474 5.76316L40.1419 8.51597C40.2018 8.70024 39.9909 8.85346 39.8341 8.73958L37.4924 7.03825C37.4223 6.98732 37.3274 6.98732 37.2573 7.03825L34.9156 8.73958C34.7589 8.85346 34.548 8.70024 34.6079 8.51597L35.5023 5.76316C35.5291 5.68076 35.4998 5.59048 35.4297 5.53956L33.088 3.83822C32.9312 3.72434 33.0118 3.47642 33.2055 3.47642H36.1C36.1867 3.47642 36.2634 3.42063 36.2902 3.33822L37.1847 0.58541Z" fill="#F23849"/>
<path d="M47.964 0.58541C48.0238 0.401148 48.2845 0.401148 48.3444 0.58541L49.2388 3.33822C49.2656 3.42063 49.3424 3.47642 49.429 3.47642H52.3235C52.5173 3.47642 52.5978 3.72434 52.4411 3.83822L50.0994 5.53956C50.0293 5.59048 50 5.68076 50.0267 5.76316L50.9212 8.51597C50.981 8.70024 50.7702 8.85346 50.6134 8.73958L48.2717 7.03825C48.2016 6.98732 48.1067 6.98732 48.0366 7.03825L45.6949 8.73958C45.5382 8.85346 45.3273 8.70024 45.3872 8.51597L46.2816 5.76316C46.3084 5.68076 46.279 5.59048 46.2089 5.53956L43.8673 3.83822C43.7105 3.72434 43.7911 3.47642 43.9848 3.47642H46.8793C46.9659 3.47642 47.0427 3.42063 47.0695 3.33822L47.964 0.58541Z" fill="#161617"/>
</svg>
