<svg viewBox="0 0 53.1853 10.0622" fill="none" xmlns="http://www.w3.org/2000/svg" xmlns:xlink="http://www.w3.org/1999/xlink" x="0" y="0"><g id="Group 1000003161">
<path id="Star 1" d="M4.8373,0.5855c0.06,-0.184 0.32,-0.184 0.38,0l0.9,2.753c0.03,0.082 0.1,0.138 0.19,0.138h2.89c0.2,0 0.28,0.248 0.12,0.362l-2.34,1.701c-0.07,0.051 -0.1,0.141 -0.07,0.224l0.89,2.752c0.06,0.185 -0.15,0.338 -0.31,0.224l-2.34,-1.701c-0.07,-0.051 -0.16,-0.051 -0.23,0l-2.35,1.701c-0.15,0.114 -0.36,-0.039 -0.3,-0.224l0.89,-2.752c0.03,-0.083 0,-0.173 -0.07,-0.224l-2.34,-1.701c-0.16,-0.114 -0.08,-0.362 0.11,-0.362h2.9c0.09,0 0.16,-0.056 0.19,-0.138z" fill="#F23849"/>
<path id="Star 2" d="M15.6173,0.5855c0.06,-0.184 0.33,-0.184 0.39,0l0.89,2.753c0.03,0.082 0.1,0.138 0.19,0.138h2.89c0.2,0 0.28,0.248 0.12,0.362l-2.34,1.701c-0.07,0.051 -0.1,0.141 -0.07,0.224l0.89,2.752c0.06,0.185 -0.15,0.338 -0.31,0.224l-2.34,-1.701c-0.07,-0.051 -0.16,-0.051 -0.23,0l-2.34,1.701c-0.16,0.114 -0.37,-0.039 -0.31,-0.224l0.89,-2.752c0.03,-0.083 0,-0.173 -0.07,-0.224l-2.34,-1.701c-0.16,-0.114 -0.08,-0.362 0.12,-0.362h2.89c0.09,0 0.16,-0.056 0.19,-0.138z" fill="#F23849"/>
<path id="Star 3" d="M26.4073,0.5855c0.06,-0.184 0.32,-0.184 0.38,0l0.89,2.753c0.03,0.082 0.1,0.138 0.19,0.138h2.9c0.19,0 0.27,0.248 0.11,0.362l-2.34,1.701c-0.07,0.051 -0.1,0.141 -0.07,0.224l0.89,2.752c0.06,0.185 -0.15,0.338 -0.3,0.224l-2.35,-1.701c-0.07,-0.051 -0.16,-0.051 -0.23,0l-2.34,1.701c-0.16,0.114 -0.37,-0.039 -0.31,-0.224l0.89,-2.752c0.03,-0.083 0,-0.173 -0.07,-0.224l-2.34,-1.701c-0.16,-0.114 -0.08,-0.362 0.12,-0.362h2.89c0.09,0 0.16,-0.056 0.19,-0.138z" fill="#F23849"/>
<path id="Star 4" d="M37.1873,0.5855c0.06,-0.184 0.32,-0.184 0.38,0l0.89,2.753c0.03,0.082 0.11,0.138 0.19,0.138h2.9c0.19,0 0.27,0.248 0.11,0.362l-2.34,1.701c-0.07,0.051 -0.1,0.141 -0.07,0.224l0.89,2.752c0.06,0.185 -0.15,0.338 -0.3,0.224l-2.34,-1.701c-0.07,-0.051 -0.17,-0.051 -0.24,0l-2.34,1.701c-0.16,0.114 -0.37,-0.039 -0.31,-0.224l0.9,-2.752c0.02,-0.083 -0.01,-0.173 -0.08,-0.224l-2.34,-1.701c-0.16,-0.114 -0.08,-0.362 0.12,-0.362h2.89c0.09,0 0.17,-0.056 0.19,-0.138z" fill="#F23849"/>
<path id="Star 5" d="M47.9673,0.5855c0.06,-0.184 0.32,-0.184 0.38,0l0.89,2.753c0.03,0.082 0.11,0.138 0.19,0.138h2.9c0.19,0 0.27,0.248 0.11,0.362l-2.34,1.701c-0.07,0.051 -0.1,0.141 -0.07,0.224l0.89,2.752c0.06,0.185 -0.15,0.338 -0.3,0.224l-2.35,-1.701c-0.07,-0.051 -0.16,-0.051 -0.23,0l-2.34,1.701c-0.16,0.114 -0.37,-0.039 -0.31,-0.224l0.89,-2.752c0.03,-0.083 0,-0.173 -0.07,-0.224l-2.34,-1.701c-0.16,-0.114 -0.08,-0.362 0.12,-0.362h2.89c0.09,0 0.17,-0.056 0.19,-0.138z" fill="#161617"/>
</g></svg>