<svg width="60" height="60" viewBox="0 0 60 60" fill="none" xmlns="http://www.w3.org/2000/svg">
<path d="M59.8674 30.7066C59.7616 30.0681 59.1579 29.6365 58.5197 29.7422L56.356 30.1006L56.1561 29.3675C55.998 28.7879 55.427 28.4219 54.8344 28.5197L51.9986 28.9881C51.3601 29.0935 50.9279 29.6967 51.0335 30.3352C51.1389 30.9737 51.7415 31.4056 52.3806 31.3004L54.173 31.0044L54.3731 31.7381C54.5139 32.2547 54.9828 32.6018 55.5027 32.6018C55.5663 32.6018 55.6307 32.5966 55.6953 32.5858L58.9029 32.0544C59.5413 31.9486 59.9731 31.3452 59.8674 30.7066Z" fill="#F23849"/>
<path d="M57.2809 40.1588L55.1221 39.3454L55.2692 38.5087C55.3668 37.9536 55.0555 37.4076 54.5281 37.209L51.8118 36.1859C51.2059 35.9577 50.5301 36.2639 50.3021 36.8696C50.074 37.4752 50.38 38.1512 50.9856 38.3793L52.7924 39.06L52.6453 39.8966C52.5477 40.4516 52.859 40.9975 53.3863 41.1962L56.4545 42.3521C56.5906 42.4034 56.7301 42.4278 56.8675 42.4278C57.3413 42.4278 57.7874 42.1382 57.9642 41.6687C58.1926 41.0629 57.8867 40.387 57.2809 40.1588Z" fill="#F23849"/>
<path d="M51.3983 23.3709C51.7047 23.3709 52.0108 23.2513 52.2406 23.0138L53.5539 21.6561L54.02 22.0641C54.49 22.4757 55.2002 22.446 55.6345 21.9971L57.9921 19.5589C58.4419 19.0936 58.4294 18.3517 57.9642 17.9018C57.4989 17.4517 56.7571 17.4643 56.3071 17.9296L54.7249 19.5659L54.2591 19.1581C53.789 18.7467 53.079 18.7761 52.6448 19.2249L50.5562 21.3841C50.1062 21.8493 50.1185 22.5912 50.5837 23.0412C50.8112 23.2613 51.1048 23.3709 51.3983 23.3709Z" fill="#F23849"/>
<path d="M4.37723 32.6019C4.89719 32.6019 5.36606 32.2548 5.50692 31.7382L5.70696 31.0042L7.50286 31.3005C8.142 31.4069 8.74457 30.9737 8.84993 30.3351C8.95528 29.6965 8.52297 29.0934 7.88442 28.9881L5.04532 28.5197C4.45258 28.4217 3.882 28.7881 3.72391 29.3676L3.52411 30.1006L1.36376 29.7423C0.725319 29.6363 0.121804 30.068 0.0159835 30.7066C-0.089954 31.345 0.341882 31.9485 0.980319 32.0544L4.18469 32.5858C4.24915 32.5967 4.3136 32.6019 4.37723 32.6019Z" fill="#F23849"/>
<path d="M8.06609 36.187L5.3532 37.21C4.82679 37.4084 4.51578 37.9531 4.61222 38.5074L4.75812 39.3459L2.60047 40.1597C1.99496 40.3881 1.6891 41.0641 1.9175 41.6697C2.09457 42.1391 2.54047 42.4284 3.01414 42.4284C3.1516 42.4284 3.2914 42.404 3.42746 42.3527L6.49238 41.1968C7.01879 40.9982 7.3298 40.4537 7.23336 39.8994L7.08746 39.061L8.8932 38.3799C9.49871 38.1516 9.80457 37.4755 9.57617 36.87C9.34765 36.2643 8.67171 35.9587 8.06609 36.187Z" fill="#F23849"/>
<path d="M7.23347 19.225C6.79882 18.7758 6.08785 18.7466 5.61804 19.1591L5.15503 19.5655L3.57043 17.9291C3.12019 17.4639 2.37828 17.4521 1.91328 17.9024C1.4484 18.3526 1.43644 19.0944 1.88656 19.5594L4.24742 21.9976C4.68207 22.4466 5.39269 22.4755 5.86238 22.0631L6.32492 21.6571L7.6373 23.0138C7.86722 23.2513 8.1732 23.3708 8.47964 23.3708C8.77296 23.3708 9.06675 23.2613 9.29433 23.0412C9.75956 22.5912 9.77187 21.8493 9.32187 21.384L7.23347 19.225Z" fill="#F23849"/>
<path d="M39.3262 20.0303C38.6789 20.0303 38.1543 20.555 38.1543 21.2021C38.1543 21.8493 38.6789 22.374 39.3262 22.374H39.3295C39.9767 22.374 40.4997 21.8493 40.4997 21.2021C40.4997 20.555 39.9734 20.0303 39.3262 20.0303Z" fill="#F23849"/>
<path d="M46.3584 21.2023C46.3584 17.3215 43.2036 14.1641 39.3257 14.1641H36.2054C36.46 13.6301 36.6026 13.0329 36.6026 12.4029V4.10496C36.6025 1.84148 34.7615 0 32.4985 0C30.2355 0 28.3945 1.84148 28.3945 4.10496V8.30121H20.5575C16.6779 8.30121 13.5215 11.4571 13.5215 15.336C13.5215 17.7816 14.7752 19.94 16.6734 21.202C14.7753 22.4633 13.5215 24.6207 13.5215 27.0652C13.5215 29.5111 14.7753 31.6697 16.6737 32.9316C14.7753 34.1934 13.5215 36.3519 13.5215 38.7979C13.5215 42.6769 16.6778 45.8326 20.5575 45.8326H22.9275C22.6729 46.3666 22.5303 46.9638 22.5303 47.5938V55.895C22.5303 58.1585 24.3713 60 26.6343 60C28.8972 60 30.7382 58.1585 30.7382 55.895V51.6988H39.3256C43.2034 51.6988 46.3583 48.5415 46.3583 44.6606C46.3583 42.2162 45.1052 40.0587 43.2079 38.7975C45.105 37.5355 46.3583 35.377 46.3583 32.9314C46.3583 30.4857 45.1052 28.3273 43.2079 27.0654C45.1052 25.8041 46.3584 23.6467 46.3584 21.2023ZM39.3257 25.8933H20.5577C19.9104 25.8933 19.3858 26.418 19.3858 27.0652C19.3858 27.7123 19.9104 28.237 20.5577 28.237H39.3256C41.9111 28.237 44.0145 30.343 44.0145 32.9316C44.0145 35.52 41.9111 37.626 39.3256 37.626H20.5577C19.9104 37.626 19.3858 38.1507 19.3858 38.7979C19.3858 39.445 19.9104 39.9697 20.5577 39.9697H39.3256C41.9111 39.9697 44.0145 42.0741 44.0145 44.6607C44.0145 47.2493 41.9111 49.3552 39.3256 49.3552H29.5663C28.9191 49.3552 28.3945 49.8799 28.3945 50.527V55.8952C28.3945 56.8663 27.6048 57.6564 26.6343 57.6564C25.6638 57.6564 24.874 56.8663 24.874 55.8952V47.5939C24.874 46.6228 25.6636 45.8327 26.6343 45.8327H39.3256C39.9728 45.8327 40.4975 45.308 40.4975 44.6609C40.4975 44.0137 39.9728 43.489 39.3256 43.489H20.5577C17.9703 43.489 15.8654 41.3846 15.8654 38.798C15.8654 36.2094 17.9703 34.1036 20.5577 34.1036H39.3256C39.9728 34.1036 40.4975 33.5788 40.4975 32.9317C40.4975 32.2846 39.9728 31.7598 39.3256 31.7598H20.5577C17.9703 31.7598 15.8654 29.6538 15.8654 27.0653C15.8654 24.4786 17.9703 22.3743 20.5577 22.3743H34.0625C34.7097 22.3743 35.2343 21.8495 35.2343 21.2024C35.2343 20.5553 34.7097 20.0305 34.0625 20.0305H20.5577C17.9703 20.0305 15.8654 17.9245 15.8654 15.3361C15.8654 12.7495 17.9703 10.6451 20.5577 10.6451H29.5665C30.2137 10.6451 30.7383 10.1203 30.7383 9.4732V4.10496C30.7383 3.13383 31.5279 2.34375 32.4986 2.34375C33.4693 2.34375 34.2589 3.13383 34.2589 4.10496V12.4029C34.2589 13.374 33.4693 14.1641 32.4986 14.1641H20.5577C19.9104 14.1641 19.3858 14.6889 19.3858 15.336C19.3858 15.9831 19.9104 16.5079 20.5577 16.5079H39.3256C41.9111 16.5079 44.0145 18.6137 44.0145 21.2023C44.0146 23.7889 41.9112 25.8933 39.3257 25.8933Z" fill="#F23849"/>
</svg>
