<svg width="26" height="30" viewBox="0 0 26 30" fill="none" xmlns="http://www.w3.org/2000/svg">
<path d="M3.79018 11.6678C2.82042 9.4715 3.92083 6.97041 6.24232 5.54007C6.65426 5.28615 7.14766 5.19481 7.62199 5.28464C8.09631 5.37448 8.51587 5.63874 8.79518 6.02358L10.1715 7.91959C10.393 8.22459 10.5158 8.58857 10.5242 8.96483C10.5325 9.34109 10.426 9.71246 10.2184 10.0313L8.3868 12.8356C8.29658 12.9741 8.24421 13.1327 8.2348 13.2961C8.22539 13.4594 8.25927 13.6219 8.33312 13.7677L8.38085 13.8564L8.50204 14.0777C9.11006 15.1481 9.86306 16.1316 10.7408 17.002C11.6895 17.9225 12.7698 18.7029 13.9486 19.319L14.0407 19.3647C14.189 19.4369 14.3542 19.47 14.5204 19.4607C14.6865 19.4514 14.8478 19.4001 14.9886 19.3117L17.8472 17.5169C18.1722 17.3132 18.5507 17.2088 18.9342 17.2171C19.3176 17.2253 19.6886 17.3457 19.9994 17.563L21.9435 18.9184C22.7534 19.4823 22.9659 20.5734 22.4323 21.4056C20.973 23.6846 18.4138 24.7569 16.1773 23.8001C13.4339 22.6202 10.9409 20.9526 8.82284 18.8806C6.69346 16.8138 4.98539 14.3668 3.78832 11.6683L3.79018 11.6678ZM10.319 13.3644L11.8352 11.037C12.2509 10.3995 12.4643 9.65673 12.448 8.90411C12.4316 8.15149 12.1863 7.42333 11.7434 6.8131L10.3689 4.9166C9.80682 4.14225 8.9625 3.61058 8.00802 3.42993C7.05354 3.24928 6.06072 3.43323 5.23187 3.94431C2.3488 5.72232 0.569229 9.14535 2.02196 12.4364C3.03678 14.7339 4.71244 17.5532 7.45972 20.2299C9.74443 22.4638 12.4334 24.2615 15.3921 25.5334C18.7467 26.9676 22.2463 25.2333 24.0621 22.4C25.1402 20.7171 24.7066 18.5177 23.0737 17.3777L21.1291 16.0205C20.5072 15.5868 19.7652 15.3466 18.9985 15.3308C18.2317 15.315 17.4751 15.5243 16.8257 15.9319L14.4521 17.4211C13.6037 16.9265 12.8183 16.3355 12.1119 15.6603C11.4199 14.9718 10.8178 14.2013 10.3195 13.3662L10.319 13.3644Z" fill="white"/>
</svg>
