<svg width="523" height="259" viewBox="0 0 523 259" fill="none" xmlns="http://www.w3.org/2000/svg">
<path opacity="0.8" d="M175.131 19.526V21.488H171.297V32H169.011V21.488H165.177V19.526H175.131ZM181.467 24.548C181.287 24.488 181.035 24.428 180.711 24.368C180.399 24.296 180.033 24.26 179.613 24.26C179.373 24.26 179.115 24.284 178.839 24.332C178.575 24.38 178.389 24.422 178.281 24.458V32H176.103V23.036C176.523 22.88 177.045 22.736 177.669 22.604C178.305 22.46 179.007 22.388 179.775 22.388C179.919 22.388 180.087 22.4 180.279 22.424C180.471 22.436 180.663 22.46 180.855 22.496C181.047 22.52 181.233 22.556 181.413 22.604C181.593 22.64 181.737 22.676 181.845 22.712L181.467 24.548ZM186.675 30.47C187.347 30.47 187.857 30.434 188.205 30.362V27.95C188.085 27.914 187.911 27.878 187.683 27.842C187.455 27.806 187.203 27.788 186.927 27.788C186.687 27.788 186.441 27.806 186.189 27.842C185.949 27.878 185.727 27.944 185.523 28.04C185.331 28.136 185.175 28.274 185.055 28.454C184.935 28.622 184.875 28.838 184.875 29.102C184.875 29.618 185.037 29.978 185.361 30.182C185.685 30.374 186.123 30.47 186.675 30.47ZM186.495 22.352C187.215 22.352 187.821 22.442 188.313 22.622C188.805 22.802 189.195 23.054 189.483 23.378C189.783 23.702 189.993 24.098 190.113 24.566C190.245 25.022 190.311 25.526 190.311 26.078V31.784C189.975 31.856 189.465 31.94 188.781 32.036C188.109 32.144 187.347 32.198 186.495 32.198C185.931 32.198 185.415 32.144 184.947 32.036C184.479 31.928 184.077 31.754 183.741 31.514C183.417 31.274 183.159 30.962 182.967 30.578C182.787 30.194 182.697 29.72 182.697 29.156C182.697 28.616 182.799 28.16 183.003 27.788C183.219 27.416 183.507 27.116 183.867 26.888C184.227 26.648 184.641 26.48 185.109 26.384C185.589 26.276 186.087 26.222 186.603 26.222C186.843 26.222 187.095 26.24 187.359 26.276C187.623 26.3 187.905 26.348 188.205 26.42V26.06C188.205 25.808 188.175 25.568 188.115 25.34C188.055 25.112 187.947 24.914 187.791 24.746C187.647 24.566 187.449 24.428 187.197 24.332C186.957 24.236 186.651 24.188 186.279 24.188C185.775 24.188 185.313 24.224 184.893 24.296C184.473 24.368 184.131 24.452 183.867 24.548L183.597 22.784C183.873 22.688 184.275 22.592 184.803 22.496C185.331 22.4 185.895 22.352 186.495 22.352ZM195.174 32H192.996V22.586H195.174V32ZM195.408 19.832C195.408 20.24 195.276 20.564 195.012 20.804C194.748 21.044 194.436 21.164 194.076 21.164C193.704 21.164 193.386 21.044 193.122 20.804C192.858 20.564 192.726 20.24 192.726 19.832C192.726 19.412 192.858 19.082 193.122 18.842C193.386 18.602 193.704 18.482 194.076 18.482C194.436 18.482 194.748 18.602 195.012 18.842C195.276 19.082 195.408 19.412 195.408 19.832ZM197.952 22.892C198.372 22.772 198.918 22.658 199.59 22.55C200.262 22.442 201.006 22.388 201.822 22.388C202.59 22.388 203.232 22.496 203.748 22.712C204.264 22.916 204.672 23.21 204.972 23.594C205.284 23.966 205.5 24.422 205.62 24.962C205.752 25.49 205.818 26.072 205.818 26.708V32H203.64V27.05C203.64 26.546 203.604 26.12 203.532 25.772C203.472 25.412 203.364 25.124 203.208 24.908C203.064 24.68 202.86 24.518 202.596 24.422C202.344 24.314 202.032 24.26 201.66 24.26C201.384 24.26 201.096 24.278 200.796 24.314C200.496 24.35 200.274 24.38 200.13 24.404V32H197.952V22.892ZM207.96 27.338C207.96 26.51 208.08 25.784 208.32 25.16C208.572 24.536 208.902 24.02 209.31 23.612C209.718 23.192 210.186 22.88 210.714 22.676C211.242 22.46 211.782 22.352 212.334 22.352C213.63 22.352 214.638 22.754 215.358 23.558C216.09 24.362 216.456 25.562 216.456 27.158C216.456 27.278 216.45 27.416 216.438 27.572C216.438 27.716 216.432 27.848 216.42 27.968H210.21C210.27 28.724 210.534 29.312 211.002 29.732C211.482 30.14 212.172 30.344 213.072 30.344C213.6 30.344 214.08 30.296 214.512 30.2C214.956 30.104 215.304 30.002 215.556 29.894L215.844 31.676C215.724 31.736 215.556 31.802 215.34 31.874C215.136 31.934 214.896 31.988 214.62 32.036C214.356 32.096 214.068 32.144 213.756 32.18C213.444 32.216 213.126 32.234 212.802 32.234C211.974 32.234 211.254 32.114 210.642 31.874C210.03 31.622 209.526 31.28 209.13 30.848C208.734 30.404 208.44 29.888 208.248 29.3C208.056 28.7 207.96 28.046 207.96 27.338ZM214.278 26.366C214.278 26.066 214.236 25.784 214.152 25.52C214.068 25.244 213.942 25.01 213.774 24.818C213.618 24.614 213.42 24.458 213.18 24.35C212.952 24.23 212.676 24.17 212.352 24.17C212.016 24.17 211.722 24.236 211.47 24.368C211.218 24.488 211.002 24.65 210.822 24.854C210.654 25.058 210.522 25.292 210.426 25.556C210.33 25.82 210.264 26.09 210.228 26.366H214.278ZM218.243 27.338C218.243 26.51 218.363 25.784 218.603 25.16C218.855 24.536 219.185 24.02 219.593 23.612C220.001 23.192 220.469 22.88 220.997 22.676C221.525 22.46 222.065 22.352 222.617 22.352C223.913 22.352 224.921 22.754 225.641 23.558C226.373 24.362 226.739 25.562 226.739 27.158C226.739 27.278 226.733 27.416 226.721 27.572C226.721 27.716 226.715 27.848 226.703 27.968H220.493C220.553 28.724 220.817 29.312 221.285 29.732C221.765 30.14 222.455 30.344 223.355 30.344C223.883 30.344 224.363 30.296 224.795 30.2C225.239 30.104 225.587 30.002 225.839 29.894L226.127 31.676C226.007 31.736 225.839 31.802 225.623 31.874C225.419 31.934 225.179 31.988 224.903 32.036C224.639 32.096 224.351 32.144 224.039 32.18C223.727 32.216 223.409 32.234 223.085 32.234C222.257 32.234 221.537 32.114 220.925 31.874C220.313 31.622 219.809 31.28 219.413 30.848C219.017 30.404 218.723 29.888 218.531 29.3C218.339 28.7 218.243 28.046 218.243 27.338ZM224.561 26.366C224.561 26.066 224.519 25.784 224.435 25.52C224.351 25.244 224.225 25.01 224.057 24.818C223.901 24.614 223.703 24.458 223.463 24.35C223.235 24.23 222.959 24.17 222.635 24.17C222.299 24.17 222.005 24.236 221.753 24.368C221.501 24.488 221.285 24.65 221.105 24.854C220.937 25.058 220.805 25.292 220.709 25.556C220.613 25.82 220.547 26.09 220.511 26.366H224.561ZM236.381 30.308C237.197 30.308 237.791 30.17 238.163 29.894C238.535 29.618 238.721 29.228 238.721 28.724C238.721 28.424 238.655 28.166 238.523 27.95C238.403 27.734 238.223 27.542 237.983 27.374C237.755 27.194 237.473 27.032 237.137 26.888C236.801 26.732 236.417 26.582 235.985 26.438C235.553 26.282 235.133 26.114 234.725 25.934C234.329 25.742 233.975 25.508 233.663 25.232C233.363 24.956 233.117 24.626 232.925 24.242C232.745 23.858 232.655 23.396 232.655 22.856C232.655 21.728 233.045 20.846 233.825 20.21C234.605 19.562 235.667 19.238 237.011 19.238C237.791 19.238 238.481 19.328 239.081 19.508C239.693 19.676 240.173 19.862 240.521 20.066L239.819 21.902C239.411 21.674 238.961 21.5 238.469 21.38C237.989 21.26 237.491 21.2 236.975 21.2C236.363 21.2 235.883 21.326 235.535 21.578C235.199 21.83 235.031 22.184 235.031 22.64C235.031 22.916 235.085 23.156 235.193 23.36C235.313 23.552 235.475 23.726 235.679 23.882C235.895 24.038 236.141 24.182 236.417 24.314C236.705 24.446 237.017 24.572 237.353 24.692C237.941 24.908 238.463 25.13 238.919 25.358C239.387 25.574 239.777 25.838 240.089 26.15C240.413 26.45 240.659 26.81 240.827 27.23C240.995 27.638 241.079 28.136 241.079 28.724C241.079 29.852 240.677 30.728 239.873 31.352C239.081 31.964 237.917 32.27 236.381 32.27C235.865 32.27 235.391 32.234 234.959 32.162C234.539 32.102 234.161 32.024 233.825 31.928C233.501 31.832 233.219 31.736 232.979 31.64C232.739 31.532 232.547 31.436 232.403 31.352L233.069 29.498C233.393 29.678 233.831 29.858 234.383 30.038C234.935 30.218 235.601 30.308 236.381 30.308ZM250.692 31.712C250.272 31.82 249.726 31.928 249.054 32.036C248.382 32.156 247.644 32.216 246.84 32.216C246.084 32.216 245.448 32.108 244.932 31.892C244.428 31.676 244.02 31.376 243.708 30.992C243.408 30.608 243.192 30.152 243.06 29.624C242.928 29.084 242.862 28.496 242.862 27.86V22.586H245.04V27.518C245.04 28.526 245.184 29.246 245.472 29.678C245.772 30.11 246.288 30.326 247.02 30.326C247.284 30.326 247.56 30.314 247.848 30.29C248.148 30.266 248.37 30.236 248.514 30.2V22.586H250.692V31.712ZM252.942 27.302C252.942 26.606 253.05 25.958 253.266 25.358C253.482 24.746 253.788 24.218 254.184 23.774C254.592 23.33 255.084 22.982 255.66 22.73C256.236 22.478 256.884 22.352 257.604 22.352C258.492 22.352 259.332 22.514 260.124 22.838L259.656 24.62C259.404 24.512 259.116 24.422 258.792 24.35C258.48 24.278 258.144 24.242 257.784 24.242C256.932 24.242 256.284 24.512 255.84 25.052C255.396 25.58 255.174 26.33 255.174 27.302C255.174 28.238 255.384 28.982 255.804 29.534C256.224 30.074 256.932 30.344 257.928 30.344C258.3 30.344 258.666 30.308 259.026 30.236C259.386 30.164 259.698 30.074 259.962 29.966L260.268 31.766C260.028 31.886 259.662 31.994 259.17 32.09C258.69 32.186 258.192 32.234 257.676 32.234C256.872 32.234 256.17 32.114 255.57 31.874C254.982 31.622 254.49 31.28 254.094 30.848C253.71 30.404 253.422 29.882 253.23 29.282C253.038 28.67 252.942 28.01 252.942 27.302ZM261.432 27.302C261.432 26.606 261.54 25.958 261.756 25.358C261.972 24.746 262.278 24.218 262.674 23.774C263.082 23.33 263.574 22.982 264.15 22.73C264.726 22.478 265.374 22.352 266.094 22.352C266.982 22.352 267.822 22.514 268.614 22.838L268.146 24.62C267.894 24.512 267.606 24.422 267.282 24.35C266.97 24.278 266.634 24.242 266.274 24.242C265.422 24.242 264.774 24.512 264.33 25.052C263.886 25.58 263.664 26.33 263.664 27.302C263.664 28.238 263.874 28.982 264.294 29.534C264.714 30.074 265.422 30.344 266.418 30.344C266.79 30.344 267.156 30.308 267.516 30.236C267.876 30.164 268.188 30.074 268.452 29.966L268.758 31.766C268.518 31.886 268.152 31.994 267.66 32.09C267.18 32.186 266.682 32.234 266.166 32.234C265.362 32.234 264.66 32.114 264.06 31.874C263.472 31.622 262.98 31.28 262.584 30.848C262.2 30.404 261.912 29.882 261.72 29.282C261.528 28.67 261.432 28.01 261.432 27.302ZM269.923 27.338C269.923 26.51 270.043 25.784 270.283 25.16C270.535 24.536 270.865 24.02 271.273 23.612C271.681 23.192 272.149 22.88 272.677 22.676C273.205 22.46 273.745 22.352 274.297 22.352C275.593 22.352 276.601 22.754 277.321 23.558C278.053 24.362 278.419 25.562 278.419 27.158C278.419 27.278 278.413 27.416 278.401 27.572C278.401 27.716 278.395 27.848 278.383 27.968H272.173C272.233 28.724 272.497 29.312 272.965 29.732C273.445 30.14 274.135 30.344 275.035 30.344C275.563 30.344 276.043 30.296 276.475 30.2C276.919 30.104 277.267 30.002 277.519 29.894L277.807 31.676C277.687 31.736 277.519 31.802 277.303 31.874C277.099 31.934 276.859 31.988 276.583 32.036C276.319 32.096 276.031 32.144 275.719 32.18C275.407 32.216 275.089 32.234 274.765 32.234C273.937 32.234 273.217 32.114 272.605 31.874C271.993 31.622 271.489 31.28 271.093 30.848C270.697 30.404 270.403 29.888 270.211 29.3C270.019 28.7 269.923 28.046 269.923 27.338ZM276.241 26.366C276.241 26.066 276.199 25.784 276.115 25.52C276.031 25.244 275.905 25.01 275.737 24.818C275.581 24.614 275.383 24.458 275.143 24.35C274.915 24.23 274.639 24.17 274.315 24.17C273.979 24.17 273.685 24.236 273.433 24.368C273.181 24.488 272.965 24.65 272.785 24.854C272.617 25.058 272.485 25.292 272.389 25.556C272.293 25.82 272.227 26.09 272.191 26.366H276.241ZM283.086 30.434C283.662 30.434 284.082 30.368 284.346 30.236C284.61 30.092 284.742 29.852 284.742 29.516C284.742 29.204 284.598 28.946 284.31 28.742C284.034 28.538 283.572 28.316 282.924 28.076C282.528 27.932 282.162 27.782 281.826 27.626C281.502 27.458 281.22 27.266 280.98 27.05C280.74 26.834 280.548 26.576 280.404 26.276C280.272 25.964 280.206 25.586 280.206 25.142C280.206 24.278 280.524 23.6 281.16 23.108C281.796 22.604 282.66 22.352 283.752 22.352C284.304 22.352 284.832 22.406 285.336 22.514C285.84 22.61 286.218 22.706 286.47 22.802L286.074 24.566C285.834 24.458 285.528 24.362 285.156 24.278C284.784 24.182 284.352 24.134 283.86 24.134C283.416 24.134 283.056 24.212 282.78 24.368C282.504 24.512 282.366 24.74 282.366 25.052C282.366 25.208 282.39 25.346 282.438 25.466C282.498 25.586 282.594 25.7 282.726 25.808C282.858 25.904 283.032 26.006 283.248 26.114C283.464 26.21 283.728 26.312 284.04 26.42C284.556 26.612 284.994 26.804 285.354 26.996C285.714 27.176 286.008 27.386 286.236 27.626C286.476 27.854 286.65 28.118 286.758 28.418C286.866 28.718 286.92 29.078 286.92 29.498C286.92 30.398 286.584 31.082 285.912 31.55C285.252 32.006 284.304 32.234 283.068 32.234C282.24 32.234 281.574 32.162 281.07 32.018C280.566 31.886 280.212 31.778 280.008 31.694L280.386 29.876C280.71 30.008 281.094 30.134 281.538 30.254C281.994 30.374 282.51 30.434 283.086 30.434ZM291.312 30.434C291.888 30.434 292.308 30.368 292.572 30.236C292.836 30.092 292.968 29.852 292.968 29.516C292.968 29.204 292.824 28.946 292.536 28.742C292.26 28.538 291.798 28.316 291.15 28.076C290.754 27.932 290.388 27.782 290.052 27.626C289.728 27.458 289.446 27.266 289.206 27.05C288.966 26.834 288.774 26.576 288.63 26.276C288.498 25.964 288.432 25.586 288.432 25.142C288.432 24.278 288.75 23.6 289.386 23.108C290.022 22.604 290.886 22.352 291.978 22.352C292.53 22.352 293.058 22.406 293.562 22.514C294.066 22.61 294.444 22.706 294.696 22.802L294.3 24.566C294.06 24.458 293.754 24.362 293.382 24.278C293.01 24.182 292.578 24.134 292.086 24.134C291.642 24.134 291.282 24.212 291.006 24.368C290.73 24.512 290.592 24.74 290.592 25.052C290.592 25.208 290.616 25.346 290.664 25.466C290.724 25.586 290.82 25.7 290.952 25.808C291.084 25.904 291.258 26.006 291.474 26.114C291.69 26.21 291.954 26.312 292.266 26.42C292.782 26.612 293.22 26.804 293.58 26.996C293.94 27.176 294.234 27.386 294.462 27.626C294.702 27.854 294.876 28.118 294.984 28.418C295.092 28.718 295.146 29.078 295.146 29.498C295.146 30.398 294.81 31.082 294.138 31.55C293.478 32.006 292.53 32.234 291.294 32.234C290.466 32.234 289.8 32.162 289.296 32.018C288.792 31.886 288.438 31.778 288.234 31.694L288.612 29.876C288.936 30.008 289.32 30.134 289.764 30.254C290.22 30.374 290.736 30.434 291.312 30.434ZM304.928 19.4C306.728 19.4 308.102 19.73 309.05 20.39C310.01 21.05 310.49 22.058 310.49 23.414C310.49 25.106 309.656 26.252 307.988 26.852C308.216 27.128 308.474 27.464 308.762 27.86C309.05 28.256 309.344 28.688 309.644 29.156C309.944 29.612 310.232 30.086 310.508 30.578C310.784 31.058 311.03 31.532 311.246 32H308.708C308.48 31.568 308.234 31.136 307.97 30.704C307.706 30.26 307.436 29.834 307.16 29.426C306.896 29.006 306.632 28.616 306.368 28.256C306.104 27.884 305.858 27.554 305.63 27.266C305.462 27.278 305.318 27.284 305.198 27.284C305.078 27.284 304.964 27.284 304.856 27.284H303.758V32H301.49V19.706C302.042 19.586 302.63 19.508 303.254 19.472C303.878 19.424 304.436 19.4 304.928 19.4ZM305.09 21.362C304.61 21.362 304.166 21.38 303.758 21.416V25.448H304.748C305.3 25.448 305.786 25.418 306.206 25.358C306.626 25.298 306.974 25.19 307.25 25.034C307.538 24.878 307.754 24.668 307.898 24.404C308.042 24.14 308.114 23.804 308.114 23.396C308.114 23.012 308.042 22.688 307.898 22.424C307.754 22.16 307.544 21.95 307.268 21.794C307.004 21.638 306.686 21.53 306.314 21.47C305.942 21.398 305.534 21.362 305.09 21.362ZM312.374 27.338C312.374 26.51 312.494 25.784 312.734 25.16C312.986 24.536 313.316 24.02 313.724 23.612C314.132 23.192 314.6 22.88 315.128 22.676C315.656 22.46 316.196 22.352 316.748 22.352C318.044 22.352 319.052 22.754 319.772 23.558C320.504 24.362 320.87 25.562 320.87 27.158C320.87 27.278 320.864 27.416 320.852 27.572C320.852 27.716 320.846 27.848 320.834 27.968H314.624C314.684 28.724 314.948 29.312 315.416 29.732C315.896 30.14 316.586 30.344 317.486 30.344C318.014 30.344 318.494 30.296 318.926 30.2C319.37 30.104 319.718 30.002 319.97 29.894L320.258 31.676C320.138 31.736 319.97 31.802 319.754 31.874C319.55 31.934 319.31 31.988 319.034 32.036C318.77 32.096 318.482 32.144 318.17 32.18C317.858 32.216 317.54 32.234 317.216 32.234C316.388 32.234 315.668 32.114 315.056 31.874C314.444 31.622 313.94 31.28 313.544 30.848C313.148 30.404 312.854 29.888 312.662 29.3C312.47 28.7 312.374 28.046 312.374 27.338ZM318.692 26.366C318.692 26.066 318.65 25.784 318.566 25.52C318.482 25.244 318.356 25.01 318.188 24.818C318.032 24.614 317.834 24.458 317.594 24.35C317.366 24.23 317.09 24.17 316.766 24.17C316.43 24.17 316.136 24.236 315.884 24.368C315.632 24.488 315.416 24.65 315.236 24.854C315.068 25.058 314.936 25.292 314.84 25.556C314.744 25.82 314.678 26.09 314.642 26.366H318.692ZM329.425 27.338C329.425 26.366 329.203 25.61 328.759 25.07C328.327 24.53 327.625 24.26 326.653 24.26C326.449 24.26 326.233 24.272 326.005 24.296C325.789 24.308 325.573 24.344 325.357 24.404V29.786C325.549 29.918 325.801 30.044 326.113 30.164C326.437 30.272 326.779 30.326 327.139 30.326C327.931 30.326 328.507 30.056 328.867 29.516C329.239 28.976 329.425 28.25 329.425 27.338ZM331.657 27.302C331.657 28.022 331.561 28.682 331.369 29.282C331.189 29.882 330.925 30.398 330.577 30.83C330.229 31.262 329.791 31.598 329.263 31.838C328.747 32.078 328.159 32.198 327.499 32.198C327.055 32.198 326.647 32.144 326.275 32.036C325.903 31.928 325.597 31.808 325.357 31.676V35.33H323.179V22.892C323.623 22.772 324.169 22.658 324.817 22.55C325.465 22.442 326.149 22.388 326.869 22.388C327.613 22.388 328.279 22.502 328.867 22.73C329.455 22.958 329.953 23.288 330.361 23.72C330.781 24.14 331.099 24.656 331.315 25.268C331.543 25.868 331.657 26.546 331.657 27.302ZM342.416 27.284C342.416 28.028 342.308 28.706 342.092 29.318C341.876 29.93 341.57 30.452 341.174 30.884C340.778 31.316 340.298 31.652 339.734 31.892C339.182 32.132 338.57 32.252 337.898 32.252C337.226 32.252 336.614 32.132 336.062 31.892C335.51 31.652 335.036 31.316 334.64 30.884C334.244 30.452 333.932 29.93 333.704 29.318C333.488 28.706 333.38 28.028 333.38 27.284C333.38 26.54 333.488 25.868 333.704 25.268C333.932 24.656 334.244 24.134 334.64 23.702C335.048 23.27 335.528 22.94 336.08 22.712C336.632 22.472 337.238 22.352 337.898 22.352C338.558 22.352 339.164 22.472 339.716 22.712C340.28 22.94 340.76 23.27 341.156 23.702C341.552 24.134 341.858 24.656 342.074 25.268C342.302 25.868 342.416 26.54 342.416 27.284ZM340.184 27.284C340.184 26.348 339.98 25.61 339.572 25.07C339.176 24.518 338.618 24.242 337.898 24.242C337.178 24.242 336.614 24.518 336.206 25.07C335.81 25.61 335.612 26.348 335.612 27.284C335.612 28.232 335.81 28.982 336.206 29.534C336.614 30.086 337.178 30.362 337.898 30.362C338.618 30.362 339.176 30.086 339.572 29.534C339.98 28.982 340.184 28.232 340.184 27.284ZM350.023 24.548C349.843 24.488 349.591 24.428 349.267 24.368C348.955 24.296 348.589 24.26 348.169 24.26C347.929 24.26 347.671 24.284 347.395 24.332C347.131 24.38 346.945 24.422 346.837 24.458V32H344.659V23.036C345.079 22.88 345.601 22.736 346.225 22.604C346.861 22.46 347.563 22.388 348.331 22.388C348.475 22.388 348.643 22.4 348.835 22.424C349.027 22.436 349.219 22.46 349.411 22.496C349.603 22.52 349.789 22.556 349.969 22.604C350.149 22.64 350.293 22.676 350.401 22.712L350.023 24.548ZM351.811 20.102L353.989 19.742V22.586H357.337V24.404H353.989V28.238C353.989 28.994 354.109 29.534 354.349 29.858C354.589 30.182 354.997 30.344 355.573 30.344C355.969 30.344 356.317 30.302 356.617 30.218C356.929 30.134 357.175 30.056 357.355 29.984L357.715 31.712C357.463 31.82 357.133 31.928 356.725 32.036C356.317 32.156 355.837 32.216 355.285 32.216C354.613 32.216 354.049 32.126 353.593 31.946C353.149 31.766 352.795 31.508 352.531 31.172C352.267 30.824 352.081 30.41 351.973 29.93C351.865 29.438 351.811 28.88 351.811 28.256V20.102Z" fill="#F23849"/>
<path opacity="0.2" d="M60 109C60 106.2 60 104.8 60.545 103.73C61.0243 102.789 61.7892 102.024 62.73 101.545C63.7996 101 65.1997 101 68 101H122C124.8 101 126.2 101 127.27 101.545C128.211 102.024 128.976 102.789 129.455 103.73C130 104.8 130 106.2 130 109V222H60V109Z" fill="#8DB98C"/>
<path d="M79.5638 164C79.6358 163.124 79.7858 162.212 80.0138 161.264C80.2418 160.316 80.5178 159.386 80.8418 158.474C81.1778 157.562 81.5498 156.704 81.9578 155.9C82.3658 155.084 82.7798 154.382 83.1998 153.794H77.7818V151.508H86.5118V153.452C86.1278 153.872 85.7018 154.454 85.2338 155.198C84.7778 155.942 84.3398 156.788 83.9198 157.736C83.5118 158.672 83.1518 159.68 82.8398 160.76C82.5398 161.84 82.3538 162.92 82.2818 164H79.5638ZM93.7183 160.328C93.7183 159.98 93.6403 159.674 93.4843 159.41C93.3283 159.134 93.0583 158.906 92.6743 158.726C92.2903 158.546 91.7743 158.408 91.1263 158.312C90.4783 158.216 89.6623 158.168 88.6783 158.168C88.8103 157.052 88.9183 155.918 89.0023 154.766C89.0863 153.614 89.1523 152.534 89.2003 151.526H95.9503V153.776H91.4503C91.4263 154.208 91.3963 154.628 91.3603 155.036C91.3363 155.432 91.3063 155.78 91.2703 156.08C93.0223 156.2 94.3123 156.614 95.1403 157.322C95.9803 158.018 96.4003 158.99 96.4003 160.238C96.4003 160.814 96.2983 161.348 96.0943 161.84C95.8903 162.332 95.5843 162.758 95.1763 163.118C94.7683 163.478 94.2523 163.76 93.6283 163.964C93.0163 164.168 92.2963 164.27 91.4683 164.27C91.1443 164.27 90.8023 164.246 90.4423 164.198C90.0943 164.162 89.7523 164.108 89.4163 164.036C89.0923 163.976 88.7983 163.91 88.5343 163.838C88.2703 163.766 88.0663 163.694 87.9223 163.622L88.4083 161.408C88.7083 161.54 89.1043 161.672 89.5963 161.804C90.0883 161.924 90.6763 161.984 91.3603 161.984C92.1883 161.984 92.7883 161.822 93.1603 161.498C93.5323 161.162 93.7183 160.772 93.7183 160.328ZM104.471 154.73C104.471 155.858 104.183 156.722 103.607 157.322C103.031 157.922 102.257 158.222 101.285 158.222C100.313 158.222 99.5388 157.922 98.9628 157.322C98.3868 156.722 98.0988 155.858 98.0988 154.73C98.0988 153.602 98.3868 152.738 98.9628 152.138C99.5388 151.538 100.313 151.238 101.285 151.238C102.257 151.238 103.031 151.538 103.607 152.138C104.183 152.738 104.471 153.602 104.471 154.73ZM102.437 154.73C102.437 154.118 102.329 153.674 102.113 153.398C101.897 153.122 101.621 152.984 101.285 152.984C100.937 152.984 100.655 153.122 100.439 153.398C100.235 153.674 100.133 154.118 100.133 154.73C100.133 155.342 100.235 155.792 100.439 156.08C100.655 156.356 100.937 156.494 101.285 156.494C101.621 156.494 101.897 156.356 102.113 156.08C102.329 155.792 102.437 155.342 102.437 154.73ZM107.981 151.526H110.483L103.445 164H100.943L107.981 151.526ZM113.363 160.796C113.363 161.924 113.075 162.788 112.499 163.388C111.923 163.988 111.149 164.288 110.177 164.288C109.205 164.288 108.431 163.988 107.855 163.388C107.279 162.788 106.991 161.924 106.991 160.796C106.991 159.668 107.279 158.804 107.855 158.204C108.431 157.604 109.205 157.304 110.177 157.304C111.149 157.304 111.923 157.604 112.499 158.204C113.075 158.804 113.363 159.668 113.363 160.796ZM111.329 160.796C111.329 160.184 111.221 159.74 111.005 159.464C110.789 159.188 110.513 159.05 110.177 159.05C109.829 159.05 109.547 159.188 109.331 159.464C109.127 159.74 109.025 160.184 109.025 160.796C109.025 161.408 109.127 161.858 109.331 162.146C109.547 162.422 109.829 162.56 110.177 162.56C110.513 162.56 110.789 162.422 111.005 162.146C111.221 161.858 111.329 161.408 111.329 160.796Z" fill="white"/>
<path d="M88.9306 248.432C88.9306 248.965 88.8719 249.461 88.7546 249.92C88.6479 250.379 88.4506 250.784 88.1626 251.136C87.8852 251.477 87.5066 251.749 87.0266 251.952C86.5572 252.144 85.9652 252.24 85.2506 252.24C84.8879 252.24 84.5519 252.208 84.2426 252.144C83.9439 252.091 83.6719 252.021 83.4266 251.936C83.1812 251.84 82.9679 251.744 82.7866 251.648C82.6052 251.541 82.4612 251.44 82.3546 251.344L82.9626 250.112C83.1866 250.272 83.4746 250.443 83.8266 250.624C84.1892 250.795 84.6372 250.88 85.1706 250.88C85.9386 250.88 86.4986 250.688 86.8506 250.304C87.2026 249.909 87.3786 249.237 87.3786 248.288V240.912H88.9306V248.432ZM94.3226 250.928C94.6746 250.928 94.9839 250.923 95.2506 250.912C95.5279 250.891 95.7572 250.859 95.9386 250.816V248.336C95.8319 248.283 95.6559 248.24 95.4106 248.208C95.1759 248.165 94.8879 248.144 94.5466 248.144C94.3226 248.144 94.0826 248.16 93.8266 248.192C93.5812 248.224 93.3519 248.293 93.1386 248.4C92.9359 248.496 92.7652 248.635 92.6266 248.816C92.4879 248.987 92.4186 249.216 92.4186 249.504C92.4186 250.037 92.5892 250.411 92.9306 250.624C93.2719 250.827 93.7359 250.928 94.3226 250.928ZM94.1946 243.472C94.7919 243.472 95.2932 243.552 95.6986 243.712C96.1146 243.861 96.4452 244.08 96.6906 244.368C96.9466 244.645 97.1279 244.981 97.2346 245.376C97.3412 245.76 97.3946 246.187 97.3946 246.656V251.856C97.2666 251.877 97.0852 251.909 96.8506 251.952C96.6266 251.984 96.3706 252.016 96.0826 252.048C95.7946 252.08 95.4799 252.107 95.1386 252.128C94.8079 252.16 94.4772 252.176 94.1466 252.176C93.6772 252.176 93.2452 252.128 92.8506 252.032C92.4559 251.936 92.1146 251.787 91.8266 251.584C91.5386 251.371 91.3146 251.093 91.1546 250.752C90.9946 250.411 90.9146 250 90.9146 249.52C90.9146 249.061 91.0052 248.667 91.1866 248.336C91.3786 248.005 91.6346 247.739 91.9546 247.536C92.2746 247.333 92.6479 247.184 93.0746 247.088C93.5012 246.992 93.9492 246.944 94.4186 246.944C94.5679 246.944 94.7226 246.955 94.8826 246.976C95.0426 246.987 95.1919 247.008 95.3306 247.04C95.4799 247.061 95.6079 247.083 95.7146 247.104C95.8212 247.125 95.8959 247.141 95.9386 247.152V246.736C95.9386 246.491 95.9119 246.251 95.8586 246.016C95.8052 245.771 95.7092 245.557 95.5706 245.376C95.4319 245.184 95.2399 245.035 94.9946 244.928C94.7599 244.811 94.4506 244.752 94.0666 244.752C93.5759 244.752 93.1439 244.789 92.7706 244.864C92.4079 244.928 92.1359 244.997 91.9546 245.072L91.7786 243.84C91.9706 243.755 92.2906 243.675 92.7386 243.6C93.1866 243.515 93.6719 243.472 94.1946 243.472ZM99.8659 243.92C100.207 243.835 100.661 243.744 101.226 243.648C101.791 243.552 102.442 243.504 103.178 243.504C103.839 243.504 104.389 243.6 104.826 243.792C105.263 243.973 105.61 244.235 105.866 244.576C106.133 244.907 106.319 245.307 106.426 245.776C106.533 246.245 106.586 246.763 106.586 247.328V252H105.098V247.648C105.098 247.136 105.061 246.699 104.986 246.336C104.922 245.973 104.81 245.68 104.65 245.456C104.49 245.232 104.277 245.072 104.01 244.976C103.743 244.869 103.413 244.816 103.018 244.816C102.858 244.816 102.693 244.821 102.522 244.832C102.351 244.843 102.186 244.859 102.026 244.88C101.877 244.891 101.738 244.907 101.61 244.928C101.493 244.949 101.407 244.965 101.354 244.976V252H99.8659V243.92Z" fill="#969696"/>
<path opacity="0.2" d="M171 68C171 65.1997 171 63.7996 171.545 62.73C172.024 61.7892 172.789 61.0243 173.73 60.545C174.8 60 176.2 60 179 60H233C235.8 60 237.2 60 238.27 60.545C239.211 61.0243 239.976 61.7892 240.455 62.73C241 63.7996 241 65.1997 241 68V222H171V68Z" fill="#6E62D7"/>
<path d="M193.21 140.304C193.486 140.304 193.774 140.28 194.074 140.232C194.374 140.172 194.596 140.094 194.74 139.998V139.836C194.74 139.788 194.74 139.74 194.74 139.692C194.752 139.644 194.758 139.602 194.758 139.566C194.746 139.134 194.71 138.732 194.65 138.36C194.59 137.976 194.488 137.646 194.344 137.37C194.2 137.082 194.002 136.86 193.75 136.704C193.51 136.536 193.21 136.452 192.85 136.452C192.562 136.452 192.31 136.512 192.094 136.632C191.878 136.752 191.704 136.908 191.572 137.1C191.44 137.292 191.338 137.502 191.266 137.73C191.206 137.958 191.176 138.18 191.176 138.396C191.176 139.044 191.332 139.524 191.644 139.836C191.968 140.148 192.49 140.304 193.21 140.304ZM194.524 142.05C194.272 142.17 193.99 142.26 193.678 142.32C193.378 142.368 193.12 142.392 192.904 142.392C192.124 142.392 191.458 142.302 190.906 142.122C190.354 141.93 189.898 141.666 189.538 141.33C189.19 140.982 188.932 140.568 188.764 140.088C188.596 139.608 188.512 139.08 188.512 138.504C188.512 138.024 188.59 137.532 188.746 137.028C188.914 136.524 189.172 136.068 189.52 135.66C189.868 135.24 190.306 134.898 190.834 134.634C191.374 134.358 192.022 134.22 192.778 134.22C194.326 134.22 195.49 134.7 196.27 135.66C197.062 136.608 197.458 137.976 197.458 139.764C197.458 140.94 197.302 141.978 196.99 142.878C196.69 143.778 196.216 144.534 195.568 145.146C194.932 145.758 194.116 146.226 193.12 146.55C192.124 146.862 190.942 147.024 189.574 147.036C189.562 146.652 189.544 146.28 189.52 145.92C189.496 145.56 189.472 145.188 189.448 144.804C190.132 144.792 190.75 144.744 191.302 144.66C191.854 144.564 192.34 144.414 192.76 144.21C193.18 143.994 193.534 143.712 193.822 143.364C194.122 143.016 194.356 142.578 194.524 142.05ZM204.718 143.328C204.718 142.98 204.64 142.674 204.484 142.41C204.328 142.134 204.058 141.906 203.674 141.726C203.29 141.546 202.774 141.408 202.126 141.312C201.478 141.216 200.662 141.168 199.678 141.168C199.81 140.052 199.918 138.918 200.002 137.766C200.086 136.614 200.152 135.534 200.2 134.526H206.95V136.776H202.45C202.426 137.208 202.396 137.628 202.36 138.036C202.336 138.432 202.306 138.78 202.27 139.08C204.022 139.2 205.312 139.614 206.14 140.322C206.98 141.018 207.4 141.99 207.4 143.238C207.4 143.814 207.298 144.348 207.094 144.84C206.89 145.332 206.584 145.758 206.176 146.118C205.768 146.478 205.252 146.76 204.628 146.964C204.016 147.168 203.296 147.27 202.468 147.27C202.144 147.27 201.802 147.246 201.442 147.198C201.094 147.162 200.752 147.108 200.416 147.036C200.092 146.976 199.798 146.91 199.534 146.838C199.27 146.766 199.066 146.694 198.922 146.622L199.408 144.408C199.708 144.54 200.104 144.672 200.596 144.804C201.088 144.924 201.676 144.984 202.36 144.984C203.188 144.984 203.788 144.822 204.16 144.498C204.532 144.162 204.718 143.772 204.718 143.328ZM215.471 137.73C215.471 138.858 215.183 139.722 214.607 140.322C214.031 140.922 213.257 141.222 212.285 141.222C211.313 141.222 210.539 140.922 209.963 140.322C209.387 139.722 209.099 138.858 209.099 137.73C209.099 136.602 209.387 135.738 209.963 135.138C210.539 134.538 211.313 134.238 212.285 134.238C213.257 134.238 214.031 134.538 214.607 135.138C215.183 135.738 215.471 136.602 215.471 137.73ZM213.437 137.73C213.437 137.118 213.329 136.674 213.113 136.398C212.897 136.122 212.621 135.984 212.285 135.984C211.937 135.984 211.655 136.122 211.439 136.398C211.235 136.674 211.133 137.118 211.133 137.73C211.133 138.342 211.235 138.792 211.439 139.08C211.655 139.356 211.937 139.494 212.285 139.494C212.621 139.494 212.897 139.356 213.113 139.08C213.329 138.792 213.437 138.342 213.437 137.73ZM218.981 134.526H221.483L214.445 147H211.943L218.981 134.526ZM224.363 143.796C224.363 144.924 224.075 145.788 223.499 146.388C222.923 146.988 222.149 147.288 221.177 147.288C220.205 147.288 219.431 146.988 218.855 146.388C218.279 145.788 217.991 144.924 217.991 143.796C217.991 142.668 218.279 141.804 218.855 141.204C219.431 140.604 220.205 140.304 221.177 140.304C222.149 140.304 222.923 140.604 223.499 141.204C224.075 141.804 224.363 142.668 224.363 143.796ZM222.329 143.796C222.329 143.184 222.221 142.74 222.005 142.464C221.789 142.188 221.513 142.05 221.177 142.05C220.829 142.05 220.547 142.188 220.331 142.464C220.127 142.74 220.025 143.184 220.025 143.796C220.025 144.408 220.127 144.858 220.331 145.146C220.547 145.422 220.829 145.56 221.177 145.56C221.513 145.56 221.789 145.422 222.005 145.146C222.221 144.858 222.329 144.408 222.329 143.796Z" fill="white"/>
<path d="M194.009 252V240.912H200.697V242.24H195.561V245.584H200.121V246.896H195.561V252H194.009ZM201.824 247.856C201.824 247.12 201.93 246.48 202.144 245.936C202.357 245.381 202.64 244.923 202.992 244.56C203.344 244.197 203.749 243.925 204.208 243.744C204.666 243.563 205.136 243.472 205.616 243.472C206.736 243.472 207.594 243.824 208.192 244.528C208.789 245.221 209.088 246.283 209.088 247.712C209.088 247.776 209.088 247.861 209.088 247.968C209.088 248.064 209.082 248.155 209.072 248.24H203.376C203.44 249.104 203.69 249.76 204.128 250.208C204.565 250.656 205.248 250.88 206.176 250.88C206.698 250.88 207.136 250.837 207.488 250.752C207.85 250.656 208.122 250.565 208.304 250.48L208.512 251.728C208.33 251.824 208.01 251.925 207.552 252.032C207.104 252.139 206.592 252.192 206.016 252.192C205.29 252.192 204.661 252.085 204.128 251.872C203.605 251.648 203.173 251.344 202.832 250.96C202.49 250.576 202.234 250.123 202.064 249.6C201.904 249.067 201.824 248.485 201.824 247.856ZM207.536 247.04C207.546 246.368 207.376 245.819 207.024 245.392C206.682 244.955 206.208 244.736 205.6 244.736C205.258 244.736 204.954 244.805 204.688 244.944C204.432 245.072 204.213 245.243 204.032 245.456C203.85 245.669 203.706 245.915 203.6 246.192C203.504 246.469 203.44 246.752 203.408 247.04H207.536ZM212.713 244.048C212.895 243.931 213.167 243.808 213.529 243.68C213.903 243.552 214.329 243.488 214.809 243.488C215.407 243.488 215.935 243.595 216.393 243.808C216.863 244.021 217.257 244.32 217.577 244.704C217.897 245.088 218.137 245.547 218.297 246.08C218.468 246.613 218.553 247.2 218.553 247.84C218.553 248.512 218.452 249.12 218.249 249.664C218.057 250.197 217.78 250.651 217.417 251.024C217.055 251.397 216.617 251.685 216.105 251.888C215.593 252.091 215.017 252.192 214.377 252.192C213.684 252.192 213.071 252.144 212.537 252.048C212.004 251.952 211.567 251.856 211.225 251.76V239.84L212.713 239.584V244.048ZM212.713 250.704C212.863 250.747 213.071 250.789 213.337 250.832C213.615 250.864 213.956 250.88 214.361 250.88C215.161 250.88 215.801 250.619 216.281 250.096C216.761 249.563 217.001 248.811 217.001 247.84C217.001 247.413 216.959 247.013 216.873 246.64C216.788 246.267 216.649 245.947 216.457 245.68C216.265 245.403 216.015 245.189 215.705 245.04C215.407 244.88 215.044 244.8 214.617 244.8C214.212 244.8 213.839 244.869 213.497 245.008C213.156 245.147 212.895 245.291 212.713 245.44V250.704Z" fill="#969696"/>
<path opacity="0.2" d="M282 97C282 94.1997 282 92.7996 282.545 91.73C283.024 90.7892 283.789 90.0243 284.73 89.545C285.8 89 287.2 89 290 89H344C346.8 89 348.2 89 349.27 89.545C350.211 90.0243 350.976 90.7892 351.455 91.73C352 92.7996 352 94.1997 352 97V222H282V97Z" fill="#BE6FEF"/>
<path d="M308.548 160.526C308.548 161.066 308.452 161.564 308.26 162.02C308.08 162.464 307.804 162.854 307.432 163.19C307.06 163.526 306.592 163.79 306.028 163.982C305.476 164.162 304.834 164.252 304.102 164.252C303.262 164.252 302.56 164.138 301.996 163.91C301.444 163.67 300.994 163.376 300.646 163.028C300.31 162.68 300.07 162.302 299.926 161.894C299.782 161.474 299.71 161.09 299.71 160.742C299.71 160.382 299.758 160.052 299.854 159.752C299.95 159.452 300.082 159.182 300.25 158.942C300.418 158.69 300.604 158.462 300.808 158.258C301.024 158.054 301.252 157.862 301.492 157.682C300.976 157.262 300.592 156.848 300.34 156.44C300.1 156.032 299.98 155.51 299.98 154.874C299.98 154.394 300.076 153.932 300.268 153.488C300.472 153.044 300.754 152.66 301.114 152.336C301.474 152 301.906 151.736 302.41 151.544C302.926 151.34 303.496 151.238 304.12 151.238C304.852 151.238 305.476 151.346 305.992 151.562C306.52 151.766 306.952 152.03 307.288 152.354C307.624 152.678 307.864 153.044 308.008 153.452C308.164 153.848 308.242 154.244 308.242 154.64C308.242 155.216 308.086 155.756 307.774 156.26C307.474 156.752 307.096 157.142 306.64 157.43C307.324 157.874 307.81 158.342 308.098 158.834C308.398 159.314 308.548 159.878 308.548 160.526ZM302.32 160.634C302.32 160.778 302.35 160.94 302.41 161.12C302.482 161.288 302.59 161.444 302.734 161.588C302.878 161.732 303.064 161.852 303.292 161.948C303.52 162.044 303.796 162.092 304.12 162.092C304.744 162.092 305.2 161.942 305.488 161.642C305.776 161.342 305.92 161.006 305.92 160.634C305.92 160.358 305.854 160.112 305.722 159.896C305.602 159.68 305.434 159.494 305.218 159.338C305.002 159.17 304.744 159.026 304.444 158.906C304.156 158.774 303.844 158.654 303.508 158.546C303.172 158.798 302.89 159.092 302.662 159.428C302.434 159.764 302.32 160.166 302.32 160.634ZM305.65 154.712C305.65 154.58 305.62 154.442 305.56 154.298C305.512 154.142 305.422 153.998 305.29 153.866C305.17 153.734 305.014 153.626 304.822 153.542C304.63 153.446 304.396 153.398 304.12 153.398C303.856 153.398 303.628 153.44 303.436 153.524C303.244 153.608 303.082 153.722 302.95 153.866C302.83 153.998 302.74 154.142 302.68 154.298C302.62 154.454 302.59 154.604 302.59 154.748C302.59 155.132 302.728 155.492 303.004 155.828C303.292 156.164 303.778 156.452 304.462 156.692C304.846 156.452 305.14 156.176 305.344 155.864C305.548 155.552 305.65 155.168 305.65 154.712ZM315.718 160.328C315.718 159.98 315.64 159.674 315.484 159.41C315.328 159.134 315.058 158.906 314.674 158.726C314.29 158.546 313.774 158.408 313.126 158.312C312.478 158.216 311.662 158.168 310.678 158.168C310.81 157.052 310.918 155.918 311.002 154.766C311.086 153.614 311.152 152.534 311.2 151.526H317.95V153.776H313.45C313.426 154.208 313.396 154.628 313.36 155.036C313.336 155.432 313.306 155.78 313.27 156.08C315.022 156.2 316.312 156.614 317.14 157.322C317.98 158.018 318.4 158.99 318.4 160.238C318.4 160.814 318.298 161.348 318.094 161.84C317.89 162.332 317.584 162.758 317.176 163.118C316.768 163.478 316.252 163.76 315.628 163.964C315.016 164.168 314.296 164.27 313.468 164.27C313.144 164.27 312.802 164.246 312.442 164.198C312.094 164.162 311.752 164.108 311.416 164.036C311.092 163.976 310.798 163.91 310.534 163.838C310.27 163.766 310.066 163.694 309.922 163.622L310.408 161.408C310.708 161.54 311.104 161.672 311.596 161.804C312.088 161.924 312.676 161.984 313.36 161.984C314.188 161.984 314.788 161.822 315.16 161.498C315.532 161.162 315.718 160.772 315.718 160.328ZM326.471 154.73C326.471 155.858 326.183 156.722 325.607 157.322C325.031 157.922 324.257 158.222 323.285 158.222C322.313 158.222 321.539 157.922 320.963 157.322C320.387 156.722 320.099 155.858 320.099 154.73C320.099 153.602 320.387 152.738 320.963 152.138C321.539 151.538 322.313 151.238 323.285 151.238C324.257 151.238 325.031 151.538 325.607 152.138C326.183 152.738 326.471 153.602 326.471 154.73ZM324.437 154.73C324.437 154.118 324.329 153.674 324.113 153.398C323.897 153.122 323.621 152.984 323.285 152.984C322.937 152.984 322.655 153.122 322.439 153.398C322.235 153.674 322.133 154.118 322.133 154.73C322.133 155.342 322.235 155.792 322.439 156.08C322.655 156.356 322.937 156.494 323.285 156.494C323.621 156.494 323.897 156.356 324.113 156.08C324.329 155.792 324.437 155.342 324.437 154.73ZM329.981 151.526H332.483L325.445 164H322.943L329.981 151.526ZM335.363 160.796C335.363 161.924 335.075 162.788 334.499 163.388C333.923 163.988 333.149 164.288 332.177 164.288C331.205 164.288 330.431 163.988 329.855 163.388C329.279 162.788 328.991 161.924 328.991 160.796C328.991 159.668 329.279 158.804 329.855 158.204C330.431 157.604 331.205 157.304 332.177 157.304C333.149 157.304 333.923 157.604 334.499 158.204C335.075 158.804 335.363 159.668 335.363 160.796ZM333.329 160.796C333.329 160.184 333.221 159.74 333.005 159.464C332.789 159.188 332.513 159.05 332.177 159.05C331.829 159.05 331.547 159.188 331.331 159.464C331.127 159.74 331.025 160.184 331.025 160.796C331.025 161.408 331.127 161.858 331.331 162.146C331.547 162.422 331.829 162.56 332.177 162.56C332.513 162.56 332.789 162.422 333.005 162.146C333.221 161.858 333.329 161.408 333.329 160.796Z" fill="white"/>
<path d="M309.118 250.464C309.011 250.208 308.867 249.883 308.686 249.488C308.515 249.093 308.328 248.667 308.126 248.208C307.923 247.749 307.704 247.28 307.47 246.8C307.246 246.309 307.032 245.851 306.83 245.424C306.627 244.987 306.435 244.597 306.254 244.256C306.083 243.915 305.944 243.653 305.838 243.472C305.72 244.731 305.624 246.096 305.55 247.568C305.475 249.029 305.411 250.507 305.358 252H303.838C303.88 251.04 303.928 250.075 303.982 249.104C304.035 248.123 304.094 247.163 304.158 246.224C304.232 245.275 304.307 244.352 304.382 243.456C304.467 242.56 304.558 241.712 304.654 240.912H306.014C306.302 241.381 306.611 241.936 306.942 242.576C307.272 243.216 307.603 243.888 307.934 244.592C308.264 245.285 308.584 245.984 308.894 246.688C309.203 247.381 309.486 248.016 309.742 248.592C309.998 248.016 310.28 247.381 310.59 246.688C310.899 245.984 311.219 245.285 311.55 244.592C311.88 243.888 312.211 243.216 312.542 242.576C312.872 241.936 313.182 241.381 313.47 240.912H314.83C315.192 244.485 315.464 248.181 315.646 252H314.126C314.072 250.507 314.008 249.029 313.934 247.568C313.859 246.096 313.763 244.731 313.646 243.472C313.539 243.653 313.395 243.915 313.214 244.256C313.043 244.597 312.856 244.987 312.654 245.424C312.451 245.851 312.232 246.309 311.998 246.8C311.774 247.28 311.56 247.749 311.358 248.208C311.155 248.667 310.963 249.093 310.782 249.488C310.611 249.883 310.472 250.208 310.366 250.464H309.118ZM320.799 250.928C321.151 250.928 321.46 250.923 321.727 250.912C322.004 250.891 322.234 250.859 322.415 250.816V248.336C322.308 248.283 322.132 248.24 321.887 248.208C321.652 248.165 321.364 248.144 321.023 248.144C320.799 248.144 320.559 248.16 320.303 248.192C320.058 248.224 319.828 248.293 319.615 248.4C319.412 248.496 319.242 248.635 319.103 248.816C318.964 248.987 318.895 249.216 318.895 249.504C318.895 250.037 319.066 250.411 319.407 250.624C319.748 250.827 320.212 250.928 320.799 250.928ZM320.671 243.472C321.268 243.472 321.77 243.552 322.175 243.712C322.591 243.861 322.922 244.08 323.167 244.368C323.423 244.645 323.604 244.981 323.711 245.376C323.818 245.76 323.871 246.187 323.871 246.656V251.856C323.743 251.877 323.562 251.909 323.327 251.952C323.103 251.984 322.847 252.016 322.559 252.048C322.271 252.08 321.956 252.107 321.615 252.128C321.284 252.16 320.954 252.176 320.623 252.176C320.154 252.176 319.722 252.128 319.327 252.032C318.932 251.936 318.591 251.787 318.303 251.584C318.015 251.371 317.791 251.093 317.631 250.752C317.471 250.411 317.391 250 317.391 249.52C317.391 249.061 317.482 248.667 317.663 248.336C317.855 248.005 318.111 247.739 318.431 247.536C318.751 247.333 319.124 247.184 319.551 247.088C319.978 246.992 320.426 246.944 320.895 246.944C321.044 246.944 321.199 246.955 321.359 246.976C321.519 246.987 321.668 247.008 321.807 247.04C321.956 247.061 322.084 247.083 322.191 247.104C322.298 247.125 322.372 247.141 322.415 247.152V246.736C322.415 246.491 322.388 246.251 322.335 246.016C322.282 245.771 322.186 245.557 322.047 245.376C321.908 245.184 321.716 245.035 321.471 244.928C321.236 244.811 320.927 244.752 320.543 244.752C320.052 244.752 319.62 244.789 319.247 244.864C318.884 244.928 318.612 244.997 318.431 245.072L318.255 243.84C318.447 243.755 318.767 243.675 319.215 243.6C319.663 243.515 320.148 243.472 320.671 243.472ZM329.415 243.504C329.543 243.504 329.687 243.515 329.847 243.536C330.017 243.547 330.183 243.568 330.343 243.6C330.503 243.621 330.647 243.648 330.775 243.68C330.913 243.701 331.015 243.723 331.079 243.744L330.823 245.04C330.705 244.997 330.508 244.949 330.231 244.896C329.964 244.832 329.617 244.8 329.191 244.8C328.913 244.8 328.636 244.832 328.359 244.896C328.092 244.949 327.916 244.987 327.831 245.008V252H326.343V244.032C326.695 243.904 327.132 243.787 327.655 243.68C328.177 243.563 328.764 243.504 329.415 243.504Z" fill="#969696"/>
<path opacity="0.2" d="M393 85C393 82.1997 393 80.7996 393.545 79.73C394.024 78.7892 394.789 78.0243 395.73 77.545C396.8 77 398.2 77 401 77H455C457.8 77 459.2 77 460.27 77.545C461.211 78.0243 461.976 78.7892 462.455 79.73C463 80.7996 463 82.1997 463 85V222H393V85Z" fill="#F39B45"/>
<path d="M419.548 147.526C419.548 148.066 419.452 148.564 419.26 149.02C419.08 149.464 418.804 149.854 418.432 150.19C418.06 150.526 417.592 150.79 417.028 150.982C416.476 151.162 415.834 151.252 415.102 151.252C414.262 151.252 413.56 151.138 412.996 150.91C412.444 150.67 411.994 150.376 411.646 150.028C411.31 149.68 411.07 149.302 410.926 148.894C410.782 148.474 410.71 148.09 410.71 147.742C410.71 147.382 410.758 147.052 410.854 146.752C410.95 146.452 411.082 146.182 411.25 145.942C411.418 145.69 411.604 145.462 411.808 145.258C412.024 145.054 412.252 144.862 412.492 144.682C411.976 144.262 411.592 143.848 411.34 143.44C411.1 143.032 410.98 142.51 410.98 141.874C410.98 141.394 411.076 140.932 411.268 140.488C411.472 140.044 411.754 139.66 412.114 139.336C412.474 139 412.906 138.736 413.41 138.544C413.926 138.34 414.496 138.238 415.12 138.238C415.852 138.238 416.476 138.346 416.992 138.562C417.52 138.766 417.952 139.03 418.288 139.354C418.624 139.678 418.864 140.044 419.008 140.452C419.164 140.848 419.242 141.244 419.242 141.64C419.242 142.216 419.086 142.756 418.774 143.26C418.474 143.752 418.096 144.142 417.64 144.43C418.324 144.874 418.81 145.342 419.098 145.834C419.398 146.314 419.548 146.878 419.548 147.526ZM413.32 147.634C413.32 147.778 413.35 147.94 413.41 148.12C413.482 148.288 413.59 148.444 413.734 148.588C413.878 148.732 414.064 148.852 414.292 148.948C414.52 149.044 414.796 149.092 415.12 149.092C415.744 149.092 416.2 148.942 416.488 148.642C416.776 148.342 416.92 148.006 416.92 147.634C416.92 147.358 416.854 147.112 416.722 146.896C416.602 146.68 416.434 146.494 416.218 146.338C416.002 146.17 415.744 146.026 415.444 145.906C415.156 145.774 414.844 145.654 414.508 145.546C414.172 145.798 413.89 146.092 413.662 146.428C413.434 146.764 413.32 147.166 413.32 147.634ZM416.65 141.712C416.65 141.58 416.62 141.442 416.56 141.298C416.512 141.142 416.422 140.998 416.29 140.866C416.17 140.734 416.014 140.626 415.822 140.542C415.63 140.446 415.396 140.398 415.12 140.398C414.856 140.398 414.628 140.44 414.436 140.524C414.244 140.608 414.082 140.722 413.95 140.866C413.83 140.998 413.74 141.142 413.68 141.298C413.62 141.454 413.59 141.604 413.59 141.748C413.59 142.132 413.728 142.492 414.004 142.828C414.292 143.164 414.778 143.452 415.462 143.692C415.846 143.452 416.14 143.176 416.344 142.864C416.548 142.552 416.65 142.168 416.65 141.712ZM425.44 144.304C425.716 144.304 426.004 144.28 426.304 144.232C426.604 144.172 426.826 144.094 426.97 143.998V143.836C426.97 143.788 426.97 143.74 426.97 143.692C426.982 143.644 426.988 143.602 426.988 143.566C426.976 143.134 426.94 142.732 426.88 142.36C426.82 141.976 426.718 141.646 426.574 141.37C426.43 141.082 426.232 140.86 425.98 140.704C425.74 140.536 425.44 140.452 425.08 140.452C424.792 140.452 424.54 140.512 424.324 140.632C424.108 140.752 423.934 140.908 423.802 141.1C423.67 141.292 423.568 141.502 423.496 141.73C423.436 141.958 423.406 142.18 423.406 142.396C423.406 143.044 423.562 143.524 423.874 143.836C424.198 144.148 424.72 144.304 425.44 144.304ZM426.754 146.05C426.502 146.17 426.22 146.26 425.908 146.32C425.608 146.368 425.35 146.392 425.134 146.392C424.354 146.392 423.688 146.302 423.136 146.122C422.584 145.93 422.128 145.666 421.768 145.33C421.42 144.982 421.162 144.568 420.994 144.088C420.826 143.608 420.742 143.08 420.742 142.504C420.742 142.024 420.82 141.532 420.976 141.028C421.144 140.524 421.402 140.068 421.75 139.66C422.098 139.24 422.536 138.898 423.064 138.634C423.604 138.358 424.252 138.22 425.008 138.22C426.556 138.22 427.72 138.7 428.5 139.66C429.292 140.608 429.688 141.976 429.688 143.764C429.688 144.94 429.532 145.978 429.22 146.878C428.92 147.778 428.446 148.534 427.798 149.146C427.162 149.758 426.346 150.226 425.35 150.55C424.354 150.862 423.172 151.024 421.804 151.036C421.792 150.652 421.774 150.28 421.75 149.92C421.726 149.56 421.702 149.188 421.678 148.804C422.362 148.792 422.98 148.744 423.532 148.66C424.084 148.564 424.57 148.414 424.99 148.21C425.41 147.994 425.764 147.712 426.052 147.364C426.352 147.016 426.586 146.578 426.754 146.05ZM437.471 141.73C437.471 142.858 437.183 143.722 436.607 144.322C436.031 144.922 435.257 145.222 434.285 145.222C433.313 145.222 432.539 144.922 431.963 144.322C431.387 143.722 431.099 142.858 431.099 141.73C431.099 140.602 431.387 139.738 431.963 139.138C432.539 138.538 433.313 138.238 434.285 138.238C435.257 138.238 436.031 138.538 436.607 139.138C437.183 139.738 437.471 140.602 437.471 141.73ZM435.437 141.73C435.437 141.118 435.329 140.674 435.113 140.398C434.897 140.122 434.621 139.984 434.285 139.984C433.937 139.984 433.655 140.122 433.439 140.398C433.235 140.674 433.133 141.118 433.133 141.73C433.133 142.342 433.235 142.792 433.439 143.08C433.655 143.356 433.937 143.494 434.285 143.494C434.621 143.494 434.897 143.356 435.113 143.08C435.329 142.792 435.437 142.342 435.437 141.73ZM440.981 138.526H443.483L436.445 151H433.943L440.981 138.526ZM446.363 147.796C446.363 148.924 446.075 149.788 445.499 150.388C444.923 150.988 444.149 151.288 443.177 151.288C442.205 151.288 441.431 150.988 440.855 150.388C440.279 149.788 439.991 148.924 439.991 147.796C439.991 146.668 440.279 145.804 440.855 145.204C441.431 144.604 442.205 144.304 443.177 144.304C444.149 144.304 444.923 144.604 445.499 145.204C446.075 145.804 446.363 146.668 446.363 147.796ZM444.329 147.796C444.329 147.184 444.221 146.74 444.005 146.464C443.789 146.188 443.513 146.05 443.177 146.05C442.829 146.05 442.547 146.188 442.331 146.464C442.127 146.74 442.025 147.184 442.025 147.796C442.025 148.408 442.127 148.858 442.331 149.146C442.547 149.422 442.829 149.56 443.177 149.56C443.513 149.56 443.789 149.422 444.005 149.146C444.221 148.858 444.329 148.408 444.329 147.796Z" fill="white"/>
<path d="M423.682 252C423.501 251.52 423.33 251.051 423.17 250.592C423.01 250.123 422.845 249.648 422.674 249.168H417.65L416.642 252H415.026C415.453 250.827 415.853 249.744 416.226 248.752C416.6 247.749 416.962 246.8 417.314 245.904C417.677 245.008 418.034 244.155 418.386 243.344C418.738 242.523 419.106 241.712 419.49 240.912H420.914C421.298 241.712 421.666 242.523 422.018 243.344C422.37 244.155 422.722 245.008 423.074 245.904C423.437 246.8 423.805 247.749 424.178 248.752C424.552 249.744 424.952 250.827 425.378 252H423.682ZM422.226 247.888C421.885 246.96 421.544 246.064 421.202 245.2C420.872 244.325 420.525 243.488 420.162 242.688C419.789 243.488 419.432 244.325 419.09 245.2C418.76 246.064 418.429 246.96 418.098 247.888H422.226ZM432.564 247.856C432.564 246.885 432.324 246.139 431.844 245.616C431.364 245.093 430.724 244.832 429.924 244.832C429.476 244.832 429.124 244.848 428.868 244.88C428.622 244.912 428.425 244.949 428.276 244.992V250.24C428.457 250.389 428.718 250.533 429.06 250.672C429.401 250.811 429.774 250.88 430.18 250.88C430.606 250.88 430.969 250.805 431.268 250.656C431.577 250.496 431.828 250.283 432.02 250.016C432.212 249.739 432.35 249.419 432.436 249.056C432.521 248.683 432.564 248.283 432.564 247.856ZM434.116 247.856C434.116 248.485 434.03 249.067 433.86 249.6C433.7 250.133 433.46 250.592 433.14 250.976C432.82 251.36 432.425 251.659 431.956 251.872C431.497 252.085 430.969 252.192 430.372 252.192C429.892 252.192 429.465 252.128 429.092 252C428.729 251.872 428.457 251.749 428.276 251.632V254.96H426.788V243.936C427.14 243.851 427.577 243.76 428.1 243.664C428.633 243.557 429.246 243.504 429.94 243.504C430.58 243.504 431.156 243.605 431.668 243.808C432.18 244.011 432.617 244.299 432.98 244.672C433.342 245.045 433.62 245.504 433.812 246.048C434.014 246.581 434.116 247.184 434.116 247.856ZM439.282 243.504C439.41 243.504 439.554 243.515 439.714 243.536C439.884 243.547 440.05 243.568 440.21 243.6C440.37 243.621 440.514 243.648 440.642 243.68C440.78 243.701 440.882 243.723 440.946 243.744L440.69 245.04C440.572 244.997 440.375 244.949 440.098 244.896C439.831 244.832 439.484 244.8 439.058 244.8C438.78 244.8 438.503 244.832 438.226 244.896C437.959 244.949 437.783 244.987 437.698 245.008V252H436.21V244.032C436.562 243.904 436.999 243.787 437.522 243.68C438.044 243.563 438.631 243.504 439.282 243.504Z" fill="#969696"/>
<rect x="0.5" y="0.5" width="522" height="221" stroke="url(#paint0_linear_1_214)"/>
<defs>
<linearGradient id="paint0_linear_1_214" x1="261.5" y1="0" x2="261.5" y2="222" gradientUnits="userSpaceOnUse">
<stop stop-color="#F23849"/>
<stop offset="1" stop-color="#28282A"/>
</linearGradient>
</defs>
</svg>
