<svg width="60" height="60" viewBox="0 0 60 60" fill="none" xmlns="http://www.w3.org/2000/svg">
<path d="M9.31118 9.89969L16.1242 3.08431L13.449 0.40824C12.9049 -0.13608 11.9242 -0.13608 11.3801 0.40824L6.63606 5.15396C6.364 5.42613 6.20779 5.80384 6.20779 6.18879C6.20779 6.57375 6.364 6.95146 6.63606 7.22362L9.31118 9.89969Z" fill="#F23849"/>
<path d="M7.2406 15.5021C7.2406 15.887 7.3968 16.2648 7.66887 16.5369L9.30953 18.1782L24.3982 3.08415L22.7576 1.44291C22.2134 0.898588 21.2328 0.898588 20.6886 1.44291L7.66887 14.4673C7.3968 14.7394 7.2406 15.1171 7.2406 15.5021Z" fill="#F23849"/>
<path d="M8.27498 22.746C8.27498 23.1309 8.43118 23.5086 8.70325 23.7808L10.6956 25.7739C12.0704 25.3165 13.5145 25.0174 15.0104 24.8943L32.6738 7.22354C32.9459 6.95138 33.1021 6.57367 33.1021 6.18872C33.1021 5.80376 32.9459 5.42605 32.6738 5.15389L29.9987 2.47782C29.4546 1.9335 28.4739 1.9335 27.9298 2.47782L8.70325 21.7111C8.43118 21.9833 8.27498 22.361 8.27498 22.746Z" fill="#F23849"/>
<path d="M45.0877 32.0594L27.9301 14.8958L21.1171 21.7111L29.3711 29.968C29.5935 30.1791 29.8087 30.3954 30.0208 30.6179L38.2748 38.8748L45.0877 32.0594Z" fill="#F23849"/>
<path d="M58.9653 38.2686C58.9653 37.8836 58.8091 37.5059 58.537 37.2338L56.8964 35.5925L41.8077 50.6865L43.4484 52.3278C43.9925 52.8721 44.9732 52.8721 45.5173 52.3278L58.537 39.3034C58.8091 39.0313 58.9653 38.6536 58.9653 38.2686Z" fill="#F23849"/>
<path d="M57.929 31.0247C57.929 30.6397 57.7728 30.262 57.5008 29.9898L54.8257 27.3138C54.2815 26.7694 53.3009 26.7694 52.7567 27.3138L35.0933 44.9845C34.9702 46.4809 34.6712 47.9244 34.214 49.3008L36.2053 51.2928C36.7494 51.8371 37.7301 51.8371 38.2742 51.2928L57.5008 32.0595C57.7728 31.7873 57.929 31.4096 57.929 31.0247Z" fill="#F23849"/>
<path d="M59.5724 46.5472L56.8972 43.8711L50.0843 50.6865L52.7594 53.3625C53.3035 53.9069 54.2842 53.9069 54.8283 53.3625L59.5724 48.6168C59.8444 48.3447 60.0006 47.9669 60.0006 47.582C60.0006 47.197 59.8444 46.8193 59.5724 46.5472Z" fill="#F23849"/>
<path d="M27.8995 31.4222C24.9337 28.6188 20.9448 26.8855 16.5514 26.8855C7.42538 26.8855 0 34.3135 0 43.4428C0 52.572 7.42538 60 16.5514 60C25.6775 60 33.1028 52.572 33.1028 43.4428C33.1028 39.0478 31.3701 35.0575 28.5677 32.0907L27.8995 31.4222ZM16.5514 56.8955C9.12397 56.8955 3.10339 50.8728 3.10339 43.4428C3.10339 36.0127 9.12397 29.99 16.5514 29.99C23.9789 29.99 29.9994 36.0127 29.9994 43.4428C29.9994 50.8728 23.9789 56.8955 16.5514 56.8955Z" fill="#F23849"/>
<path d="M16.5522 50.6868C20.5514 50.6868 23.7934 47.4437 23.7934 43.443C23.7934 39.4424 20.5514 36.1992 16.5522 36.1992C12.5529 36.1992 9.31091 39.4424 9.31091 43.443C9.31091 47.4437 12.5529 50.6868 16.5522 50.6868Z" fill="#F23849"/>
</svg>
